<?xml version="1.0" encoding="UTF-8" standalone="no"?>
<!DOCTYPE svg PUBLIC "-//W3C//DTD SVG 1.1//EN"
 "http://www.w3.org/Graphics/SVG/1.1/DTD/svg11.dtd">
<!-- Generated by graphviz version 8.1.0 (0)
 -->
<!-- Title: dependency&#45;cruiser output Pages: 1 -->
<svg width="904pt" height="754pt"
 viewBox="0.00 0.00 904.25 754.00" xmlns="http://www.w3.org/2000/svg" xmlns:xlink="http://www.w3.org/1999/xlink">
<g id="graph0" class="graph" transform="scale(1 1) rotate(0) translate(4 750)">
<title>dependency&#45;cruiser output</title>
<polygon fill="white" stroke="none" points="-4,4 -4,-750 900.25,-750 900.25,4 -4,4"/>
<g id="clust1" class="cluster">
<title>cluster_src</title>
<path fill="#ffffff" stroke="black" stroke-width="2" d="M20,-8C20,-8 876.25,-8 876.25,-8 882.25,-8 888.25,-14 888.25,-20 888.25,-20 888.25,-726 888.25,-726 888.25,-732 882.25,-738 876.25,-738 876.25,-738 20,-738 20,-738 14,-738 8,-732 8,-726 8,-726 8,-20 8,-20 8,-14 14,-8 20,-8"/>
<text text-anchor="middle" x="448.12" y="-725.45" font-family="Helvetica,sans-Serif" font-weight="bold" font-size="9.00">src</text>
</g>
<g id="clust2" class="cluster">
<title>cluster_src/app</title>
<path fill="#ffffff" stroke="black" stroke-width="2" d="M28,-425C28,-425 284.75,-425 284.75,-425 290.75,-425 296.75,-431 296.75,-437 296.75,-437 296.75,-534 296.75,-534 296.75,-540 290.75,-546 284.75,-546 284.75,-546 28,-546 28,-546 22,-546 16,-540 16,-534 16,-534 16,-437 16,-437 16,-431 22,-425 28,-425"/>
<text text-anchor="middle" x="156.38" y="-533.45" font-family="Helvetica,sans-Serif" font-weight="bold" font-size="9.00">app</text>
</g>
<g id="clust3" class="cluster">
<title>cluster_src/app/providers</title>
<path fill="#ffffff" stroke="black" stroke-width="2" d="M101.25,-433C101.25,-433 276.75,-433 276.75,-433 282.75,-433 288.75,-439 288.75,-445 288.75,-445 288.75,-507 288.75,-507 288.75,-513 282.75,-519 276.75,-519 276.75,-519 101.25,-519 101.25,-519 95.25,-519 89.25,-513 89.25,-507 89.25,-507 89.25,-445 89.25,-445 89.25,-439 95.25,-433 101.25,-433"/>
<text text-anchor="middle" x="189" y="-506.45" font-family="Helvetica,sans-Serif" font-weight="bold" font-size="9.00">providers</text>
</g>
<g id="clust4" class="cluster">
<title>cluster_src/pages</title>
<path fill="#ffffff" stroke="black" stroke-width="2" d="M316.75,-79C316.75,-79 489.5,-79 489.5,-79 495.5,-79 501.5,-85 501.5,-91 501.5,-91 501.5,-661 501.5,-661 501.5,-667 495.5,-673 489.5,-673 489.5,-673 316.75,-673 316.75,-673 310.75,-673 304.75,-667 304.75,-661 304.75,-661 304.75,-91 304.75,-91 304.75,-85 310.75,-79 316.75,-79"/>
<text text-anchor="middle" x="403.12" y="-660.45" font-family="Helvetica,sans-Serif" font-weight="bold" font-size="9.00">pages</text>
</g>
<g id="clust5" class="cluster">
<title>cluster_src/pages/account</title>
<path fill="#ffffff" stroke="black" stroke-width="2" d="M324.75,-591C324.75,-591 467.62,-591 467.62,-591 473.62,-591 479.62,-597 479.62,-603 479.62,-603 479.62,-634 479.62,-634 479.62,-640 473.62,-646 467.62,-646 467.62,-646 324.75,-646 324.75,-646 318.75,-646 312.75,-640 312.75,-634 312.75,-634 312.75,-603 312.75,-603 312.75,-597 318.75,-591 324.75,-591"/>
<text text-anchor="middle" x="396.19" y="-633.45" font-family="Helvetica,sans-Serif" font-weight="bold" font-size="9.00">account</text>
</g>
<g id="clust6" class="cluster">
<title>cluster_src/pages/bookings</title>
<path fill="#ffffff" stroke="black" stroke-width="2" d="M324.75,-528C324.75,-528 469.12,-528 469.12,-528 475.12,-528 481.12,-534 481.12,-540 481.12,-540 481.12,-571 481.12,-571 481.12,-577 475.12,-583 469.12,-583 469.12,-583 324.75,-583 324.75,-583 318.75,-583 312.75,-577 312.75,-571 312.75,-571 312.75,-540 312.75,-540 312.75,-534 318.75,-528 324.75,-528"/>
<text text-anchor="middle" x="396.94" y="-570.45" font-family="Helvetica,sans-Serif" font-weight="bold" font-size="9.00">bookings</text>
</g>
<g id="clust7" class="cluster">
<title>cluster_src/pages/cabins</title>
<path fill="#ffffff" stroke="black" stroke-width="2" d="M324.75,-465C324.75,-465 463.88,-465 463.88,-465 469.88,-465 475.88,-471 475.88,-477 475.88,-477 475.88,-508 475.88,-508 475.88,-514 469.88,-520 463.88,-520 463.88,-520 324.75,-520 324.75,-520 318.75,-520 312.75,-514 312.75,-508 312.75,-508 312.75,-477 312.75,-477 312.75,-471 318.75,-465 324.75,-465"/>
<text text-anchor="middle" x="394.31" y="-507.45" font-family="Helvetica,sans-Serif" font-weight="bold" font-size="9.00">cabins</text>
</g>
<g id="clust8" class="cluster">
<title>cluster_src/pages/dashboard</title>
<path fill="#ffffff" stroke="black" stroke-width="2" d="M324.75,-402C324.75,-402 473.25,-402 473.25,-402 479.25,-402 485.25,-408 485.25,-414 485.25,-414 485.25,-445 485.25,-445 485.25,-451 479.25,-457 473.25,-457 473.25,-457 324.75,-457 324.75,-457 318.75,-457 312.75,-451 312.75,-445 312.75,-445 312.75,-414 312.75,-414 312.75,-408 318.75,-402 324.75,-402"/>
<text text-anchor="middle" x="399" y="-444.45" font-family="Helvetica,sans-Serif" font-weight="bold" font-size="9.00">dashboard</text>
</g>
<g id="clust9" class="cluster">
<title>cluster_src/pages/error</title>
<path fill="#ffffff" stroke="black" stroke-width="2" d="M324.75,-339C324.75,-339 459.75,-339 459.75,-339 465.75,-339 471.75,-345 471.75,-351 471.75,-351 471.75,-382 471.75,-382 471.75,-388 465.75,-394 459.75,-394 459.75,-394 324.75,-394 324.75,-394 318.75,-394 312.75,-388 312.75,-382 312.75,-382 312.75,-351 312.75,-351 312.75,-345 318.75,-339 324.75,-339"/>
<text text-anchor="middle" x="392.25" y="-381.45" font-family="Helvetica,sans-Serif" font-weight="bold" font-size="9.00">error</text>
</g>
<g id="clust10" class="cluster">
<title>cluster_src/pages/layouts</title>
<path fill="#ffffff" stroke="black" stroke-width="2" d="M324.75,-276C324.75,-276 481.5,-276 481.5,-276 487.5,-276 493.5,-282 493.5,-288 493.5,-288 493.5,-319 493.5,-319 493.5,-325 487.5,-331 481.5,-331 481.5,-331 324.75,-331 324.75,-331 318.75,-331 312.75,-325 312.75,-319 312.75,-319 312.75,-288 312.75,-288 312.75,-282 318.75,-276 324.75,-276"/>
<text text-anchor="middle" x="403.12" y="-318.45" font-family="Helvetica,sans-Serif" font-weight="bold" font-size="9.00">layouts</text>
</g>
<g id="clust11" class="cluster">
<title>cluster_src/pages/login</title>
<path fill="#ffffff" stroke="black" stroke-width="2" d="M324.75,-213C324.75,-213 460.88,-213 460.88,-213 466.88,-213 472.88,-219 472.88,-225 472.88,-225 472.88,-256 472.88,-256 472.88,-262 466.88,-268 460.88,-268 460.88,-268 324.75,-268 324.75,-268 318.75,-268 312.75,-262 312.75,-256 312.75,-256 312.75,-225 312.75,-225 312.75,-219 318.75,-213 324.75,-213"/>
<text text-anchor="middle" x="392.81" y="-255.45" font-family="Helvetica,sans-Serif" font-weight="bold" font-size="9.00">login</text>
</g>
<g id="clust12" class="cluster">
<title>cluster_src/pages/settings</title>
<path fill="#ffffff" stroke="black" stroke-width="2" d="M324.75,-150C324.75,-150 467.62,-150 467.62,-150 473.62,-150 479.62,-156 479.62,-162 479.62,-162 479.62,-193 479.62,-193 479.62,-199 473.62,-205 467.62,-205 467.62,-205 324.75,-205 324.75,-205 318.75,-205 312.75,-199 312.75,-193 312.75,-193 312.75,-162 312.75,-162 312.75,-156 318.75,-150 324.75,-150"/>
<text text-anchor="middle" x="396.19" y="-192.45" font-family="Helvetica,sans-Serif" font-weight="bold" font-size="9.00">settings</text>
</g>
<g id="clust13" class="cluster">
<title>cluster_src/pages/users</title>
<path fill="#ffffff" stroke="black" stroke-width="2" d="M324.75,-87C324.75,-87 461.25,-87 461.25,-87 467.25,-87 473.25,-93 473.25,-99 473.25,-99 473.25,-130 473.25,-130 473.25,-136 467.25,-142 461.25,-142 461.25,-142 324.75,-142 324.75,-142 318.75,-142 312.75,-136 312.75,-130 312.75,-130 312.75,-99 312.75,-99 312.75,-93 318.75,-87 324.75,-87"/>
<text text-anchor="middle" x="393" y="-129.45" font-family="Helvetica,sans-Serif" font-weight="bold" font-size="9.00">users</text>
</g>
<g id="clust14" class="cluster">
<title>cluster_src/shared</title>
<path fill="#ffffff" stroke="black" stroke-width="2" d="M521.5,-243C521.5,-243 868.25,-243 868.25,-243 874.25,-243 880.25,-249 880.25,-255 880.25,-255 880.25,-699 880.25,-699 880.25,-705 874.25,-711 868.25,-711 868.25,-711 521.5,-711 521.5,-711 515.5,-711 509.5,-705 509.5,-699 509.5,-699 509.5,-255 509.5,-255 509.5,-249 515.5,-243 521.5,-243"/>
<text text-anchor="middle" x="694.88" y="-698.45" font-family="Helvetica,sans-Serif" font-weight="bold" font-size="9.00">shared</text>
</g>
<g id="clust15" class="cluster">
<title>cluster_src/shared/api</title>
<path fill="#ffffff" stroke="black" stroke-width="2" d="M537.5,-629C537.5,-629 860.25,-629 860.25,-629 866.25,-629 872.25,-635 872.25,-641 872.25,-641 872.25,-672 872.25,-672 872.25,-678 866.25,-684 860.25,-684 860.25,-684 537.5,-684 537.5,-684 531.5,-684 525.5,-678 525.5,-672 525.5,-672 525.5,-641 525.5,-641 525.5,-635 531.5,-629 537.5,-629"/>
<text text-anchor="middle" x="698.88" y="-671.45" font-family="Helvetica,sans-Serif" font-weight="bold" font-size="9.00">api</text>
</g>
<g id="clust16" class="cluster">
<title>cluster_src/shared/lib</title>
<path fill="#ffffff" stroke="black" stroke-width="2" d="M529.5,-531C529.5,-531 681.12,-531 681.12,-531 687.12,-531 693.12,-537 693.12,-543 693.12,-543 693.12,-609 693.12,-609 693.12,-615 687.12,-621 681.12,-621 681.12,-621 529.5,-621 529.5,-621 523.5,-621 517.5,-615 517.5,-609 517.5,-609 517.5,-543 517.5,-543 517.5,-537 523.5,-531 529.5,-531"/>
<text text-anchor="middle" x="605.31" y="-608.45" font-family="Helvetica,sans-Serif" font-weight="bold" font-size="9.00">lib</text>
</g>
<g id="clust17" class="cluster">
<title>cluster_src/shared/lib/react&#45;router</title>
<path fill="#ffffff" stroke="black" stroke-width="2" d="M537.5,-539C537.5,-539 673.12,-539 673.12,-539 679.12,-539 685.12,-545 685.12,-551 685.12,-551 685.12,-582 685.12,-582 685.12,-588 679.12,-594 673.12,-594 673.12,-594 537.5,-594 537.5,-594 531.5,-594 525.5,-588 525.5,-582 525.5,-582 525.5,-551 525.5,-551 525.5,-545 531.5,-539 537.5,-539"/>
<text text-anchor="middle" x="605.31" y="-581.45" font-family="Helvetica,sans-Serif" font-weight="bold" font-size="9.00">react&#45;router</text>
</g>
<g id="clust18" class="cluster">
<title>cluster_src/shared/ui</title>
<path fill="#ffffff" stroke="black" stroke-width="2" d="M537.5,-251C537.5,-251 695.75,-251 695.75,-251 701.75,-251 707.75,-257 707.75,-263 707.75,-263 707.75,-511 707.75,-511 707.75,-517 701.75,-523 695.75,-523 695.75,-523 537.5,-523 537.5,-523 531.5,-523 525.5,-517 525.5,-511 525.5,-511 525.5,-263 525.5,-263 525.5,-257 531.5,-251 537.5,-251"/>
<text text-anchor="middle" x="616.62" y="-510.45" font-family="Helvetica,sans-Serif" font-weight="bold" font-size="9.00">ui</text>
</g>
<g id="clust19" class="cluster">
<title>cluster_src/widgets</title>
<path fill="#ffffff" stroke="black" stroke-width="2" d="M398.5,-16C398.5,-16 474.75,-16 474.75,-16 480.75,-16 486.75,-22 486.75,-28 486.75,-28 486.75,-59 486.75,-59 486.75,-65 480.75,-71 474.75,-71 474.75,-71 398.5,-71 398.5,-71 392.5,-71 386.5,-65 386.5,-59 386.5,-59 386.5,-28 386.5,-28 386.5,-22 392.5,-16 398.5,-16"/>
<text text-anchor="middle" x="436.62" y="-58.45" font-family="Helvetica,sans-Serif" font-weight="bold" font-size="9.00">widgets</text>
</g>
<!-- src/app/index.tsx -->
<g id="node1" class="node">
<title>src/app/index.tsx</title>
<g id="a_node1"><a xlink:href="src/app/index.tsx" xlink:title="index.tsx">
<path fill="#bbfeff" stroke="black" d="M74.83,-518.62C74.83,-518.62 30.42,-518.62 30.42,-518.62 27.21,-518.62 24,-515.42 24,-512.21 24,-512.21 24,-505.79 24,-505.79 24,-502.58 27.21,-499.38 30.42,-499.38 30.42,-499.38 74.83,-499.38 74.83,-499.38 78.04,-499.38 81.25,-502.58 81.25,-505.79 81.25,-505.79 81.25,-512.21 81.25,-512.21 81.25,-515.42 78.04,-518.62 74.83,-518.62"/>
<text text-anchor="start" x="32" y="-506.07" font-family="Helvetica,sans-Serif" font-size="9.00">index.tsx</text>
</a>
</g>
</g>
<!-- src/app/providers/index.ts -->
<g id="node2" class="node">
<title>src/app/providers/index.ts</title>
<g id="a_node2"><a xlink:href="src/app/providers/index.ts" xlink:title="index.ts">
<path fill="#ddfeff" stroke="black" d="M144.83,-491.62C144.83,-491.62 103.67,-491.62 103.67,-491.62 100.46,-491.62 97.25,-488.42 97.25,-485.21 97.25,-485.21 97.25,-478.79 97.25,-478.79 97.25,-475.58 100.46,-472.38 103.67,-472.38 103.67,-472.38 144.83,-472.38 144.83,-472.38 148.04,-472.38 151.25,-475.58 151.25,-478.79 151.25,-478.79 151.25,-485.21 151.25,-485.21 151.25,-488.42 148.04,-491.62 144.83,-491.62"/>
<text text-anchor="start" x="106.25" y="-479.07" font-family="Helvetica,sans-Serif" font-size="9.00">index.ts</text>
</a>
</g>
</g>
<!-- src/app/index.tsx&#45;&gt;src/app/providers/index.ts -->
<g id="edge1" class="edge">
<title>src/app/index.tsx&#45;&gt;src/app/providers/index.ts</title>
<path fill="none" stroke="#000000" stroke-width="2" stroke-opacity="0.200000" d="M79.55,-498.95C82.76,-497.7 86.09,-496.41 89.4,-495.13"/>
<polygon fill="#000000" fill-opacity="0.200000" stroke="#000000" stroke-width="2" stroke-opacity="0.200000" points="90.7,-497.1 95.53,-492.97 89.18,-493.18 90.7,-497.1"/>
</g>
<!-- src/shared/api/index.ts -->
<g id="node3" class="node">
<title>src/shared/api/index.ts</title>
<g id="a_node3"><a xlink:href="src/shared/api/index.ts" xlink:title="index.ts">
<path fill="#ddfeff" stroke="black" d="M581.08,-656.62C581.08,-656.62 539.92,-656.62 539.92,-656.62 536.71,-656.62 533.5,-653.42 533.5,-650.21 533.5,-650.21 533.5,-643.79 533.5,-643.79 533.5,-640.58 536.71,-637.38 539.92,-637.38 539.92,-637.38 581.08,-637.38 581.08,-637.38 584.29,-637.38 587.5,-640.58 587.5,-643.79 587.5,-643.79 587.5,-650.21 587.5,-650.21 587.5,-653.42 584.29,-656.62 581.08,-656.62"/>
<text text-anchor="start" x="542.5" y="-644.08" font-family="Helvetica,sans-Serif" font-size="9.00">index.ts</text>
</a>
</g>
</g>
<!-- src/app/index.tsx&#45;&gt;src/shared/api/index.ts -->
<g id="edge2" class="edge">
<title>src/app/index.tsx&#45;&gt;src/shared/api/index.ts</title>
<path fill="none" stroke="#000000" stroke-width="2" stroke-opacity="0.200000" d="M56.96,-519.05C70.53,-557.9 125.52,-696 221.5,-696 221.5,-696 221.5,-696 348.75,-696 417.4,-696 435.62,-692.33 501.5,-673 511.98,-669.92 523.03,-665.34 532.64,-660.87"/>
<polygon fill="#000000" fill-opacity="0.200000" stroke="#000000" stroke-width="2" stroke-opacity="0.200000" points="534.17,-662.51 538.66,-658.02 532.35,-658.72 534.17,-662.51"/>
</g>
<!-- src/shared/api/supabase.ts -->
<g id="node4" class="node">
<title>src/shared/api/supabase.ts</title>
<g id="a_node4"><a xlink:href="src/shared/api/supabase.ts" xlink:title="supabase.ts">
<path fill="#ddfeff" stroke="black" d="M779.33,-656.62C779.33,-656.62 722.17,-656.62 722.17,-656.62 718.96,-656.62 715.75,-653.42 715.75,-650.21 715.75,-650.21 715.75,-643.79 715.75,-643.79 715.75,-640.58 718.96,-637.38 722.17,-637.38 722.17,-637.38 779.33,-637.38 779.33,-637.38 782.54,-637.38 785.75,-640.58 785.75,-643.79 785.75,-643.79 785.75,-650.21 785.75,-650.21 785.75,-653.42 782.54,-656.62 779.33,-656.62"/>
<text text-anchor="start" x="723.75" y="-644.08" font-family="Helvetica,sans-Serif" font-size="9.00">supabase.ts</text>
</a>
</g>
</g>
<!-- src/app/index.tsx&#45;&gt;src/shared/api/supabase.ts -->
<g id="edge3" class="edge">
<title>src/app/index.tsx&#45;&gt;src/shared/api/supabase.ts</title>
<path fill="none" stroke="#000000" stroke-width="2" stroke-opacity="0.200000" d="M54.25,-518.81C56.1,-541.4 63.21,-598.05 89.25,-636 127.36,-691.53 154.15,-710 221.5,-710 221.5,-710 221.5,-710 561.5,-710 622.44,-710 689.01,-679.94 724.36,-661.35"/>
<polygon fill="#000000" fill-opacity="0.200000" stroke="#000000" stroke-width="2" stroke-opacity="0.200000" points="725.94,-662.81 730.24,-658.12 723.96,-659.11 725.94,-662.81"/>
</g>
<!-- src/app/providers/AppRouterProvider.tsx -->
<g id="node5" class="node">
<title>src/app/providers/AppRouterProvider.tsx</title>
<g id="a_node5"><a xlink:href="src/app/providers/AppRouterProvider.tsx" xlink:title="AppRouterProvider.tsx">
<path fill="#bbfeff" stroke="black" d="M274.33,-460.62C274.33,-460.62 170.67,-460.62 170.67,-460.62 167.46,-460.62 164.25,-457.42 164.25,-454.21 164.25,-454.21 164.25,-447.79 164.25,-447.79 164.25,-444.58 167.46,-441.38 170.67,-441.38 170.67,-441.38 274.33,-441.38 274.33,-441.38 277.54,-441.38 280.75,-444.58 280.75,-447.79 280.75,-447.79 280.75,-454.21 280.75,-454.21 280.75,-457.42 277.54,-460.62 274.33,-460.62"/>
<text text-anchor="start" x="172.25" y="-448.07" font-family="Helvetica,sans-Serif" font-size="9.00">AppRouterProvider.tsx</text>
</a>
</g>
</g>
<!-- src/app/providers/index.ts&#45;&gt;src/app/providers/AppRouterProvider.tsx -->
<g id="edge14" class="edge">
<title>src/app/providers/index.ts&#45;&gt;src/app/providers/AppRouterProvider.tsx</title>
<path fill="none" stroke="#000000" stroke-width="2" stroke-opacity="0.200000" d="M148.16,-472.01C153.4,-469.89 158.98,-467.76 164.25,-466 166.75,-465.16 169.33,-464.34 171.94,-463.55"/>
<polygon fill="#000000" fill-opacity="0.200000" stroke="#000000" stroke-width="2" stroke-opacity="0.200000" points="173.17,-464.78 178.34,-461.08 171.99,-460.75 173.17,-464.78"/>
</g>
<!-- src/app/providers/AppStyleProvider.tsx -->
<g id="node16" class="node">
<title>src/app/providers/AppStyleProvider.tsx</title>
<g id="a_node16"><a xlink:href="src/app/providers/AppStyleProvider.tsx" xlink:title="AppStyleProvider.tsx">
<path fill="#bbfeff" stroke="black" d="M270.58,-491.62C270.58,-491.62 174.42,-491.62 174.42,-491.62 171.21,-491.62 168,-488.42 168,-485.21 168,-485.21 168,-478.79 168,-478.79 168,-475.58 171.21,-472.38 174.42,-472.38 174.42,-472.38 270.58,-472.38 270.58,-472.38 273.79,-472.38 277,-475.58 277,-478.79 277,-478.79 277,-485.21 277,-485.21 277,-488.42 273.79,-491.62 270.58,-491.62"/>
<text text-anchor="start" x="176" y="-479.07" font-family="Helvetica,sans-Serif" font-size="9.00">AppStyleProvider.tsx</text>
</a>
</g>
</g>
<!-- src/app/providers/index.ts&#45;&gt;src/app/providers/AppStyleProvider.tsx -->
<g id="edge15" class="edge">
<title>src/app/providers/index.ts&#45;&gt;src/app/providers/AppStyleProvider.tsx</title>
<path fill="none" stroke="#000000" stroke-width="2" stroke-opacity="0.200000" d="M151.55,-482C153.95,-482 156.44,-482 158.99,-482"/>
<polygon fill="#000000" fill-opacity="0.200000" stroke="#000000" stroke-width="2" stroke-opacity="0.200000" points="158.85,-484.1 164.85,-482 158.85,-479.9 158.85,-484.1"/>
</g>
<!-- src/shared/api/apiCabins.ts -->
<g id="node28" class="node">
<title>src/shared/api/apiCabins.ts</title>
<g id="a_node28"><a xlink:href="src/shared/api/apiCabins.ts" xlink:title="apiCabins.ts">
<path fill="#ddfeff" stroke="black" d="M679.08,-656.62C679.08,-656.62 621.17,-656.62 621.17,-656.62 617.96,-656.62 614.75,-653.42 614.75,-650.21 614.75,-650.21 614.75,-643.79 614.75,-643.79 614.75,-640.58 617.96,-637.38 621.17,-637.38 621.17,-637.38 679.08,-637.38 679.08,-637.38 682.29,-637.38 685.5,-640.58 685.5,-643.79 685.5,-643.79 685.5,-650.21 685.5,-650.21 685.5,-653.42 682.29,-656.62 679.08,-656.62"/>
<text text-anchor="start" x="622.75" y="-644.08" font-family="Helvetica,sans-Serif" font-size="9.00">apiCabins.ts</text>
</a>
</g>
</g>
<!-- src/shared/api/index.ts&#45;&gt;src/shared/api/apiCabins.ts -->
<g id="edge35" class="edge">
<title>src/shared/api/index.ts&#45;&gt;src/shared/api/apiCabins.ts</title>
<path fill="none" stroke="#000000" stroke-width="2" stroke-opacity="0.200000" d="M587.79,-647C593.41,-647 599.5,-647 605.57,-647"/>
<polygon fill="#000000" fill-opacity="0.200000" stroke="#000000" stroke-width="2" stroke-opacity="0.200000" points="605.42,-649.1 611.42,-647 605.42,-644.9 605.42,-649.1"/>
</g>
<!-- src/shared/api/apiTypes.ts -->
<g id="node29" class="node">
<title>src/shared/api/apiTypes.ts</title>
<g id="a_node29"><a xlink:href="src/shared/api/apiTypes.ts" xlink:title="apiTypes.ts">
<path fill="#ddfeff" stroke="black" d="M857.83,-656.62C857.83,-656.62 805.17,-656.62 805.17,-656.62 801.96,-656.62 798.75,-653.42 798.75,-650.21 798.75,-650.21 798.75,-643.79 798.75,-643.79 798.75,-640.58 801.96,-637.38 805.17,-637.38 805.17,-637.38 857.83,-637.38 857.83,-637.38 861.04,-637.38 864.25,-640.58 864.25,-643.79 864.25,-643.79 864.25,-650.21 864.25,-650.21 864.25,-653.42 861.04,-656.62 857.83,-656.62"/>
<text text-anchor="start" x="806.75" y="-644.08" font-family="Helvetica,sans-Serif" font-size="9.00">apiTypes.ts</text>
</a>
</g>
</g>
<!-- src/shared/api/supabase.ts&#45;&gt;src/shared/api/apiTypes.ts -->
<g id="edge36" class="edge">
<title>src/shared/api/supabase.ts&#45;&gt;src/shared/api/apiTypes.ts</title>
<path fill="none" stroke="#000000" stroke-width="2" stroke-opacity="0.200000" d="M786.06,-647C787.23,-647 788.4,-647 789.57,-647"/>
<polygon fill="#000000" fill-opacity="0.200000" stroke="#000000" stroke-width="2" stroke-opacity="0.200000" points="789.54,-649.1 795.54,-647 789.54,-644.9 789.54,-649.1"/>
</g>
<!-- src/pages/account/index.ts -->
<g id="node6" class="node">
<title>src/pages/account/index.ts</title>
<g id="a_node6"><a xlink:href="src/pages/account/index.ts" xlink:title="index.ts">
<path fill="#ddfeff" stroke="black" d="M368.33,-618.62C368.33,-618.62 327.17,-618.62 327.17,-618.62 323.96,-618.62 320.75,-615.42 320.75,-612.21 320.75,-612.21 320.75,-605.79 320.75,-605.79 320.75,-602.58 323.96,-599.38 327.17,-599.38 327.17,-599.38 368.33,-599.38 368.33,-599.38 371.54,-599.38 374.75,-602.58 374.75,-605.79 374.75,-605.79 374.75,-612.21 374.75,-612.21 374.75,-615.42 371.54,-618.62 368.33,-618.62"/>
<text text-anchor="start" x="329.75" y="-606.08" font-family="Helvetica,sans-Serif" font-size="9.00">index.ts</text>
</a>
</g>
</g>
<!-- src/app/providers/AppRouterProvider.tsx&#45;&gt;src/pages/account/index.ts -->
<g id="edge4" class="edge">
<title>src/app/providers/AppRouterProvider.tsx&#45;&gt;src/pages/account/index.ts</title>
<path fill="none" stroke="#000000" stroke-width="2" stroke-dasharray="5,2" stroke-opacity="0.200000" d="M281.17,-455.01C287.09,-457.56 292.48,-461.11 296.75,-466 314.33,-486.13 290.37,-563.47 304.75,-586 306.92,-589.4 309.78,-592.34 312.99,-594.87"/>
<polygon fill="#000000" fill-opacity="0.200000" stroke="#000000" stroke-width="2" stroke-opacity="0.200000" points="312.27,-597.23 318.44,-598.78 314.58,-593.72 312.27,-597.23"/>
</g>
<!-- src/pages/bookings/index.ts -->
<g id="node7" class="node">
<title>src/pages/bookings/index.ts</title>
<g id="a_node7"><a xlink:href="src/pages/bookings/index.ts" xlink:title="index.ts">
<path fill="#ddfeff" stroke="black" d="M368.33,-555.62C368.33,-555.62 327.17,-555.62 327.17,-555.62 323.96,-555.62 320.75,-552.42 320.75,-549.21 320.75,-549.21 320.75,-542.79 320.75,-542.79 320.75,-539.58 323.96,-536.38 327.17,-536.38 327.17,-536.38 368.33,-536.38 368.33,-536.38 371.54,-536.38 374.75,-539.58 374.75,-542.79 374.75,-542.79 374.75,-549.21 374.75,-549.21 374.75,-552.42 371.54,-555.62 368.33,-555.62"/>
<text text-anchor="start" x="329.75" y="-543.08" font-family="Helvetica,sans-Serif" font-size="9.00">index.ts</text>
</a>
</g>
</g>
<!-- src/app/providers/AppRouterProvider.tsx&#45;&gt;src/pages/bookings/index.ts -->
<g id="edge5" class="edge">
<title>src/app/providers/AppRouterProvider.tsx&#45;&gt;src/pages/bookings/index.ts</title>
<path fill="none" stroke="#000000" stroke-width="2" stroke-dasharray="5,2" stroke-opacity="0.200000" d="M281.18,-455.47C287.02,-457.95 292.4,-461.36 296.75,-466 314.26,-484.65 290.21,-501.95 304.75,-523 306.99,-526.24 309.84,-529.07 313,-531.53"/>
<polygon fill="#000000" fill-opacity="0.200000" stroke="#000000" stroke-width="2" stroke-opacity="0.200000" points="312.12,-533.79 318.29,-535.34 314.44,-530.28 312.12,-533.79"/>
</g>
<!-- src/pages/cabins/index.ts -->
<g id="node8" class="node">
<title>src/pages/cabins/index.ts</title>
<g id="a_node8"><a xlink:href="src/pages/cabins/index.ts" xlink:title="index.ts">
<path fill="#ddfeff" stroke="black" d="M368.33,-492.62C368.33,-492.62 327.17,-492.62 327.17,-492.62 323.96,-492.62 320.75,-489.42 320.75,-486.21 320.75,-486.21 320.75,-479.79 320.75,-479.79 320.75,-476.58 323.96,-473.38 327.17,-473.38 327.17,-473.38 368.33,-473.38 368.33,-473.38 371.54,-473.38 374.75,-476.58 374.75,-479.79 374.75,-479.79 374.75,-486.21 374.75,-486.21 374.75,-489.42 371.54,-492.62 368.33,-492.62"/>
<text text-anchor="start" x="329.75" y="-480.07" font-family="Helvetica,sans-Serif" font-size="9.00">index.ts</text>
</a>
</g>
</g>
<!-- src/app/providers/AppRouterProvider.tsx&#45;&gt;src/pages/cabins/index.ts -->
<g id="edge6" class="edge">
<title>src/app/providers/AppRouterProvider.tsx&#45;&gt;src/pages/cabins/index.ts</title>
<path fill="none" stroke="#000000" stroke-width="2" stroke-dasharray="5,2" stroke-opacity="0.200000" d="M276.9,-461.12C283.61,-462.63 290.36,-464.27 296.75,-466 301.74,-467.35 306.95,-468.93 312.06,-470.58"/>
<polygon fill="#000000" fill-opacity="0.200000" stroke="#000000" stroke-width="2" stroke-opacity="0.200000" points="312.12,-473.48 318.47,-473.37 313.44,-469.49 312.12,-473.48"/>
</g>
<!-- src/pages/dashboard/index.ts -->
<g id="node9" class="node">
<title>src/pages/dashboard/index.ts</title>
<g id="a_node9"><a xlink:href="src/pages/dashboard/index.ts" xlink:title="index.ts">
<path fill="#ddfeff" stroke="black" d="M368.33,-429.62C368.33,-429.62 327.17,-429.62 327.17,-429.62 323.96,-429.62 320.75,-426.42 320.75,-423.21 320.75,-423.21 320.75,-416.79 320.75,-416.79 320.75,-413.58 323.96,-410.38 327.17,-410.38 327.17,-410.38 368.33,-410.38 368.33,-410.38 371.54,-410.38 374.75,-413.58 374.75,-416.79 374.75,-416.79 374.75,-423.21 374.75,-423.21 374.75,-426.42 371.54,-429.62 368.33,-429.62"/>
<text text-anchor="start" x="329.75" y="-417.07" font-family="Helvetica,sans-Serif" font-size="9.00">index.ts</text>
</a>
</g>
</g>
<!-- src/app/providers/AppRouterProvider.tsx&#45;&gt;src/pages/dashboard/index.ts -->
<g id="edge7" class="edge">
<title>src/app/providers/AppRouterProvider.tsx&#45;&gt;src/pages/dashboard/index.ts</title>
<path fill="none" stroke="#000000" stroke-width="2" stroke-dasharray="5,2" stroke-opacity="0.200000" d="M263.52,-440.94C279.15,-437 296.9,-432.54 311.98,-428.74"/>
<polygon fill="#000000" fill-opacity="0.200000" stroke="#000000" stroke-width="2" stroke-opacity="0.200000" points="313.21,-430.1 318.52,-426.6 312.19,-426.02 313.21,-430.1"/>
</g>
<!-- src/pages/error/index.ts -->
<g id="node10" class="node">
<title>src/pages/error/index.ts</title>
<g id="a_node10"><a xlink:href="src/pages/error/index.ts" xlink:title="index.ts">
<path fill="#ddfeff" stroke="black" d="M368.33,-366.62C368.33,-366.62 327.17,-366.62 327.17,-366.62 323.96,-366.62 320.75,-363.42 320.75,-360.21 320.75,-360.21 320.75,-353.79 320.75,-353.79 320.75,-350.58 323.96,-347.38 327.17,-347.38 327.17,-347.38 368.33,-347.38 368.33,-347.38 371.54,-347.38 374.75,-350.58 374.75,-353.79 374.75,-353.79 374.75,-360.21 374.75,-360.21 374.75,-363.42 371.54,-366.62 368.33,-366.62"/>
<text text-anchor="start" x="329.75" y="-354.07" font-family="Helvetica,sans-Serif" font-size="9.00">index.ts</text>
</a>
</g>
</g>
<!-- src/app/providers/AppRouterProvider.tsx&#45;&gt;src/pages/error/index.ts -->
<g id="edge8" class="edge">
<title>src/app/providers/AppRouterProvider.tsx&#45;&gt;src/pages/error/index.ts</title>
<path fill="none" stroke="#000000" stroke-width="2" stroke-opacity="0.200000" d="M236.69,-440.94C258.28,-424.47 301.3,-391.66 326.69,-372.3"/>
<polygon fill="#000000" fill-opacity="0.200000" stroke="#000000" stroke-width="2" stroke-opacity="0.200000" points="328.16,-373.3 331.65,-367.99 325.61,-369.96 328.16,-373.3"/>
</g>
<!-- src/pages/layouts/index.ts -->
<g id="node11" class="node">
<title>src/pages/layouts/index.ts</title>
<g id="a_node11"><a xlink:href="src/pages/layouts/index.ts" xlink:title="index.ts">
<path fill="#ddfeff" stroke="black" d="M368.33,-303.62C368.33,-303.62 327.17,-303.62 327.17,-303.62 323.96,-303.62 320.75,-300.42 320.75,-297.21 320.75,-297.21 320.75,-290.79 320.75,-290.79 320.75,-287.58 323.96,-284.38 327.17,-284.38 327.17,-284.38 368.33,-284.38 368.33,-284.38 371.54,-284.38 374.75,-287.58 374.75,-290.79 374.75,-290.79 374.75,-297.21 374.75,-297.21 374.75,-300.42 371.54,-303.62 368.33,-303.62"/>
<text text-anchor="start" x="329.75" y="-291.07" font-family="Helvetica,sans-Serif" font-size="9.00">index.ts</text>
</a>
</g>
</g>
<!-- src/app/providers/AppRouterProvider.tsx&#45;&gt;src/pages/layouts/index.ts -->
<g id="edge9" class="edge">
<title>src/app/providers/AppRouterProvider.tsx&#45;&gt;src/pages/layouts/index.ts</title>
<path fill="none" stroke="#000000" stroke-width="2" stroke-opacity="0.200000" d="M229.71,-441.05C242.65,-420.59 273.87,-372.64 304.75,-336 312.43,-326.88 321.74,-317.43 329.64,-309.81"/>
<polygon fill="#000000" fill-opacity="0.200000" stroke="#000000" stroke-width="2" stroke-opacity="0.200000" points="330.98,-311.54 333.88,-305.89 328.09,-308.5 330.98,-311.54"/>
</g>
<!-- src/pages/login/index.ts -->
<g id="node12" class="node">
<title>src/pages/login/index.ts</title>
<g id="a_node12"><a xlink:href="src/pages/login/index.ts" xlink:title="index.ts">
<path fill="#ddfeff" stroke="black" d="M368.33,-240.62C368.33,-240.62 327.17,-240.62 327.17,-240.62 323.96,-240.62 320.75,-237.42 320.75,-234.21 320.75,-234.21 320.75,-227.79 320.75,-227.79 320.75,-224.58 323.96,-221.38 327.17,-221.38 327.17,-221.38 368.33,-221.38 368.33,-221.38 371.54,-221.38 374.75,-224.58 374.75,-227.79 374.75,-227.79 374.75,-234.21 374.75,-234.21 374.75,-237.42 371.54,-240.62 368.33,-240.62"/>
<text text-anchor="start" x="329.75" y="-228.07" font-family="Helvetica,sans-Serif" font-size="9.00">index.ts</text>
</a>
</g>
</g>
<!-- src/app/providers/AppRouterProvider.tsx&#45;&gt;src/pages/login/index.ts -->
<g id="edge10" class="edge">
<title>src/app/providers/AppRouterProvider.tsx&#45;&gt;src/pages/login/index.ts</title>
<path fill="none" stroke="#000000" stroke-width="2" stroke-dasharray="5,2" stroke-opacity="0.200000" d="M226.62,-441.1C235.73,-413.06 264.26,-331.32 304.75,-273 311.37,-263.47 320.28,-254.21 328.19,-246.81"/>
<polygon fill="#000000" fill-opacity="0.200000" stroke="#000000" stroke-width="2" stroke-opacity="0.200000" points="329.49,-248.66 332.53,-243.08 326.67,-245.55 329.49,-248.66"/>
</g>
<!-- src/pages/settings/index.ts -->
<g id="node13" class="node">
<title>src/pages/settings/index.ts</title>
<g id="a_node13"><a xlink:href="src/pages/settings/index.ts" xlink:title="index.ts">
<path fill="#ddfeff" stroke="black" d="M368.33,-177.62C368.33,-177.62 327.17,-177.62 327.17,-177.62 323.96,-177.62 320.75,-174.42 320.75,-171.21 320.75,-171.21 320.75,-164.79 320.75,-164.79 320.75,-161.58 323.96,-158.38 327.17,-158.38 327.17,-158.38 368.33,-158.38 368.33,-158.38 371.54,-158.38 374.75,-161.58 374.75,-164.79 374.75,-164.79 374.75,-171.21 374.75,-171.21 374.75,-174.42 371.54,-177.62 368.33,-177.62"/>
<text text-anchor="start" x="329.75" y="-165.07" font-family="Helvetica,sans-Serif" font-size="9.00">index.ts</text>
</a>
</g>
</g>
<!-- src/app/providers/AppRouterProvider.tsx&#45;&gt;src/pages/settings/index.ts -->
<g id="edge11" class="edge">
<title>src/app/providers/AppRouterProvider.tsx&#45;&gt;src/pages/settings/index.ts</title>
<path fill="none" stroke="#000000" stroke-width="2" stroke-dasharray="5,2" stroke-opacity="0.200000" d="M225.15,-441.12C231.19,-406.9 254.47,-291.04 304.75,-210 310.87,-200.14 319.72,-190.84 327.72,-183.5"/>
<polygon fill="#000000" fill-opacity="0.200000" stroke="#000000" stroke-width="2" stroke-opacity="0.200000" points="329.04,-184.38 332.16,-178.84 326.27,-181.22 329.04,-184.38"/>
</g>
<!-- src/pages/users/index.ts -->
<g id="node14" class="node">
<title>src/pages/users/index.ts</title>
<g id="a_node14"><a xlink:href="src/pages/users/index.ts" xlink:title="index.ts">
<path fill="#ddfeff" stroke="black" d="M368.33,-114.62C368.33,-114.62 327.17,-114.62 327.17,-114.62 323.96,-114.62 320.75,-111.42 320.75,-108.21 320.75,-108.21 320.75,-101.79 320.75,-101.79 320.75,-98.58 323.96,-95.38 327.17,-95.38 327.17,-95.38 368.33,-95.38 368.33,-95.38 371.54,-95.38 374.75,-98.58 374.75,-101.79 374.75,-101.79 374.75,-108.21 374.75,-108.21 374.75,-111.42 371.54,-114.62 368.33,-114.62"/>
<text text-anchor="start" x="329.75" y="-102.08" font-family="Helvetica,sans-Serif" font-size="9.00">index.ts</text>
</a>
</g>
</g>
<!-- src/app/providers/AppRouterProvider.tsx&#45;&gt;src/pages/users/index.ts -->
<g id="edge12" class="edge">
<title>src/app/providers/AppRouterProvider.tsx&#45;&gt;src/pages/users/index.ts</title>
<path fill="none" stroke="#000000" stroke-width="2" stroke-dasharray="5,2" stroke-opacity="0.200000" d="M224.28,-441.1C227.78,-401.47 244.55,-251.34 304.75,-147 310.47,-137.09 319.12,-127.88 327.08,-120.63"/>
<polygon fill="#000000" fill-opacity="0.200000" stroke="#000000" stroke-width="2" stroke-opacity="0.200000" points="328.38,-121.54 331.53,-116.02 325.63,-118.37 328.38,-121.54"/>
</g>
<!-- src/shared/lib/react&#45;router/index.ts -->
<g id="node15" class="node">
<title>src/shared/lib/react&#45;router/index.ts</title>
<g id="a_node15"><a xlink:href="src/shared/lib/react-router/index.ts" xlink:title="index.ts">
<path fill="#ddfeff" stroke="black" d="M581.08,-566.62C581.08,-566.62 539.92,-566.62 539.92,-566.62 536.71,-566.62 533.5,-563.42 533.5,-560.21 533.5,-560.21 533.5,-553.79 533.5,-553.79 533.5,-550.58 536.71,-547.38 539.92,-547.38 539.92,-547.38 581.08,-547.38 581.08,-547.38 584.29,-547.38 587.5,-550.58 587.5,-553.79 587.5,-553.79 587.5,-560.21 587.5,-560.21 587.5,-563.42 584.29,-566.62 581.08,-566.62"/>
<text text-anchor="start" x="542.5" y="-554.08" font-family="Helvetica,sans-Serif" font-size="9.00">index.ts</text>
</a>
</g>
</g>
<!-- src/app/providers/AppRouterProvider.tsx&#45;&gt;src/shared/lib/react&#45;router/index.ts -->
<g id="edge13" class="edge">
<title>src/app/providers/AppRouterProvider.tsx&#45;&gt;src/shared/lib/react&#45;router/index.ts</title>
<path fill="none" stroke="#000000" stroke-width="2" stroke-opacity="0.200000" d="M280.92,-454.76C286.96,-457.34 292.45,-460.96 296.75,-466 309.96,-481.48 290.05,-634.93 304.75,-649 367.92,-709.47 430.23,-699.67 501.5,-649 510.32,-642.73 504.49,-635.6 509.5,-626 519.55,-606.74 534.51,-586.88 545.45,-573.44"/>
<polygon fill="#000000" fill-opacity="0.200000" stroke="#000000" stroke-width="2" stroke-opacity="0.200000" points="547.85,-574.64 550.06,-568.68 544.62,-571.96 547.85,-574.64"/>
</g>
<!-- src/pages/account/Account.tsx -->
<g id="node17" class="node">
<title>src/pages/account/Account.tsx</title>
<g id="a_node17"><a xlink:href="src/pages/account/Account.tsx" xlink:title="Account.tsx">
<path fill="#bbfeff" stroke="black" d="M465.21,-618.62C465.21,-618.62 408.04,-618.62 408.04,-618.62 404.83,-618.62 401.62,-615.42 401.62,-612.21 401.62,-612.21 401.62,-605.79 401.62,-605.79 401.62,-602.58 404.83,-599.38 408.04,-599.38 408.04,-599.38 465.21,-599.38 465.21,-599.38 468.42,-599.38 471.62,-602.58 471.62,-605.79 471.62,-605.79 471.62,-612.21 471.62,-612.21 471.62,-615.42 468.42,-618.62 465.21,-618.62"/>
<text text-anchor="start" x="409.62" y="-606.08" font-family="Helvetica,sans-Serif" font-size="9.00">Account.tsx</text>
</a>
</g>
</g>
<!-- src/pages/account/index.ts&#45;&gt;src/pages/account/Account.tsx -->
<g id="edge17" class="edge">
<title>src/pages/account/index.ts&#45;&gt;src/pages/account/Account.tsx</title>
<path fill="none" stroke="#000000" stroke-width="2" stroke-opacity="0.200000" d="M374.82,-609C380.39,-609 386.42,-609 392.45,-609"/>
<polygon fill="#000000" fill-opacity="0.200000" stroke="#000000" stroke-width="2" stroke-opacity="0.200000" points="392.21,-611.1 398.21,-609 392.21,-606.9 392.21,-611.1"/>
</g>
<!-- src/pages/bookings/Bookings.tsx -->
<g id="node19" class="node">
<title>src/pages/bookings/Bookings.tsx</title>
<g id="a_node19"><a xlink:href="src/pages/bookings/Bookings.tsx" xlink:title="Bookings.tsx">
<path fill="#bbfeff" stroke="black" d="M466.71,-555.62C466.71,-555.62 406.54,-555.62 406.54,-555.62 403.33,-555.62 400.12,-552.42 400.12,-549.21 400.12,-549.21 400.12,-542.79 400.12,-542.79 400.12,-539.58 403.33,-536.38 406.54,-536.38 406.54,-536.38 466.71,-536.38 466.71,-536.38 469.92,-536.38 473.12,-539.58 473.12,-542.79 473.12,-542.79 473.12,-549.21 473.12,-549.21 473.12,-552.42 469.92,-555.62 466.71,-555.62"/>
<text text-anchor="start" x="408.12" y="-543.08" font-family="Helvetica,sans-Serif" font-size="9.00">Bookings.tsx</text>
</a>
</g>
</g>
<!-- src/pages/bookings/index.ts&#45;&gt;src/pages/bookings/Bookings.tsx -->
<g id="edge19" class="edge">
<title>src/pages/bookings/index.ts&#45;&gt;src/pages/bookings/Bookings.tsx</title>
<path fill="none" stroke="#000000" stroke-width="2" stroke-opacity="0.200000" d="M374.82,-546C380,-546 385.57,-546 391.17,-546"/>
<polygon fill="#000000" fill-opacity="0.200000" stroke="#000000" stroke-width="2" stroke-opacity="0.200000" points="390.94,-548.1 396.94,-546 390.94,-543.9 390.94,-548.1"/>
</g>
<!-- src/pages/cabins/Cabins.tsx -->
<g id="node20" class="node">
<title>src/pages/cabins/Cabins.tsx</title>
<g id="a_node20"><a xlink:href="src/pages/cabins/Cabins.tsx" xlink:title="Cabins.tsx">
<path fill="#bbfeff" stroke="black" d="M461.46,-492.62C461.46,-492.62 411.79,-492.62 411.79,-492.62 408.58,-492.62 405.38,-489.42 405.38,-486.21 405.38,-486.21 405.38,-479.79 405.38,-479.79 405.38,-476.58 408.58,-473.38 411.79,-473.38 411.79,-473.38 461.46,-473.38 461.46,-473.38 464.67,-473.38 467.88,-476.58 467.88,-479.79 467.88,-479.79 467.88,-486.21 467.88,-486.21 467.88,-489.42 464.67,-492.62 461.46,-492.62"/>
<text text-anchor="start" x="413.38" y="-480.07" font-family="Helvetica,sans-Serif" font-size="9.00">Cabins.tsx</text>
</a>
</g>
</g>
<!-- src/pages/cabins/index.ts&#45;&gt;src/pages/cabins/Cabins.tsx -->
<g id="edge21" class="edge">
<title>src/pages/cabins/index.ts&#45;&gt;src/pages/cabins/Cabins.tsx</title>
<path fill="none" stroke="#000000" stroke-width="2" stroke-opacity="0.200000" d="M374.82,-483C381.49,-483 388.82,-483 396.02,-483"/>
<polygon fill="#000000" fill-opacity="0.200000" stroke="#000000" stroke-width="2" stroke-opacity="0.200000" points="395.99,-485.1 401.99,-483 395.99,-480.9 395.99,-485.1"/>
</g>
<!-- src/pages/dashboard/Dashboard.tsx -->
<g id="node21" class="node">
<title>src/pages/dashboard/Dashboard.tsx</title>
<g id="a_node21"><a xlink:href="src/pages/dashboard/Dashboard.tsx" xlink:title="Dashboard.tsx">
<path fill="#bbfeff" stroke="black" d="M470.83,-429.62C470.83,-429.62 402.42,-429.62 402.42,-429.62 399.21,-429.62 396,-426.42 396,-423.21 396,-423.21 396,-416.79 396,-416.79 396,-413.58 399.21,-410.38 402.42,-410.38 402.42,-410.38 470.83,-410.38 470.83,-410.38 474.04,-410.38 477.25,-413.58 477.25,-416.79 477.25,-416.79 477.25,-423.21 477.25,-423.21 477.25,-426.42 474.04,-429.62 470.83,-429.62"/>
<text text-anchor="start" x="404" y="-417.07" font-family="Helvetica,sans-Serif" font-size="9.00">Dashboard.tsx</text>
</a>
</g>
</g>
<!-- src/pages/dashboard/index.ts&#45;&gt;src/pages/dashboard/Dashboard.tsx -->
<g id="edge23" class="edge">
<title>src/pages/dashboard/index.ts&#45;&gt;src/pages/dashboard/Dashboard.tsx</title>
<path fill="none" stroke="#000000" stroke-width="2" stroke-opacity="0.200000" d="M374.82,-420C378.73,-420 382.88,-420 387.08,-420"/>
<polygon fill="#000000" fill-opacity="0.200000" stroke="#000000" stroke-width="2" stroke-opacity="0.200000" points="386.76,-422.1 392.76,-420 386.76,-417.9 386.76,-422.1"/>
</g>
<!-- src/pages/error/Error.tsx -->
<g id="node22" class="node">
<title>src/pages/error/Error.tsx</title>
<g id="a_node22"><a xlink:href="src/pages/error/Error.tsx" xlink:title="Error.tsx">
<path fill="#bbfeff" stroke="black" d="M457.33,-366.62C457.33,-366.62 415.92,-366.62 415.92,-366.62 412.71,-366.62 409.5,-363.42 409.5,-360.21 409.5,-360.21 409.5,-353.79 409.5,-353.79 409.5,-350.58 412.71,-347.38 415.92,-347.38 415.92,-347.38 457.33,-347.38 457.33,-347.38 460.54,-347.38 463.75,-350.58 463.75,-353.79 463.75,-353.79 463.75,-360.21 463.75,-360.21 463.75,-363.42 460.54,-366.62 457.33,-366.62"/>
<text text-anchor="start" x="417.5" y="-354.07" font-family="Helvetica,sans-Serif" font-size="9.00">Error.tsx</text>
</a>
</g>
</g>
<!-- src/pages/error/index.ts&#45;&gt;src/pages/error/Error.tsx -->
<g id="edge25" class="edge">
<title>src/pages/error/index.ts&#45;&gt;src/pages/error/Error.tsx</title>
<path fill="none" stroke="#000000" stroke-width="2" stroke-opacity="0.200000" d="M374.82,-357C382.9,-357 391.95,-357 400.54,-357"/>
<polygon fill="#000000" fill-opacity="0.200000" stroke="#000000" stroke-width="2" stroke-opacity="0.200000" points="400.28,-359.1 406.28,-357 400.28,-354.9 400.28,-359.1"/>
</g>
<!-- src/pages/layouts/PrimaryLayout.tsx -->
<g id="node23" class="node">
<title>src/pages/layouts/PrimaryLayout.tsx</title>
<g id="a_node23"><a xlink:href="src/pages/layouts/PrimaryLayout.tsx" xlink:title="PrimaryLayout.tsx">
<path fill="#bbfeff" stroke="black" d="M479.08,-303.62C479.08,-303.62 394.17,-303.62 394.17,-303.62 390.96,-303.62 387.75,-300.42 387.75,-297.21 387.75,-297.21 387.75,-290.79 387.75,-290.79 387.75,-287.58 390.96,-284.38 394.17,-284.38 394.17,-284.38 479.08,-284.38 479.08,-284.38 482.29,-284.38 485.5,-287.58 485.5,-290.79 485.5,-290.79 485.5,-297.21 485.5,-297.21 485.5,-300.42 482.29,-303.62 479.08,-303.62"/>
<text text-anchor="start" x="395.75" y="-291.07" font-family="Helvetica,sans-Serif" font-size="9.00">PrimaryLayout.tsx</text>
</a>
</g>
</g>
<!-- src/pages/layouts/index.ts&#45;&gt;src/pages/layouts/PrimaryLayout.tsx -->
<g id="edge28" class="edge">
<title>src/pages/layouts/index.ts&#45;&gt;src/pages/layouts/PrimaryLayout.tsx</title>
<path fill="none" stroke="#000000" stroke-width="2" stroke-opacity="0.200000" d="M374.82,-294C376.06,-294 377.34,-294 378.63,-294"/>
<polygon fill="#000000" fill-opacity="0.200000" stroke="#000000" stroke-width="2" stroke-opacity="0.200000" points="378.34,-296.1 384.34,-294 378.34,-291.9 378.34,-296.1"/>
</g>
<!-- src/pages/login/Login.tsx -->
<g id="node25" class="node">
<title>src/pages/login/Login.tsx</title>
<g id="a_node25"><a xlink:href="src/pages/login/Login.tsx" xlink:title="Login.tsx">
<path fill="#bbfeff" stroke="black" d="M458.46,-240.62C458.46,-240.62 414.79,-240.62 414.79,-240.62 411.58,-240.62 408.38,-237.42 408.38,-234.21 408.38,-234.21 408.38,-227.79 408.38,-227.79 408.38,-224.58 411.58,-221.38 414.79,-221.38 414.79,-221.38 458.46,-221.38 458.46,-221.38 461.67,-221.38 464.88,-224.58 464.88,-227.79 464.88,-227.79 464.88,-234.21 464.88,-234.21 464.88,-237.42 461.67,-240.62 458.46,-240.62"/>
<text text-anchor="start" x="416.38" y="-228.07" font-family="Helvetica,sans-Serif" font-size="9.00">Login.tsx</text>
</a>
</g>
</g>
<!-- src/pages/login/index.ts&#45;&gt;src/pages/login/Login.tsx -->
<g id="edge29" class="edge">
<title>src/pages/login/index.ts&#45;&gt;src/pages/login/Login.tsx</title>
<path fill="none" stroke="#000000" stroke-width="2" stroke-opacity="0.200000" d="M374.82,-231C382.44,-231 390.92,-231 399.07,-231"/>
<polygon fill="#000000" fill-opacity="0.200000" stroke="#000000" stroke-width="2" stroke-opacity="0.200000" points="399.07,-233.1 405.07,-231 399.07,-228.9 399.07,-233.1"/>
</g>
<!-- src/pages/settings/Settings.tsx -->
<g id="node26" class="node">
<title>src/pages/settings/Settings.tsx</title>
<g id="a_node26"><a xlink:href="src/pages/settings/Settings.tsx" xlink:title="Settings.tsx">
<path fill="#bbfeff" stroke="black" d="M465.21,-177.62C465.21,-177.62 408.04,-177.62 408.04,-177.62 404.83,-177.62 401.62,-174.42 401.62,-171.21 401.62,-171.21 401.62,-164.79 401.62,-164.79 401.62,-161.58 404.83,-158.38 408.04,-158.38 408.04,-158.38 465.21,-158.38 465.21,-158.38 468.42,-158.38 471.62,-161.58 471.62,-164.79 471.62,-164.79 471.62,-171.21 471.62,-171.21 471.62,-174.42 468.42,-177.62 465.21,-177.62"/>
<text text-anchor="start" x="409.62" y="-165.07" font-family="Helvetica,sans-Serif" font-size="9.00">Settings.tsx</text>
</a>
</g>
</g>
<!-- src/pages/settings/index.ts&#45;&gt;src/pages/settings/Settings.tsx -->
<g id="edge31" class="edge">
<title>src/pages/settings/index.ts&#45;&gt;src/pages/settings/Settings.tsx</title>
<path fill="none" stroke="#000000" stroke-width="2" stroke-opacity="0.200000" d="M374.82,-168C380.39,-168 386.42,-168 392.45,-168"/>
<polygon fill="#000000" fill-opacity="0.200000" stroke="#000000" stroke-width="2" stroke-opacity="0.200000" points="392.21,-170.1 398.21,-168 392.21,-165.9 392.21,-170.1"/>
</g>
<!-- src/pages/users/Users.tsx -->
<g id="node27" class="node">
<title>src/pages/users/Users.tsx</title>
<g id="a_node27"><a xlink:href="src/pages/users/Users.tsx" xlink:title="Users.tsx">
<path fill="#bbfeff" stroke="black" d="M458.83,-114.62C458.83,-114.62 414.42,-114.62 414.42,-114.62 411.21,-114.62 408,-111.42 408,-108.21 408,-108.21 408,-101.79 408,-101.79 408,-98.58 411.21,-95.38 414.42,-95.38 414.42,-95.38 458.83,-95.38 458.83,-95.38 462.04,-95.38 465.25,-98.58 465.25,-101.79 465.25,-101.79 465.25,-108.21 465.25,-108.21 465.25,-111.42 462.04,-114.62 458.83,-114.62"/>
<text text-anchor="start" x="416" y="-102.08" font-family="Helvetica,sans-Serif" font-size="9.00">Users.tsx</text>
</a>
</g>
</g>
<!-- src/pages/users/index.ts&#45;&gt;src/pages/users/Users.tsx -->
<g id="edge33" class="edge">
<title>src/pages/users/index.ts&#45;&gt;src/pages/users/Users.tsx</title>
<path fill="none" stroke="#000000" stroke-width="2" stroke-opacity="0.200000" d="M374.82,-105C382.37,-105 390.76,-105 398.84,-105"/>
<polygon fill="#000000" fill-opacity="0.200000" stroke="#000000" stroke-width="2" stroke-opacity="0.200000" points="398.76,-107.1 404.76,-105 398.76,-102.9 398.76,-107.1"/>
</g>
<!-- src/shared/lib/react&#45;router/paths.ts -->
<g id="node30" class="node">
<title>src/shared/lib/react&#45;router/paths.ts</title>
<g id="a_node30"><a xlink:href="src/shared/lib/react-router/paths.ts" xlink:title="paths.ts">
<path fill="#ddfeff" stroke="black" d="M670.71,-566.62C670.71,-566.62 629.54,-566.62 629.54,-566.62 626.33,-566.62 623.12,-563.42 623.12,-560.21 623.12,-560.21 623.12,-553.79 623.12,-553.79 623.12,-550.58 626.33,-547.38 629.54,-547.38 629.54,-547.38 670.71,-547.38 670.71,-547.38 673.92,-547.38 677.12,-550.58 677.12,-553.79 677.12,-553.79 677.12,-560.21 677.12,-560.21 677.12,-563.42 673.92,-566.62 670.71,-566.62"/>
<text text-anchor="start" x="631.75" y="-554.08" font-family="Helvetica,sans-Serif" font-size="9.00">paths.ts</text>
</a>
</g>
</g>
<!-- src/shared/lib/react&#45;router/index.ts&#45;&gt;src/shared/lib/react&#45;router/paths.ts -->
<g id="edge37" class="edge">
<title>src/shared/lib/react&#45;router/index.ts&#45;&gt;src/shared/lib/react&#45;router/paths.ts</title>
<path fill="none" stroke="#000000" stroke-width="2" stroke-opacity="0.200000" d="M587.79,-557C596.02,-557 605.24,-557 613.98,-557"/>
<polygon fill="#000000" fill-opacity="0.200000" stroke="#000000" stroke-width="2" stroke-opacity="0.200000" points="613.85,-559.1 619.85,-557 613.85,-554.9 613.85,-559.1"/>
</g>
<!-- src/shared/ui/index.ts -->
<g id="node18" class="node">
<title>src/shared/ui/index.ts</title>
<g id="a_node18"><a xlink:href="src/shared/ui/index.ts" xlink:title="index.ts">
<path fill="#ddfeff" stroke="black" d="M581.08,-371.62C581.08,-371.62 539.92,-371.62 539.92,-371.62 536.71,-371.62 533.5,-368.42 533.5,-365.21 533.5,-365.21 533.5,-358.79 533.5,-358.79 533.5,-355.58 536.71,-352.38 539.92,-352.38 539.92,-352.38 581.08,-352.38 581.08,-352.38 584.29,-352.38 587.5,-355.58 587.5,-358.79 587.5,-358.79 587.5,-365.21 587.5,-365.21 587.5,-368.42 584.29,-371.62 581.08,-371.62"/>
<text text-anchor="start" x="542.5" y="-359.07" font-family="Helvetica,sans-Serif" font-size="9.00">index.ts</text>
</a>
</g>
</g>
<!-- src/pages/account/Account.tsx&#45;&gt;src/shared/ui/index.ts -->
<g id="edge16" class="edge">
<title>src/pages/account/Account.tsx&#45;&gt;src/shared/ui/index.ts</title>
<path fill="none" stroke="#000000" stroke-width="2" stroke-opacity="0.200000" d="M471.83,-603.8C482.82,-600.46 494.06,-594.99 501.5,-586 515.86,-568.67 504.61,-557.97 509.5,-536 522.32,-478.48 543.18,-411.88 553.43,-380.36"/>
<polygon fill="#000000" fill-opacity="0.200000" stroke="#000000" stroke-width="2" stroke-opacity="0.200000" points="556.26,-380.44 556.13,-374.09 552.27,-379.14 556.26,-380.44"/>
</g>
<!-- src/shared/ui/Header.tsx -->
<g id="node31" class="node">
<title>src/shared/ui/Header.tsx</title>
<g id="a_node31"><a xlink:href="src/shared/ui/Header.tsx" xlink:title="Header.tsx">
<path fill="#bbfeff" stroke="black" d="M675.71,-340.62C675.71,-340.62 624.54,-340.62 624.54,-340.62 621.33,-340.62 618.12,-337.42 618.12,-334.21 618.12,-334.21 618.12,-327.79 618.12,-327.79 618.12,-324.58 621.33,-321.38 624.54,-321.38 624.54,-321.38 675.71,-321.38 675.71,-321.38 678.92,-321.38 682.12,-324.58 682.12,-327.79 682.12,-327.79 682.12,-334.21 682.12,-334.21 682.12,-337.42 678.92,-340.62 675.71,-340.62"/>
<text text-anchor="start" x="626.12" y="-328.07" font-family="Helvetica,sans-Serif" font-size="9.00">Header.tsx</text>
</a>
</g>
</g>
<!-- src/shared/ui/index.ts&#45;&gt;src/shared/ui/Header.tsx -->
<g id="edge38" class="edge">
<title>src/shared/ui/index.ts&#45;&gt;src/shared/ui/Header.tsx</title>
<path fill="none" stroke="#000000" stroke-width="2" stroke-opacity="0.200000" d="M584.88,-352.01C589.99,-349.94 595.4,-347.83 600.5,-346 603.37,-344.97 606.36,-343.94 609.37,-342.94"/>
<polygon fill="#000000" fill-opacity="0.200000" stroke="#000000" stroke-width="2" stroke-opacity="0.200000" points="610.8,-344.04 615.86,-340.19 609.5,-340.04 610.8,-344.04"/>
</g>
<!-- src/shared/ui/Heading.tsx -->
<g id="node32" class="node">
<title>src/shared/ui/Heading.tsx</title>
<g id="a_node32"><a xlink:href="src/shared/ui/Heading.tsx" xlink:title="Heading.tsx">
<path fill="#bbfeff" stroke="black" d="M678.71,-371.62C678.71,-371.62 621.54,-371.62 621.54,-371.62 618.33,-371.62 615.12,-368.42 615.12,-365.21 615.12,-365.21 615.12,-358.79 615.12,-358.79 615.12,-355.58 618.33,-352.38 621.54,-352.38 621.54,-352.38 678.71,-352.38 678.71,-352.38 681.92,-352.38 685.12,-355.58 685.12,-358.79 685.12,-358.79 685.12,-365.21 685.12,-365.21 685.12,-368.42 681.92,-371.62 678.71,-371.62"/>
<text text-anchor="start" x="623.12" y="-359.07" font-family="Helvetica,sans-Serif" font-size="9.00">Heading.tsx</text>
</a>
</g>
</g>
<!-- src/shared/ui/index.ts&#45;&gt;src/shared/ui/Heading.tsx -->
<g id="edge39" class="edge">
<title>src/shared/ui/index.ts&#45;&gt;src/shared/ui/Heading.tsx</title>
<path fill="none" stroke="#000000" stroke-width="2" stroke-opacity="0.200000" d="M587.79,-362C593.48,-362 599.64,-362 605.79,-362"/>
<polygon fill="#000000" fill-opacity="0.200000" stroke="#000000" stroke-width="2" stroke-opacity="0.200000" points="605.74,-364.1 611.74,-362 605.74,-359.9 605.74,-364.1"/>
</g>
<!-- src/shared/ui/Logo.tsx -->
<g id="node33" class="node">
<title>src/shared/ui/Logo.tsx</title>
<g id="a_node33"><a xlink:href="src/shared/ui/Logo.tsx" xlink:title="Logo.tsx">
<path fill="#bbfeff" stroke="black" d="M670.71,-402.62C670.71,-402.62 629.54,-402.62 629.54,-402.62 626.33,-402.62 623.12,-399.42 623.12,-396.21 623.12,-396.21 623.12,-389.79 623.12,-389.79 623.12,-386.58 626.33,-383.38 629.54,-383.38 629.54,-383.38 670.71,-383.38 670.71,-383.38 673.92,-383.38 677.12,-386.58 677.12,-389.79 677.12,-389.79 677.12,-396.21 677.12,-396.21 677.12,-399.42 673.92,-402.62 670.71,-402.62"/>
<text text-anchor="start" x="631.38" y="-390.07" font-family="Helvetica,sans-Serif" font-size="9.00">Logo.tsx</text>
</a>
</g>
</g>
<!-- src/shared/ui/index.ts&#45;&gt;src/shared/ui/Logo.tsx -->
<g id="edge40" class="edge">
<title>src/shared/ui/index.ts&#45;&gt;src/shared/ui/Logo.tsx</title>
<path fill="none" stroke="#000000" stroke-width="2" stroke-opacity="0.200000" d="M584.88,-371.99C589.99,-374.06 595.4,-376.17 600.5,-378 604.97,-379.6 609.71,-381.19 614.4,-382.71"/>
<polygon fill="#000000" fill-opacity="0.200000" stroke="#000000" stroke-width="2" stroke-opacity="0.200000" points="614.38,-385.53 620.74,-385.33 615.65,-381.53 614.38,-385.53"/>
</g>
<!-- src/shared/ui/MainNav.tsx -->
<g id="node34" class="node">
<title>src/shared/ui/MainNav.tsx</title>
<g id="a_node34"><a xlink:href="src/shared/ui/MainNav.tsx" xlink:title="MainNav.tsx">
<path fill="#bbfeff" stroke="black" d="M678.71,-433.62C678.71,-433.62 621.54,-433.62 621.54,-433.62 618.33,-433.62 615.12,-430.42 615.12,-427.21 615.12,-427.21 615.12,-420.79 615.12,-420.79 615.12,-417.58 618.33,-414.38 621.54,-414.38 621.54,-414.38 678.71,-414.38 678.71,-414.38 681.92,-414.38 685.12,-417.58 685.12,-420.79 685.12,-420.79 685.12,-427.21 685.12,-427.21 685.12,-430.42 681.92,-433.62 678.71,-433.62"/>
<text text-anchor="start" x="623.12" y="-421.07" font-family="Helvetica,sans-Serif" font-size="9.00">MainNav.tsx</text>
</a>
</g>
</g>
<!-- src/shared/ui/index.ts&#45;&gt;src/shared/ui/MainNav.tsx -->
<g id="edge41" class="edge">
<title>src/shared/ui/index.ts&#45;&gt;src/shared/ui/MainNav.tsx</title>
<path fill="none" stroke="#000000" stroke-width="2" stroke-opacity="0.200000" d="M567.39,-372.11C574.1,-382.77 586.04,-399.34 600.5,-409 602.53,-410.36 604.69,-411.6 606.93,-412.73"/>
<polygon fill="#000000" fill-opacity="0.200000" stroke="#000000" stroke-width="2" stroke-opacity="0.200000" points="606.42,-414.67 612.76,-415.16 608.11,-410.83 606.42,-414.67"/>
</g>
<!-- src/shared/ui/NavigationLink.tsx -->
<g id="node35" class="node">
<title>src/shared/ui/NavigationLink.tsx</title>
<g id="a_node35"><a xlink:href="src/shared/ui/NavigationLink.tsx" xlink:title="NavigationLink.tsx">
<path fill="#bbfeff" stroke="black" d="M693.33,-464.62C693.33,-464.62 606.92,-464.62 606.92,-464.62 603.71,-464.62 600.5,-461.42 600.5,-458.21 600.5,-458.21 600.5,-451.79 600.5,-451.79 600.5,-448.58 603.71,-445.38 606.92,-445.38 606.92,-445.38 693.33,-445.38 693.33,-445.38 696.54,-445.38 699.75,-448.58 699.75,-451.79 699.75,-451.79 699.75,-458.21 699.75,-458.21 699.75,-461.42 696.54,-464.62 693.33,-464.62"/>
<text text-anchor="start" x="608.5" y="-452.07" font-family="Helvetica,sans-Serif" font-size="9.00">NavigationLink.tsx</text>
</a>
</g>
</g>
<!-- src/shared/ui/index.ts&#45;&gt;src/shared/ui/NavigationLink.tsx -->
<g id="edge42" class="edge">
<title>src/shared/ui/index.ts&#45;&gt;src/shared/ui/NavigationLink.tsx</title>
<path fill="none" stroke="#000000" stroke-width="2" stroke-opacity="0.200000" d="M563.77,-371.95C568.05,-388.51 578.9,-421.69 600.5,-440 600.64,-440.12 600.79,-440.24 600.93,-440.36"/>
<polygon fill="#000000" fill-opacity="0.200000" stroke="#000000" stroke-width="2" stroke-opacity="0.200000" points="599.86,-442.51 606.01,-444.11 602.2,-439.02 599.86,-442.51"/>
</g>
<!-- src/shared/ui/Row.tsx -->
<g id="node36" class="node">
<title>src/shared/ui/Row.tsx</title>
<g id="a_node36"><a xlink:href="src/shared/ui/Row.tsx" xlink:title="Row.tsx">
<path fill="#bbfeff" stroke="black" d="M670.71,-495.62C670.71,-495.62 629.54,-495.62 629.54,-495.62 626.33,-495.62 623.12,-492.42 623.12,-489.21 623.12,-489.21 623.12,-482.79 623.12,-482.79 623.12,-479.58 626.33,-476.38 629.54,-476.38 629.54,-476.38 670.71,-476.38 670.71,-476.38 673.92,-476.38 677.12,-479.58 677.12,-482.79 677.12,-482.79 677.12,-489.21 677.12,-489.21 677.12,-492.42 673.92,-495.62 670.71,-495.62"/>
<text text-anchor="start" x="632.88" y="-483.07" font-family="Helvetica,sans-Serif" font-size="9.00">Row.tsx</text>
</a>
</g>
</g>
<!-- src/shared/ui/index.ts&#45;&gt;src/shared/ui/Row.tsx -->
<g id="edge43" class="edge">
<title>src/shared/ui/index.ts&#45;&gt;src/shared/ui/Row.tsx</title>
<path fill="none" stroke="#000000" stroke-width="2" stroke-opacity="0.200000" d="M562.17,-372.01C564.14,-393.33 571.74,-443.49 600.5,-471 604.48,-474.81 609.41,-477.65 614.58,-479.77"/>
<polygon fill="#000000" fill-opacity="0.200000" stroke="#000000" stroke-width="2" stroke-opacity="0.200000" points="614.46,-482.62 620.81,-482.55 615.8,-478.64 614.46,-482.62"/>
</g>
<!-- src/shared/ui/Sidebar.tsx -->
<g id="node37" class="node">
<title>src/shared/ui/Sidebar.tsx</title>
<g id="a_node37"><a xlink:href="src/shared/ui/Sidebar.tsx" xlink:title="Sidebar.tsx">
<path fill="#bbfeff" stroke="black" d="M676.83,-278.62C676.83,-278.62 623.42,-278.62 623.42,-278.62 620.21,-278.62 617,-275.42 617,-272.21 617,-272.21 617,-265.79 617,-265.79 617,-262.58 620.21,-259.38 623.42,-259.38 623.42,-259.38 676.83,-259.38 676.83,-259.38 680.04,-259.38 683.25,-262.58 683.25,-265.79 683.25,-265.79 683.25,-272.21 683.25,-272.21 683.25,-275.42 680.04,-278.62 676.83,-278.62"/>
<text text-anchor="start" x="625" y="-266.07" font-family="Helvetica,sans-Serif" font-size="9.00">Sidebar.tsx</text>
</a>
</g>
</g>
<!-- src/shared/ui/index.ts&#45;&gt;src/shared/ui/Sidebar.tsx -->
<g id="edge44" class="edge">
<title>src/shared/ui/index.ts&#45;&gt;src/shared/ui/Sidebar.tsx</title>
<path fill="none" stroke="#000000" stroke-width="2" stroke-opacity="0.200000" d="M563.77,-352.05C568.05,-335.49 578.9,-302.31 600.5,-284 602.97,-281.91 605.73,-280.1 608.65,-278.55"/>
<polygon fill="#000000" fill-opacity="0.200000" stroke="#000000" stroke-width="2" stroke-opacity="0.200000" points="610,-280.36 614.64,-276.01 608.3,-276.52 610,-280.36"/>
</g>
<!-- src/shared/ui/Spinner.tsx -->
<g id="node38" class="node">
<title>src/shared/ui/Spinner.tsx</title>
<g id="a_node38"><a xlink:href="src/shared/ui/Spinner.tsx" xlink:title="Spinner.tsx">
<path fill="#bbfeff" stroke="black" d="M677.21,-309.62C677.21,-309.62 623.04,-309.62 623.04,-309.62 619.83,-309.62 616.62,-306.42 616.62,-303.21 616.62,-303.21 616.62,-296.79 616.62,-296.79 616.62,-293.58 619.83,-290.38 623.04,-290.38 623.04,-290.38 677.21,-290.38 677.21,-290.38 680.42,-290.38 683.62,-293.58 683.62,-296.79 683.62,-296.79 683.62,-303.21 683.62,-303.21 683.62,-306.42 680.42,-309.62 677.21,-309.62"/>
<text text-anchor="start" x="624.62" y="-297.07" font-family="Helvetica,sans-Serif" font-size="9.00">Spinner.tsx</text>
</a>
</g>
</g>
<!-- src/shared/ui/index.ts&#45;&gt;src/shared/ui/Spinner.tsx -->
<g id="edge45" class="edge">
<title>src/shared/ui/index.ts&#45;&gt;src/shared/ui/Spinner.tsx</title>
<path fill="none" stroke="#000000" stroke-width="2" stroke-opacity="0.200000" d="M567.39,-351.89C574.1,-341.23 586.04,-324.66 600.5,-315 602.89,-313.41 605.45,-311.97 608.11,-310.69"/>
<polygon fill="#000000" fill-opacity="0.200000" stroke="#000000" stroke-width="2" stroke-opacity="0.200000" points="609.57,-312.52 614.29,-308.27 607.94,-308.65 609.57,-312.52"/>
</g>
<!-- src/pages/bookings/Bookings.tsx&#45;&gt;src/shared/ui/index.ts -->
<g id="edge18" class="edge">
<title>src/pages/bookings/Bookings.tsx&#45;&gt;src/shared/ui/index.ts</title>
<path fill="none" stroke="#000000" stroke-width="2" stroke-opacity="0.200000" d="M473.57,-539.1C483.65,-535.68 493.92,-530.58 501.5,-523 541.47,-483.04 554.06,-413.57 557.9,-380.51"/>
<polygon fill="#000000" fill-opacity="0.200000" stroke="#000000" stroke-width="2" stroke-opacity="0.200000" points="560.26,-381.03 558.79,-374.85 556.09,-380.6 560.26,-381.03"/>
</g>
<!-- src/pages/cabins/Cabins.tsx&#45;&gt;src/shared/ui/index.ts -->
<g id="edge20" class="edge">
<title>src/pages/cabins/Cabins.tsx&#45;&gt;src/shared/ui/index.ts</title>
<path fill="none" stroke="#000000" stroke-width="2" stroke-opacity="0.200000" d="M468.12,-476.67C479.5,-473.17 491.96,-467.89 501.5,-460 527.49,-438.5 544.6,-402.13 553.12,-380.26"/>
<polygon fill="#000000" fill-opacity="0.200000" stroke="#000000" stroke-width="2" stroke-opacity="0.200000" points="555.13,-380.21 555.25,-373.86 551.19,-378.75 555.13,-380.21"/>
</g>
<!-- src/pages/dashboard/Dashboard.tsx&#45;&gt;src/shared/ui/index.ts -->
<g id="edge22" class="edge">
<title>src/pages/dashboard/Dashboard.tsx&#45;&gt;src/shared/ui/index.ts</title>
<path fill="none" stroke="#000000" stroke-width="2" stroke-opacity="0.200000" d="M469.32,-409.98C479.75,-406.31 491.28,-401.86 501.5,-397 513.69,-391.2 526.6,-383.57 537.14,-376.91"/>
<polygon fill="#000000" fill-opacity="0.200000" stroke="#000000" stroke-width="2" stroke-opacity="0.200000" points="538.78,-378.07 542.69,-373.06 536.51,-374.54 538.78,-378.07"/>
</g>
<!-- src/pages/error/Error.tsx&#45;&gt;src/shared/ui/index.ts -->
<g id="edge24" class="edge">
<title>src/pages/error/Error.tsx&#45;&gt;src/shared/ui/index.ts</title>
<path fill="none" stroke="#000000" stroke-width="2" stroke-opacity="0.200000" d="M464.07,-358.08C481.72,-358.81 505.12,-359.77 524.33,-360.56"/>
<polygon fill="#000000" fill-opacity="0.200000" stroke="#000000" stroke-width="2" stroke-opacity="0.200000" points="524.03,-362.77 530.11,-360.92 524.2,-358.57 524.03,-362.77"/>
</g>
<!-- src/pages/layouts/PrimaryLayout.tsx&#45;&gt;src/shared/ui/index.ts -->
<g id="edge26" class="edge">
<title>src/pages/layouts/PrimaryLayout.tsx&#45;&gt;src/shared/ui/index.ts</title>
<path fill="none" stroke="#000000" stroke-width="2" stroke-opacity="0.200000" d="M455.61,-304.03C476.22,-315.53 510.17,-334.48 533.63,-347.56"/>
<polygon fill="#000000" fill-opacity="0.200000" stroke="#000000" stroke-width="2" stroke-opacity="0.200000" points="533.18,-349.84 539.44,-350.93 535.23,-346.17 533.18,-349.84"/>
</g>
<!-- src/widgets/AppSidebar.tsx -->
<g id="node24" class="node">
<title>src/widgets/AppSidebar.tsx</title>
<g id="a_node24"><a xlink:href="src/widgets/AppSidebar.tsx" xlink:title="AppSidebar.tsx">
<path fill="#bbfeff" stroke="black" d="M472.33,-43.62C472.33,-43.62 400.92,-43.62 400.92,-43.62 397.71,-43.62 394.5,-40.42 394.5,-37.21 394.5,-37.21 394.5,-30.79 394.5,-30.79 394.5,-27.58 397.71,-24.38 400.92,-24.38 400.92,-24.38 472.33,-24.38 472.33,-24.38 475.54,-24.38 478.75,-27.58 478.75,-30.79 478.75,-30.79 478.75,-37.21 478.75,-37.21 478.75,-40.42 475.54,-43.62 472.33,-43.62"/>
<text text-anchor="start" x="402.5" y="-31.07" font-family="Helvetica,sans-Serif" font-size="9.00">AppSidebar.tsx</text>
</a>
</g>
</g>
<!-- src/pages/layouts/PrimaryLayout.tsx&#45;&gt;src/widgets/AppSidebar.tsx -->
<g id="edge27" class="edge">
<title>src/pages/layouts/PrimaryLayout.tsx&#45;&gt;src/widgets/AppSidebar.tsx</title>
<path fill="none" stroke="#000000" stroke-width="2" stroke-opacity="0.200000" d="M399.75,-284C391.5,-279.71 384.14,-273.62 380.62,-265 373.28,-247 373.28,-108 380.62,-90 387.36,-73.51 401.62,-59.36 414.07,-49.42"/>
<polygon fill="#000000" fill-opacity="0.200000" stroke="#000000" stroke-width="2" stroke-opacity="0.200000" points="415.61,-50.36 419.11,-45.06 413.07,-47.02 415.61,-50.36"/>
</g>
<!-- src/widgets/AppSidebar.tsx&#45;&gt;src/shared/lib/react&#45;router/index.ts -->
<g id="edge46" class="edge">
<title>src/widgets/AppSidebar.tsx&#45;&gt;src/shared/lib/react&#45;router/index.ts</title>
<path fill="none" stroke="#000000" stroke-width="2" stroke-opacity="0.200000" d="M458.72,-44.09C473.64,-52.49 492.52,-65.98 501.5,-84 512.46,-105.98 497.36,-504.65 509.5,-526 513.27,-532.64 519.11,-538.04 525.47,-542.37"/>
<polygon fill="#000000" fill-opacity="0.200000" stroke="#000000" stroke-width="2" stroke-opacity="0.200000" points="524.88,-544.66 531.1,-545.96 527.05,-541.06 524.88,-544.66"/>
</g>
<!-- src/widgets/AppSidebar.tsx&#45;&gt;src/shared/ui/index.ts -->
<g id="edge47" class="edge">
<title>src/widgets/AppSidebar.tsx&#45;&gt;src/shared/ui/index.ts</title>
<path fill="none" stroke="#000000" stroke-width="2" stroke-opacity="0.200000" d="M456.86,-44.09C471.4,-52.73 490.65,-66.54 501.5,-84 554.72,-169.61 559.93,-295.8 559.87,-343.14"/>
<polygon fill="#000000" fill-opacity="0.200000" stroke="#000000" stroke-width="2" stroke-opacity="0.200000" points="557.74,-342.99 559.79,-349 561.94,-343.02 557.74,-342.99"/>
</g>
<!-- src/pages/settings/Settings.tsx&#45;&gt;src/shared/ui/index.ts -->
<g id="edge30" class="edge">
<title>src/pages/settings/Settings.tsx&#45;&gt;src/shared/ui/index.ts</title>
<path fill="none" stroke="#000000" stroke-width="2" stroke-opacity="0.200000" d="M459.73,-178.08C473.38,-185.28 490.36,-196.14 501.5,-210 534.38,-250.93 550.09,-312.56 556.23,-343.25"/>
<polygon fill="#000000" fill-opacity="0.200000" stroke="#000000" stroke-width="2" stroke-opacity="0.200000" points="554.72,-344.56 557.9,-350.06 558.85,-343.78 554.72,-344.56"/>
</g>
<!-- src/pages/users/Users.tsx&#45;&gt;src/shared/ui/index.ts -->
<g id="edge32" class="edge">
<title>src/pages/users/Users.tsx&#45;&gt;src/shared/ui/index.ts</title>
<path fill="none" stroke="#000000" stroke-width="2" stroke-opacity="0.200000" d="M460.84,-115.03C474.57,-122.08 491.23,-132.81 501.5,-147 546.21,-208.79 556.45,-303.03 558.8,-343.01"/>
<polygon fill="#000000" fill-opacity="0.200000" stroke="#000000" stroke-width="2" stroke-opacity="0.200000" points="556.85,-343.06 559.24,-348.95 561.05,-342.85 556.85,-343.06"/>
</g>
<!-- src/shared/api/apiCabins.ts&#45;&gt;src/shared/api/supabase.ts -->
<g id="edge34" class="edge">
<title>src/shared/api/apiCabins.ts&#45;&gt;src/shared/api/supabase.ts</title>
<path fill="none" stroke="#000000" stroke-width="2" stroke-opacity="0.200000" d="M685.9,-647C692.6,-647 699.7,-647 706.64,-647"/>
<polygon fill="#000000" fill-opacity="0.200000" stroke="#000000" stroke-width="2" stroke-opacity="0.200000" points="706.29,-649.1 712.29,-647 706.29,-644.9 706.29,-649.1"/>
</g>
</g>
</svg>
