<?xml version="1.0" encoding="UTF-8" standalone="no"?>
<!DOCTYPE svg PUBLIC "-//W3C//DTD SVG 1.1//EN"
 "http://www.w3.org/Graphics/SVG/1.1/DTD/svg11.dtd">
<!-- Generated by graphviz version 8.1.0 (0)
 -->
<!-- Title: dependency&#45;cruiser output Pages: 1 -->
<svg width="733pt" height="600pt"
 viewBox="0.00 0.00 732.50 600.00" xmlns="http://www.w3.org/2000/svg" xmlns:xlink="http://www.w3.org/1999/xlink">
<g id="graph0" class="graph" transform="scale(1 1) rotate(0) translate(4 596)">
<title>dependency&#45;cruiser output</title>
<polygon fill="white" stroke="none" points="-4,4 -4,-596 728.5,-596 728.5,4 -4,4"/>
<g id="clust1" class="cluster">
<title>cluster_src</title>
<path fill="#ffffff" stroke="black" stroke-width="2" d="M20,-8C20,-8 704.5,-8 704.5,-8 710.5,-8 716.5,-14 716.5,-20 716.5,-20 716.5,-572 716.5,-572 716.5,-578 710.5,-584 704.5,-584 704.5,-584 20,-584 20,-584 14,-584 8,-578 8,-572 8,-572 8,-20 8,-20 8,-14 14,-8 20,-8"/>
<text text-anchor="middle" x="362.25" y="-571.45" font-family="Helvetica,sans-Serif" font-weight="bold" font-size="9.00">src</text>
</g>
<g id="clust2" class="cluster">
<title>cluster_src/app</title>
<path fill="#ffffff" stroke="black" stroke-width="2" d="M28,-299C28,-299 323.25,-299 323.25,-299 329.25,-299 335.25,-305 335.25,-311 335.25,-311 335.25,-405 335.25,-405 335.25,-411 329.25,-417 323.25,-417 323.25,-417 28,-417 28,-417 22,-417 16,-411 16,-405 16,-405 16,-311 16,-311 16,-305 22,-299 28,-299"/>
<text text-anchor="middle" x="175.62" y="-404.45" font-family="Helvetica,sans-Serif" font-weight="bold" font-size="9.00">app</text>
</g>
<g id="clust3" class="cluster">
<title>cluster_src/app/layouts</title>
<path fill="#ffffff" stroke="black" stroke-width="2" d="M36,-335C36,-335 125.75,-335 125.75,-335 131.75,-335 137.75,-341 137.75,-347 137.75,-347 137.75,-378 137.75,-378 137.75,-384 131.75,-390 125.75,-390 125.75,-390 36,-390 36,-390 30,-390 24,-384 24,-378 24,-378 24,-347 24,-347 24,-341 30,-335 36,-335"/>
<text text-anchor="middle" x="80.88" y="-377.45" font-family="Helvetica,sans-Serif" font-weight="bold" font-size="9.00">layouts</text>
</g>
<g id="clust4" class="cluster">
<title>cluster_src/app/providers</title>
<path fill="#ffffff" stroke="black" stroke-width="2" d="M157.75,-307C157.75,-307 315.25,-307 315.25,-307 321.25,-307 327.25,-313 327.25,-319 327.25,-319 327.25,-350 327.25,-350 327.25,-356 321.25,-362 315.25,-362 315.25,-362 157.75,-362 157.75,-362 151.75,-362 145.75,-356 145.75,-350 145.75,-350 145.75,-319 145.75,-319 145.75,-313 151.75,-307 157.75,-307"/>
<text text-anchor="middle" x="236.5" y="-349.45" font-family="Helvetica,sans-Serif" font-weight="bold" font-size="9.00">providers</text>
</g>
<g id="clust5" class="cluster">
<title>cluster_src/pages</title>
<path fill="#ffffff" stroke="black" stroke-width="2" d="M355.25,-16C355.25,-16 511.5,-16 511.5,-16 517.5,-16 523.5,-22 523.5,-28 523.5,-28 523.5,-535 523.5,-535 523.5,-541 517.5,-547 511.5,-547 511.5,-547 355.25,-547 355.25,-547 349.25,-547 343.25,-541 343.25,-535 343.25,-535 343.25,-28 343.25,-28 343.25,-22 349.25,-16 355.25,-16"/>
<text text-anchor="middle" x="433.38" y="-534.45" font-family="Helvetica,sans-Serif" font-weight="bold" font-size="9.00">pages</text>
</g>
<g id="clust6" class="cluster">
<title>cluster_src/pages/account</title>
<path fill="#ffffff" stroke="black" stroke-width="2" d="M363.25,-465C363.25,-465 497.88,-465 497.88,-465 503.88,-465 509.88,-471 509.88,-477 509.88,-477 509.88,-508 509.88,-508 509.88,-514 503.88,-520 497.88,-520 497.88,-520 363.25,-520 363.25,-520 357.25,-520 351.25,-514 351.25,-508 351.25,-508 351.25,-477 351.25,-477 351.25,-471 357.25,-465 363.25,-465"/>
<text text-anchor="middle" x="430.56" y="-507.45" font-family="Helvetica,sans-Serif" font-weight="bold" font-size="9.00">account</text>
</g>
<g id="clust7" class="cluster">
<title>cluster_src/pages/bookings</title>
<path fill="#ffffff" stroke="black" stroke-width="2" d="M363.25,-402C363.25,-402 499.38,-402 499.38,-402 505.38,-402 511.38,-408 511.38,-414 511.38,-414 511.38,-445 511.38,-445 511.38,-451 505.38,-457 499.38,-457 499.38,-457 363.25,-457 363.25,-457 357.25,-457 351.25,-451 351.25,-445 351.25,-445 351.25,-414 351.25,-414 351.25,-408 357.25,-402 363.25,-402"/>
<text text-anchor="middle" x="431.31" y="-444.45" font-family="Helvetica,sans-Serif" font-weight="bold" font-size="9.00">bookings</text>
</g>
<g id="clust8" class="cluster">
<title>cluster_src/pages/cabins</title>
<path fill="#ffffff" stroke="black" stroke-width="2" d="M363.25,-339C363.25,-339 494.12,-339 494.12,-339 500.12,-339 506.12,-345 506.12,-351 506.12,-351 506.12,-382 506.12,-382 506.12,-388 500.12,-394 494.12,-394 494.12,-394 363.25,-394 363.25,-394 357.25,-394 351.25,-388 351.25,-382 351.25,-382 351.25,-351 351.25,-351 351.25,-345 357.25,-339 363.25,-339"/>
<text text-anchor="middle" x="428.69" y="-381.45" font-family="Helvetica,sans-Serif" font-weight="bold" font-size="9.00">cabins</text>
</g>
<g id="clust9" class="cluster">
<title>cluster_src/pages/dashboard</title>
<path fill="#ffffff" stroke="black" stroke-width="2" d="M363.25,-276C363.25,-276 503.5,-276 503.5,-276 509.5,-276 515.5,-282 515.5,-288 515.5,-288 515.5,-319 515.5,-319 515.5,-325 509.5,-331 503.5,-331 503.5,-331 363.25,-331 363.25,-331 357.25,-331 351.25,-325 351.25,-319 351.25,-319 351.25,-288 351.25,-288 351.25,-282 357.25,-276 363.25,-276"/>
<text text-anchor="middle" x="433.38" y="-318.45" font-family="Helvetica,sans-Serif" font-weight="bold" font-size="9.00">dashboard</text>
</g>
<g id="clust10" class="cluster">
<title>cluster_src/pages/error</title>
<path fill="#ffffff" stroke="black" stroke-width="2" d="M363.25,-213C363.25,-213 490,-213 490,-213 496,-213 502,-219 502,-225 502,-225 502,-256 502,-256 502,-262 496,-268 490,-268 490,-268 363.25,-268 363.25,-268 357.25,-268 351.25,-262 351.25,-256 351.25,-256 351.25,-225 351.25,-225 351.25,-219 357.25,-213 363.25,-213"/>
<text text-anchor="middle" x="426.62" y="-255.45" font-family="Helvetica,sans-Serif" font-weight="bold" font-size="9.00">error</text>
</g>
<g id="clust11" class="cluster">
<title>cluster_src/pages/login</title>
<path fill="#ffffff" stroke="black" stroke-width="2" d="M363.25,-150C363.25,-150 491.12,-150 491.12,-150 497.12,-150 503.12,-156 503.12,-162 503.12,-162 503.12,-193 503.12,-193 503.12,-199 497.12,-205 491.12,-205 491.12,-205 363.25,-205 363.25,-205 357.25,-205 351.25,-199 351.25,-193 351.25,-193 351.25,-162 351.25,-162 351.25,-156 357.25,-150 363.25,-150"/>
<text text-anchor="middle" x="427.19" y="-192.45" font-family="Helvetica,sans-Serif" font-weight="bold" font-size="9.00">login</text>
</g>
<g id="clust12" class="cluster">
<title>cluster_src/pages/settings</title>
<path fill="#ffffff" stroke="black" stroke-width="2" d="M363.25,-87C363.25,-87 497.88,-87 497.88,-87 503.88,-87 509.88,-93 509.88,-99 509.88,-99 509.88,-130 509.88,-130 509.88,-136 503.88,-142 497.88,-142 497.88,-142 363.25,-142 363.25,-142 357.25,-142 351.25,-136 351.25,-130 351.25,-130 351.25,-99 351.25,-99 351.25,-93 357.25,-87 363.25,-87"/>
<text text-anchor="middle" x="430.56" y="-129.45" font-family="Helvetica,sans-Serif" font-weight="bold" font-size="9.00">settings</text>
</g>
<g id="clust13" class="cluster">
<title>cluster_src/pages/users</title>
<path fill="#ffffff" stroke="black" stroke-width="2" d="M363.25,-24C363.25,-24 491.5,-24 491.5,-24 497.5,-24 503.5,-30 503.5,-36 503.5,-36 503.5,-67 503.5,-67 503.5,-73 497.5,-79 491.5,-79 491.5,-79 363.25,-79 363.25,-79 357.25,-79 351.25,-73 351.25,-67 351.25,-67 351.25,-36 351.25,-36 351.25,-30 357.25,-24 363.25,-24"/>
<text text-anchor="middle" x="427.38" y="-66.45" font-family="Helvetica,sans-Serif" font-weight="bold" font-size="9.00">users</text>
</g>
<g id="clust14" class="cluster">
<title>cluster_src/shared</title>
<path fill="#ffffff" stroke="black" stroke-width="2" d="M543.5,-299C543.5,-299 696.5,-299 696.5,-299 702.5,-299 708.5,-305 708.5,-311 708.5,-311 708.5,-506 708.5,-506 708.5,-512 702.5,-518 696.5,-518 696.5,-518 543.5,-518 543.5,-518 537.5,-518 531.5,-512 531.5,-506 531.5,-506 531.5,-311 531.5,-311 531.5,-305 537.5,-299 543.5,-299"/>
<text text-anchor="middle" x="620" y="-505.45" font-family="Helvetica,sans-Serif" font-weight="bold" font-size="9.00">shared</text>
</g>
<g id="clust15" class="cluster">
<title>cluster_src/shared/lib</title>
<path fill="#ffffff" stroke="black" stroke-width="2" d="M551.5,-401C551.5,-401 688.5,-401 688.5,-401 694.5,-401 700.5,-407 700.5,-413 700.5,-413 700.5,-479 700.5,-479 700.5,-485 694.5,-491 688.5,-491 688.5,-491 551.5,-491 551.5,-491 545.5,-491 539.5,-485 539.5,-479 539.5,-479 539.5,-413 539.5,-413 539.5,-407 545.5,-401 551.5,-401"/>
<text text-anchor="middle" x="620" y="-478.45" font-family="Helvetica,sans-Serif" font-weight="bold" font-size="9.00">lib</text>
</g>
<g id="clust16" class="cluster">
<title>cluster_src/shared/lib/react&#45;router</title>
<path fill="#ffffff" stroke="black" stroke-width="2" d="M559.5,-409C559.5,-409 680.5,-409 680.5,-409 686.5,-409 692.5,-415 692.5,-421 692.5,-421 692.5,-452 692.5,-452 692.5,-458 686.5,-464 680.5,-464 680.5,-464 559.5,-464 559.5,-464 553.5,-464 547.5,-458 547.5,-452 547.5,-452 547.5,-421 547.5,-421 547.5,-415 553.5,-409 559.5,-409"/>
<text text-anchor="middle" x="620" y="-451.45" font-family="Helvetica,sans-Serif" font-weight="bold" font-size="9.00">react&#45;router</text>
</g>
<g id="clust17" class="cluster">
<title>cluster_src/shared/ui</title>
<path fill="#ffffff" stroke="black" stroke-width="2" d="M559.5,-307C559.5,-307 688.5,-307 688.5,-307 694.5,-307 700.5,-313 700.5,-319 700.5,-319 700.5,-381 700.5,-381 700.5,-387 694.5,-393 688.5,-393 688.5,-393 559.5,-393 559.5,-393 553.5,-393 547.5,-387 547.5,-381 547.5,-381 547.5,-319 547.5,-319 547.5,-313 553.5,-307 559.5,-307"/>
<text text-anchor="middle" x="624" y="-380.45" font-family="Helvetica,sans-Serif" font-weight="bold" font-size="9.00">ui</text>
</g>
<!-- src/app/index.tsx -->
<g id="node1" class="node">
<title>src/app/index.tsx</title>
<g id="a_node1"><a xlink:href="src/app/index.tsx" xlink:title="index.tsx">
<path fill="#bbfeff" stroke="black" d="M103.08,-326.62C103.08,-326.62 58.67,-326.62 58.67,-326.62 55.46,-326.62 52.25,-323.42 52.25,-320.21 52.25,-320.21 52.25,-313.79 52.25,-313.79 52.25,-310.58 55.46,-307.38 58.67,-307.38 58.67,-307.38 103.08,-307.38 103.08,-307.38 106.29,-307.38 109.5,-310.58 109.5,-313.79 109.5,-313.79 109.5,-320.21 109.5,-320.21 109.5,-323.42 106.29,-326.62 103.08,-326.62"/>
<text text-anchor="start" x="60.25" y="-314.07" font-family="Helvetica,sans-Serif" font-size="9.00">index.tsx</text>
</a>
</g>
</g>
<!-- src/app/providers/index.ts -->
<g id="node2" class="node">
<title>src/app/providers/index.ts</title>
<g id="a_node2"><a xlink:href="src/app/providers/index.ts" xlink:title="index.ts">
<path fill="#ddfeff" stroke="black" d="M201.33,-334.62C201.33,-334.62 160.17,-334.62 160.17,-334.62 156.96,-334.62 153.75,-331.42 153.75,-328.21 153.75,-328.21 153.75,-321.79 153.75,-321.79 153.75,-318.58 156.96,-315.38 160.17,-315.38 160.17,-315.38 201.33,-315.38 201.33,-315.38 204.54,-315.38 207.75,-318.58 207.75,-321.79 207.75,-321.79 207.75,-328.21 207.75,-328.21 207.75,-331.42 204.54,-334.62 201.33,-334.62"/>
<text text-anchor="start" x="162.75" y="-322.07" font-family="Helvetica,sans-Serif" font-size="9.00">index.ts</text>
</a>
</g>
</g>
<!-- src/app/index.tsx&#45;&gt;src/app/providers/index.ts -->
<g id="edge1" class="edge">
<title>src/app/index.tsx&#45;&gt;src/app/providers/index.ts</title>
<path fill="none" stroke="#000000" stroke-width="2" stroke-opacity="0.200000" d="M109.92,-319.29C120.71,-320.17 133.16,-321.19 144.54,-322.12"/>
<polygon fill="#000000" fill-opacity="0.200000" stroke="#000000" stroke-width="2" stroke-opacity="0.200000" points="144.23,-324.45 150.38,-322.84 144.57,-320.26 144.23,-324.45"/>
</g>
<!-- src/app/providers/RouterProvider.tsx -->
<g id="node4" class="node">
<title>src/app/providers/RouterProvider.tsx</title>
<g id="a_node4"><a xlink:href="src/app/providers/RouterProvider.tsx" xlink:title="RouterProvider.tsx">
<path fill="#bbfeff" stroke="black" d="M312.83,-334.62C312.83,-334.62 227.17,-334.62 227.17,-334.62 223.96,-334.62 220.75,-331.42 220.75,-328.21 220.75,-328.21 220.75,-321.79 220.75,-321.79 220.75,-318.58 223.96,-315.38 227.17,-315.38 227.17,-315.38 312.83,-315.38 312.83,-315.38 316.04,-315.38 319.25,-318.58 319.25,-321.79 319.25,-321.79 319.25,-328.21 319.25,-328.21 319.25,-331.42 316.04,-334.62 312.83,-334.62"/>
<text text-anchor="start" x="228.75" y="-322.07" font-family="Helvetica,sans-Serif" font-size="9.00">RouterProvider.tsx</text>
</a>
</g>
</g>
<!-- src/app/providers/index.ts&#45;&gt;src/app/providers/RouterProvider.tsx -->
<g id="edge10" class="edge">
<title>src/app/providers/index.ts&#45;&gt;src/app/providers/RouterProvider.tsx</title>
<path fill="none" stroke="#000000" stroke-width="2" stroke-opacity="0.200000" d="M207.93,-325C209.18,-325 210.46,-325 211.76,-325"/>
<polygon fill="#000000" fill-opacity="0.200000" stroke="#000000" stroke-width="2" stroke-opacity="0.200000" points="211.51,-327.1 217.51,-325 211.51,-322.9 211.51,-327.1"/>
</g>
<!-- src/app/layouts/PrimaryLayout.tsx -->
<g id="node3" class="node">
<title>src/app/layouts/PrimaryLayout.tsx</title>
<g id="a_node3"><a xlink:href="src/app/layouts/PrimaryLayout.tsx" xlink:title="no&#45;orphans">
<path fill="#ccffcc" stroke="orange" d="M123.33,-362.62C123.33,-362.62 38.42,-362.62 38.42,-362.62 35.21,-362.62 32,-359.42 32,-356.21 32,-356.21 32,-349.79 32,-349.79 32,-346.58 35.21,-343.38 38.42,-343.38 38.42,-343.38 123.33,-343.38 123.33,-343.38 126.54,-343.38 129.75,-346.58 129.75,-349.79 129.75,-349.79 129.75,-356.21 129.75,-356.21 129.75,-359.42 126.54,-362.62 123.33,-362.62"/>
<text text-anchor="start" x="40" y="-350.07" font-family="Helvetica,sans-Serif" font-size="9.00" fill="orange">PrimaryLayout.tsx</text>
</a>
</g>
</g>
<!-- src/pages/account/index.ts -->
<g id="node5" class="node">
<title>src/pages/account/index.ts</title>
<g id="a_node5"><a xlink:href="src/pages/account/index.ts" xlink:title="index.ts">
<path fill="#ddfeff" stroke="black" d="M406.83,-492.62C406.83,-492.62 365.67,-492.62 365.67,-492.62 362.46,-492.62 359.25,-489.42 359.25,-486.21 359.25,-486.21 359.25,-479.79 359.25,-479.79 359.25,-476.58 362.46,-473.38 365.67,-473.38 365.67,-473.38 406.83,-473.38 406.83,-473.38 410.04,-473.38 413.25,-476.58 413.25,-479.79 413.25,-479.79 413.25,-486.21 413.25,-486.21 413.25,-489.42 410.04,-492.62 406.83,-492.62"/>
<text text-anchor="start" x="368.25" y="-480.07" font-family="Helvetica,sans-Serif" font-size="9.00">index.ts</text>
</a>
</g>
</g>
<!-- src/app/providers/RouterProvider.tsx&#45;&gt;src/pages/account/index.ts -->
<g id="edge2" class="edge">
<title>src/app/providers/RouterProvider.tsx&#45;&gt;src/pages/account/index.ts</title>
<path fill="none" stroke="#000000" stroke-width="2" stroke-dasharray="5,2" stroke-opacity="0.200000" d="M274.13,-335.03C282.1,-359.24 305.28,-421.66 343.25,-460 346.39,-463.17 350.05,-466.02 353.89,-468.54"/>
<polygon fill="#000000" fill-opacity="0.200000" stroke="#000000" stroke-width="2" stroke-opacity="0.200000" points="353.15,-470.74 359.38,-472 355.3,-467.13 353.15,-470.74"/>
</g>
<!-- src/pages/bookings/index.ts -->
<g id="node6" class="node">
<title>src/pages/bookings/index.ts</title>
<g id="a_node6"><a xlink:href="src/pages/bookings/index.ts" xlink:title="index.ts">
<path fill="#ddfeff" stroke="black" d="M406.83,-429.62C406.83,-429.62 365.67,-429.62 365.67,-429.62 362.46,-429.62 359.25,-426.42 359.25,-423.21 359.25,-423.21 359.25,-416.79 359.25,-416.79 359.25,-413.58 362.46,-410.38 365.67,-410.38 365.67,-410.38 406.83,-410.38 406.83,-410.38 410.04,-410.38 413.25,-413.58 413.25,-416.79 413.25,-416.79 413.25,-423.21 413.25,-423.21 413.25,-426.42 410.04,-429.62 406.83,-429.62"/>
<text text-anchor="start" x="368.25" y="-417.07" font-family="Helvetica,sans-Serif" font-size="9.00">index.ts</text>
</a>
</g>
</g>
<!-- src/app/providers/RouterProvider.tsx&#45;&gt;src/pages/bookings/index.ts -->
<g id="edge3" class="edge">
<title>src/app/providers/RouterProvider.tsx&#45;&gt;src/pages/bookings/index.ts</title>
<path fill="none" stroke="#000000" stroke-width="2" stroke-dasharray="5,2" stroke-opacity="0.200000" d="M279.15,-334.73C291.81,-349.45 317.44,-377.69 343.25,-397 347.34,-400.06 351.89,-402.98 356.45,-405.65"/>
<polygon fill="#000000" fill-opacity="0.200000" stroke="#000000" stroke-width="2" stroke-opacity="0.200000" points="355.77,-407.79 362.03,-408.88 357.81,-404.12 355.77,-407.79"/>
</g>
<!-- src/pages/cabins/index.ts -->
<g id="node7" class="node">
<title>src/pages/cabins/index.ts</title>
<g id="a_node7"><a xlink:href="src/pages/cabins/index.ts" xlink:title="index.ts">
<path fill="#ddfeff" stroke="black" d="M406.83,-366.62C406.83,-366.62 365.67,-366.62 365.67,-366.62 362.46,-366.62 359.25,-363.42 359.25,-360.21 359.25,-360.21 359.25,-353.79 359.25,-353.79 359.25,-350.58 362.46,-347.38 365.67,-347.38 365.67,-347.38 406.83,-347.38 406.83,-347.38 410.04,-347.38 413.25,-350.58 413.25,-353.79 413.25,-353.79 413.25,-360.21 413.25,-360.21 413.25,-363.42 410.04,-366.62 406.83,-366.62"/>
<text text-anchor="start" x="368.25" y="-354.07" font-family="Helvetica,sans-Serif" font-size="9.00">index.ts</text>
</a>
</g>
</g>
<!-- src/app/providers/RouterProvider.tsx&#45;&gt;src/pages/cabins/index.ts -->
<g id="edge4" class="edge">
<title>src/app/providers/RouterProvider.tsx&#45;&gt;src/pages/cabins/index.ts</title>
<path fill="none" stroke="#000000" stroke-width="2" stroke-dasharray="5,2" stroke-opacity="0.200000" d="M307.15,-335.12C320.88,-338.97 336.48,-343.34 350.12,-347.16"/>
<polygon fill="#000000" fill-opacity="0.200000" stroke="#000000" stroke-width="2" stroke-opacity="0.200000" points="350.41,-349.98 356.75,-349.58 351.54,-345.94 350.41,-349.98"/>
</g>
<!-- src/pages/dashboard/index.ts -->
<g id="node8" class="node">
<title>src/pages/dashboard/index.ts</title>
<g id="a_node8"><a xlink:href="src/pages/dashboard/index.ts" xlink:title="index.ts">
<path fill="#ddfeff" stroke="black" d="M406.83,-303.62C406.83,-303.62 365.67,-303.62 365.67,-303.62 362.46,-303.62 359.25,-300.42 359.25,-297.21 359.25,-297.21 359.25,-290.79 359.25,-290.79 359.25,-287.58 362.46,-284.38 365.67,-284.38 365.67,-284.38 406.83,-284.38 406.83,-284.38 410.04,-284.38 413.25,-287.58 413.25,-290.79 413.25,-290.79 413.25,-297.21 413.25,-297.21 413.25,-300.42 410.04,-303.62 406.83,-303.62"/>
<text text-anchor="start" x="368.25" y="-291.07" font-family="Helvetica,sans-Serif" font-size="9.00">index.ts</text>
</a>
</g>
</g>
<!-- src/app/providers/RouterProvider.tsx&#45;&gt;src/pages/dashboard/index.ts -->
<g id="edge5" class="edge">
<title>src/app/providers/RouterProvider.tsx&#45;&gt;src/pages/dashboard/index.ts</title>
<path fill="none" stroke="#000000" stroke-width="2" stroke-dasharray="5,2" stroke-opacity="0.200000" d="M308.09,-314.94C321.67,-311.25 336.97,-307.1 350.35,-303.47"/>
<polygon fill="#000000" fill-opacity="0.200000" stroke="#000000" stroke-width="2" stroke-opacity="0.200000" points="351.59,-304.77 356.83,-301.17 350.49,-300.71 351.59,-304.77"/>
</g>
<!-- src/pages/login/index.ts -->
<g id="node9" class="node">
<title>src/pages/login/index.ts</title>
<g id="a_node9"><a xlink:href="src/pages/login/index.ts" xlink:title="index.ts">
<path fill="#ddfeff" stroke="black" d="M406.83,-177.62C406.83,-177.62 365.67,-177.62 365.67,-177.62 362.46,-177.62 359.25,-174.42 359.25,-171.21 359.25,-171.21 359.25,-164.79 359.25,-164.79 359.25,-161.58 362.46,-158.38 365.67,-158.38 365.67,-158.38 406.83,-158.38 406.83,-158.38 410.04,-158.38 413.25,-161.58 413.25,-164.79 413.25,-164.79 413.25,-171.21 413.25,-171.21 413.25,-174.42 410.04,-177.62 406.83,-177.62"/>
<text text-anchor="start" x="368.25" y="-165.07" font-family="Helvetica,sans-Serif" font-size="9.00">index.ts</text>
</a>
</g>
</g>
<!-- src/app/providers/RouterProvider.tsx&#45;&gt;src/pages/login/index.ts -->
<g id="edge6" class="edge">
<title>src/app/providers/RouterProvider.tsx&#45;&gt;src/pages/login/index.ts</title>
<path fill="none" stroke="#000000" stroke-width="2" stroke-dasharray="5,2" stroke-opacity="0.200000" d="M276.3,-314.96C287.39,-294.35 314.44,-246.13 343.25,-210 350.58,-200.8 359.72,-191.46 367.6,-183.94"/>
<polygon fill="#000000" fill-opacity="0.200000" stroke="#000000" stroke-width="2" stroke-opacity="0.200000" points="368.91,-185.71 371.85,-180.08 366.03,-182.65 368.91,-185.71"/>
</g>
<!-- src/pages/settings/index.ts -->
<g id="node10" class="node">
<title>src/pages/settings/index.ts</title>
<g id="a_node10"><a xlink:href="src/pages/settings/index.ts" xlink:title="index.ts">
<path fill="#ddfeff" stroke="black" d="M406.83,-114.62C406.83,-114.62 365.67,-114.62 365.67,-114.62 362.46,-114.62 359.25,-111.42 359.25,-108.21 359.25,-108.21 359.25,-101.79 359.25,-101.79 359.25,-98.58 362.46,-95.38 365.67,-95.38 365.67,-95.38 406.83,-95.38 406.83,-95.38 410.04,-95.38 413.25,-98.58 413.25,-101.79 413.25,-101.79 413.25,-108.21 413.25,-108.21 413.25,-111.42 410.04,-114.62 406.83,-114.62"/>
<text text-anchor="start" x="368.25" y="-102.08" font-family="Helvetica,sans-Serif" font-size="9.00">index.ts</text>
</a>
</g>
</g>
<!-- src/app/providers/RouterProvider.tsx&#45;&gt;src/pages/settings/index.ts -->
<g id="edge7" class="edge">
<title>src/app/providers/RouterProvider.tsx&#45;&gt;src/pages/settings/index.ts</title>
<path fill="none" stroke="#000000" stroke-width="2" stroke-dasharray="5,2" stroke-opacity="0.200000" d="M273.52,-315.08C280.95,-286.97 304.73,-205.09 343.25,-147 349.66,-137.33 358.55,-128.05 366.5,-120.68"/>
<polygon fill="#000000" fill-opacity="0.200000" stroke="#000000" stroke-width="2" stroke-opacity="0.200000" points="367.81,-122.54 370.88,-116.98 365.01,-119.41 367.81,-122.54"/>
</g>
<!-- src/pages/users/index.ts -->
<g id="node11" class="node">
<title>src/pages/users/index.ts</title>
<g id="a_node11"><a xlink:href="src/pages/users/index.ts" xlink:title="index.ts">
<path fill="#ddfeff" stroke="black" d="M406.83,-51.62C406.83,-51.62 365.67,-51.62 365.67,-51.62 362.46,-51.62 359.25,-48.42 359.25,-45.21 359.25,-45.21 359.25,-38.79 359.25,-38.79 359.25,-35.58 362.46,-32.38 365.67,-32.38 365.67,-32.38 406.83,-32.38 406.83,-32.38 410.04,-32.38 413.25,-35.58 413.25,-38.79 413.25,-38.79 413.25,-45.21 413.25,-45.21 413.25,-48.42 410.04,-51.62 406.83,-51.62"/>
<text text-anchor="start" x="368.25" y="-39.08" font-family="Helvetica,sans-Serif" font-size="9.00">index.ts</text>
</a>
</g>
</g>
<!-- src/app/providers/RouterProvider.tsx&#45;&gt;src/pages/users/index.ts -->
<g id="edge8" class="edge">
<title>src/app/providers/RouterProvider.tsx&#45;&gt;src/pages/users/index.ts</title>
<path fill="none" stroke="#000000" stroke-width="2" stroke-dasharray="5,2" stroke-opacity="0.200000" d="M272.2,-315.12C276.7,-280.89 294.88,-165 343.25,-84 349.12,-74.18 357.78,-64.98 365.73,-57.71"/>
<polygon fill="#000000" fill-opacity="0.200000" stroke="#000000" stroke-width="2" stroke-opacity="0.200000" points="367.02,-58.62 370.15,-53.09 364.25,-55.46 367.02,-58.62"/>
</g>
<!-- src/shared/lib/react&#45;router/index.ts -->
<g id="node12" class="node">
<title>src/shared/lib/react&#45;router/index.ts</title>
<g id="a_node12"><a xlink:href="src/shared/lib/react-router/index.ts" xlink:title="index.ts">
<path fill="#ddfeff" stroke="black" d="M603.08,-436.62C603.08,-436.62 561.92,-436.62 561.92,-436.62 558.71,-436.62 555.5,-433.42 555.5,-430.21 555.5,-430.21 555.5,-423.79 555.5,-423.79 555.5,-420.58 558.71,-417.38 561.92,-417.38 561.92,-417.38 603.08,-417.38 603.08,-417.38 606.29,-417.38 609.5,-420.58 609.5,-423.79 609.5,-423.79 609.5,-430.21 609.5,-430.21 609.5,-433.42 606.29,-436.62 603.08,-436.62"/>
<text text-anchor="start" x="564.5" y="-424.07" font-family="Helvetica,sans-Serif" font-size="9.00">index.ts</text>
</a>
</g>
</g>
<!-- src/app/providers/RouterProvider.tsx&#45;&gt;src/shared/lib/react&#45;router/index.ts -->
<g id="edge9" class="edge">
<title>src/app/providers/RouterProvider.tsx&#45;&gt;src/shared/lib/react&#45;router/index.ts</title>
<path fill="none" stroke="#000000" stroke-width="2" stroke-opacity="0.200000" d="M271,-334.67C271.58,-367.88 278.49,-477.69 343.25,-523 408.89,-568.92 453.73,-562.36 523.5,-523 552.86,-506.43 569.04,-468.36 576.43,-445.45"/>
<polygon fill="#000000" fill-opacity="0.200000" stroke="#000000" stroke-width="2" stroke-opacity="0.200000" points="579.28,-445.29 579,-438.94 575.26,-444.08 579.28,-445.29"/>
</g>
<!-- src/pages/account/Account.tsx -->
<g id="node13" class="node">
<title>src/pages/account/Account.tsx</title>
<g id="a_node13"><a xlink:href="src/pages/account/Account.tsx" xlink:title="Account.tsx">
<path fill="#bbfeff" stroke="black" d="M495.46,-492.62C495.46,-492.62 438.29,-492.62 438.29,-492.62 435.08,-492.62 431.88,-489.42 431.88,-486.21 431.88,-486.21 431.88,-479.79 431.88,-479.79 431.88,-476.58 435.08,-473.38 438.29,-473.38 438.29,-473.38 495.46,-473.38 495.46,-473.38 498.67,-473.38 501.88,-476.58 501.88,-479.79 501.88,-479.79 501.88,-486.21 501.88,-486.21 501.88,-489.42 498.67,-492.62 495.46,-492.62"/>
<text text-anchor="start" x="439.88" y="-480.07" font-family="Helvetica,sans-Serif" font-size="9.00">Account.tsx</text>
</a>
</g>
</g>
<!-- src/pages/account/index.ts&#45;&gt;src/pages/account/Account.tsx -->
<g id="edge12" class="edge">
<title>src/pages/account/index.ts&#45;&gt;src/pages/account/Account.tsx</title>
<path fill="none" stroke="#000000" stroke-width="2" stroke-opacity="0.200000" d="M413.43,-483C416.43,-483 419.53,-483 422.68,-483"/>
<polygon fill="#000000" fill-opacity="0.200000" stroke="#000000" stroke-width="2" stroke-opacity="0.200000" points="422.56,-485.1 428.56,-483 422.56,-480.9 422.56,-485.1"/>
</g>
<!-- src/pages/bookings/Bookings.tsx -->
<g id="node15" class="node">
<title>src/pages/bookings/Bookings.tsx</title>
<g id="a_node15"><a xlink:href="src/pages/bookings/Bookings.tsx" xlink:title="Bookings.tsx">
<path fill="#bbfeff" stroke="black" d="M496.96,-429.62C496.96,-429.62 436.79,-429.62 436.79,-429.62 433.58,-429.62 430.38,-426.42 430.38,-423.21 430.38,-423.21 430.38,-416.79 430.38,-416.79 430.38,-413.58 433.58,-410.38 436.79,-410.38 436.79,-410.38 496.96,-410.38 496.96,-410.38 500.17,-410.38 503.38,-413.58 503.38,-416.79 503.38,-416.79 503.38,-423.21 503.38,-423.21 503.38,-426.42 500.17,-429.62 496.96,-429.62"/>
<text text-anchor="start" x="438.38" y="-417.07" font-family="Helvetica,sans-Serif" font-size="9.00">Bookings.tsx</text>
</a>
</g>
</g>
<!-- src/pages/bookings/index.ts&#45;&gt;src/pages/bookings/Bookings.tsx -->
<g id="edge14" class="edge">
<title>src/pages/bookings/index.ts&#45;&gt;src/pages/bookings/Bookings.tsx</title>
<path fill="none" stroke="#000000" stroke-width="2" stroke-opacity="0.200000" d="M413.43,-420C415.94,-420 418.54,-420 421.16,-420"/>
<polygon fill="#000000" fill-opacity="0.200000" stroke="#000000" stroke-width="2" stroke-opacity="0.200000" points="421.15,-422.1 427.15,-420 421.15,-417.9 421.15,-422.1"/>
</g>
<!-- src/pages/cabins/Cabins.tsx -->
<g id="node16" class="node">
<title>src/pages/cabins/Cabins.tsx</title>
<g id="a_node16"><a xlink:href="src/pages/cabins/Cabins.tsx" xlink:title="Cabins.tsx">
<path fill="#bbfeff" stroke="black" d="M491.71,-366.62C491.71,-366.62 442.04,-366.62 442.04,-366.62 438.83,-366.62 435.62,-363.42 435.62,-360.21 435.62,-360.21 435.62,-353.79 435.62,-353.79 435.62,-350.58 438.83,-347.38 442.04,-347.38 442.04,-347.38 491.71,-347.38 491.71,-347.38 494.92,-347.38 498.12,-350.58 498.12,-353.79 498.12,-353.79 498.12,-360.21 498.12,-360.21 498.12,-363.42 494.92,-366.62 491.71,-366.62"/>
<text text-anchor="start" x="443.62" y="-354.07" font-family="Helvetica,sans-Serif" font-size="9.00">Cabins.tsx</text>
</a>
</g>
</g>
<!-- src/pages/cabins/index.ts&#45;&gt;src/pages/cabins/Cabins.tsx -->
<g id="edge16" class="edge">
<title>src/pages/cabins/index.ts&#45;&gt;src/pages/cabins/Cabins.tsx</title>
<path fill="none" stroke="#000000" stroke-width="2" stroke-opacity="0.200000" d="M413.43,-357C417.57,-357 421.93,-357 426.29,-357"/>
<polygon fill="#000000" fill-opacity="0.200000" stroke="#000000" stroke-width="2" stroke-opacity="0.200000" points="426.18,-359.1 432.18,-357 426.18,-354.9 426.18,-359.1"/>
</g>
<!-- src/pages/dashboard/Dashboard.tsx -->
<g id="node17" class="node">
<title>src/pages/dashboard/Dashboard.tsx</title>
<g id="a_node17"><a xlink:href="src/pages/dashboard/Dashboard.tsx" xlink:title="Dashboard.tsx">
<path fill="#bbfeff" stroke="black" d="M501.08,-303.62C501.08,-303.62 432.67,-303.62 432.67,-303.62 429.46,-303.62 426.25,-300.42 426.25,-297.21 426.25,-297.21 426.25,-290.79 426.25,-290.79 426.25,-287.58 429.46,-284.38 432.67,-284.38 432.67,-284.38 501.08,-284.38 501.08,-284.38 504.29,-284.38 507.5,-287.58 507.5,-290.79 507.5,-290.79 507.5,-297.21 507.5,-297.21 507.5,-300.42 504.29,-303.62 501.08,-303.62"/>
<text text-anchor="start" x="434.25" y="-291.07" font-family="Helvetica,sans-Serif" font-size="9.00">Dashboard.tsx</text>
</a>
</g>
</g>
<!-- src/pages/dashboard/index.ts&#45;&gt;src/pages/dashboard/Dashboard.tsx -->
<g id="edge18" class="edge">
<title>src/pages/dashboard/index.ts&#45;&gt;src/pages/dashboard/Dashboard.tsx</title>
<path fill="none" stroke="#000000" stroke-width="2" stroke-opacity="0.200000" d="M413.43,-294C414.69,-294 415.96,-294 417.25,-294"/>
<polygon fill="#000000" fill-opacity="0.200000" stroke="#000000" stroke-width="2" stroke-opacity="0.200000" points="416.92,-296.1 422.92,-294 416.92,-291.9 416.92,-296.1"/>
</g>
<!-- src/pages/login/Login.tsx -->
<g id="node20" class="node">
<title>src/pages/login/Login.tsx</title>
<g id="a_node20"><a xlink:href="src/pages/login/Login.tsx" xlink:title="Login.tsx">
<path fill="#bbfeff" stroke="black" d="M488.71,-177.62C488.71,-177.62 445.04,-177.62 445.04,-177.62 441.83,-177.62 438.62,-174.42 438.62,-171.21 438.62,-171.21 438.62,-164.79 438.62,-164.79 438.62,-161.58 441.83,-158.38 445.04,-158.38 445.04,-158.38 488.71,-158.38 488.71,-158.38 491.92,-158.38 495.12,-161.58 495.12,-164.79 495.12,-164.79 495.12,-171.21 495.12,-171.21 495.12,-174.42 491.92,-177.62 488.71,-177.62"/>
<text text-anchor="start" x="446.62" y="-165.07" font-family="Helvetica,sans-Serif" font-size="9.00">Login.tsx</text>
</a>
</g>
</g>
<!-- src/pages/login/index.ts&#45;&gt;src/pages/login/Login.tsx -->
<g id="edge21" class="edge">
<title>src/pages/login/index.ts&#45;&gt;src/pages/login/Login.tsx</title>
<path fill="none" stroke="#000000" stroke-width="2" stroke-opacity="0.200000" d="M413.43,-168C418.52,-168 423.95,-168 429.31,-168"/>
<polygon fill="#000000" fill-opacity="0.200000" stroke="#000000" stroke-width="2" stroke-opacity="0.200000" points="429.19,-170.1 435.19,-168 429.19,-165.9 429.19,-170.1"/>
</g>
<!-- src/pages/settings/Settings.tsx -->
<g id="node21" class="node">
<title>src/pages/settings/Settings.tsx</title>
<g id="a_node21"><a xlink:href="src/pages/settings/Settings.tsx" xlink:title="Settings.tsx">
<path fill="#bbfeff" stroke="black" d="M495.46,-114.62C495.46,-114.62 438.29,-114.62 438.29,-114.62 435.08,-114.62 431.88,-111.42 431.88,-108.21 431.88,-108.21 431.88,-101.79 431.88,-101.79 431.88,-98.58 435.08,-95.38 438.29,-95.38 438.29,-95.38 495.46,-95.38 495.46,-95.38 498.67,-95.38 501.88,-98.58 501.88,-101.79 501.88,-101.79 501.88,-108.21 501.88,-108.21 501.88,-111.42 498.67,-114.62 495.46,-114.62"/>
<text text-anchor="start" x="439.88" y="-102.08" font-family="Helvetica,sans-Serif" font-size="9.00">Settings.tsx</text>
</a>
</g>
</g>
<!-- src/pages/settings/index.ts&#45;&gt;src/pages/settings/Settings.tsx -->
<g id="edge23" class="edge">
<title>src/pages/settings/index.ts&#45;&gt;src/pages/settings/Settings.tsx</title>
<path fill="none" stroke="#000000" stroke-width="2" stroke-opacity="0.200000" d="M413.43,-105C416.43,-105 419.53,-105 422.68,-105"/>
<polygon fill="#000000" fill-opacity="0.200000" stroke="#000000" stroke-width="2" stroke-opacity="0.200000" points="422.56,-107.1 428.56,-105 422.56,-102.9 422.56,-107.1"/>
</g>
<!-- src/pages/users/Users.tsx -->
<g id="node22" class="node">
<title>src/pages/users/Users.tsx</title>
<g id="a_node22"><a xlink:href="src/pages/users/Users.tsx" xlink:title="Users.tsx">
<path fill="#bbfeff" stroke="black" d="M489.08,-51.62C489.08,-51.62 444.67,-51.62 444.67,-51.62 441.46,-51.62 438.25,-48.42 438.25,-45.21 438.25,-45.21 438.25,-38.79 438.25,-38.79 438.25,-35.58 441.46,-32.38 444.67,-32.38 444.67,-32.38 489.08,-32.38 489.08,-32.38 492.29,-32.38 495.5,-35.58 495.5,-38.79 495.5,-38.79 495.5,-45.21 495.5,-45.21 495.5,-48.42 492.29,-51.62 489.08,-51.62"/>
<text text-anchor="start" x="446.25" y="-39.08" font-family="Helvetica,sans-Serif" font-size="9.00">Users.tsx</text>
</a>
</g>
</g>
<!-- src/pages/users/index.ts&#45;&gt;src/pages/users/Users.tsx -->
<g id="edge25" class="edge">
<title>src/pages/users/index.ts&#45;&gt;src/pages/users/Users.tsx</title>
<path fill="none" stroke="#000000" stroke-width="2" stroke-opacity="0.200000" d="M413.43,-42C418.47,-42 423.83,-42 429.13,-42"/>
<polygon fill="#000000" fill-opacity="0.200000" stroke="#000000" stroke-width="2" stroke-opacity="0.200000" points="428.92,-44.1 434.92,-42 428.92,-39.9 428.92,-44.1"/>
</g>
<!-- src/shared/lib/react&#45;router/paths.ts -->
<g id="node23" class="node">
<title>src/shared/lib/react&#45;router/paths.ts</title>
<g id="a_node23"><a xlink:href="src/shared/lib/react-router/paths.ts" xlink:title="paths.ts">
<path fill="#ddfeff" stroke="black" d="M678.08,-436.62C678.08,-436.62 636.92,-436.62 636.92,-436.62 633.71,-436.62 630.5,-433.42 630.5,-430.21 630.5,-430.21 630.5,-423.79 630.5,-423.79 630.5,-420.58 633.71,-417.38 636.92,-417.38 636.92,-417.38 678.08,-417.38 678.08,-417.38 681.29,-417.38 684.5,-420.58 684.5,-423.79 684.5,-423.79 684.5,-430.21 684.5,-430.21 684.5,-433.42 681.29,-436.62 678.08,-436.62"/>
<text text-anchor="start" x="639.12" y="-424.07" font-family="Helvetica,sans-Serif" font-size="9.00">paths.ts</text>
</a>
</g>
</g>
<!-- src/shared/lib/react&#45;router/index.ts&#45;&gt;src/shared/lib/react&#45;router/paths.ts -->
<g id="edge26" class="edge">
<title>src/shared/lib/react&#45;router/index.ts&#45;&gt;src/shared/lib/react&#45;router/paths.ts</title>
<path fill="none" stroke="#000000" stroke-width="2" stroke-opacity="0.200000" d="M609.85,-427C613.62,-427 617.55,-427 621.45,-427"/>
<polygon fill="#000000" fill-opacity="0.200000" stroke="#000000" stroke-width="2" stroke-opacity="0.200000" points="621.43,-429.1 627.43,-427 621.43,-424.9 621.43,-429.1"/>
</g>
<!-- src/shared/ui/index.ts -->
<g id="node14" class="node">
<title>src/shared/ui/index.ts</title>
<g id="a_node14"><a xlink:href="src/shared/ui/index.ts" xlink:title="index.ts">
<path fill="#ddfeff" stroke="black" d="M603.08,-334.62C603.08,-334.62 561.92,-334.62 561.92,-334.62 558.71,-334.62 555.5,-331.42 555.5,-328.21 555.5,-328.21 555.5,-321.79 555.5,-321.79 555.5,-318.58 558.71,-315.38 561.92,-315.38 561.92,-315.38 603.08,-315.38 603.08,-315.38 606.29,-315.38 609.5,-318.58 609.5,-321.79 609.5,-321.79 609.5,-328.21 609.5,-328.21 609.5,-331.42 606.29,-334.62 603.08,-334.62"/>
<text text-anchor="start" x="564.5" y="-322.07" font-family="Helvetica,sans-Serif" font-size="9.00">index.ts</text>
</a>
</g>
</g>
<!-- src/pages/account/Account.tsx&#45;&gt;src/shared/ui/index.ts -->
<g id="edge11" class="edge">
<title>src/pages/account/Account.tsx&#45;&gt;src/shared/ui/index.ts</title>
<path fill="none" stroke="#000000" stroke-width="2" stroke-opacity="0.200000" d="M502.15,-475.17C510.25,-471.77 518.1,-466.92 523.5,-460 538.43,-440.88 523.18,-428.79 531.5,-406 540.27,-381.99 556.69,-357.42 568.32,-341.73"/>
<polygon fill="#000000" fill-opacity="0.200000" stroke="#000000" stroke-width="2" stroke-opacity="0.200000" points="570.64,-342.84 572.59,-336.79 567.29,-340.3 570.64,-342.84"/>
</g>
<!-- src/shared/ui/Heading.tsx -->
<g id="node24" class="node">
<title>src/shared/ui/Heading.tsx</title>
<g id="a_node24"><a xlink:href="src/shared/ui/Heading.tsx" xlink:title="Heading.tsx">
<path fill="#bbfeff" stroke="black" d="M686.08,-334.62C686.08,-334.62 628.92,-334.62 628.92,-334.62 625.71,-334.62 622.5,-331.42 622.5,-328.21 622.5,-328.21 622.5,-321.79 622.5,-321.79 622.5,-318.58 625.71,-315.38 628.92,-315.38 628.92,-315.38 686.08,-315.38 686.08,-315.38 689.29,-315.38 692.5,-318.58 692.5,-321.79 692.5,-321.79 692.5,-328.21 692.5,-328.21 692.5,-331.42 689.29,-334.62 686.08,-334.62"/>
<text text-anchor="start" x="630.5" y="-322.07" font-family="Helvetica,sans-Serif" font-size="9.00">Heading.tsx</text>
</a>
</g>
</g>
<!-- src/shared/ui/index.ts&#45;&gt;src/shared/ui/Heading.tsx -->
<g id="edge27" class="edge">
<title>src/shared/ui/index.ts&#45;&gt;src/shared/ui/Heading.tsx</title>
<path fill="none" stroke="#000000" stroke-width="2" stroke-opacity="0.200000" d="M609.85,-325C610.98,-325 612.12,-325 613.27,-325"/>
<polygon fill="#000000" fill-opacity="0.200000" stroke="#000000" stroke-width="2" stroke-opacity="0.200000" points="613.18,-327.1 619.18,-325 613.18,-322.9 613.18,-327.1"/>
</g>
<!-- src/shared/ui/Row.tsx -->
<g id="node25" class="node">
<title>src/shared/ui/Row.tsx</title>
<g id="a_node25"><a xlink:href="src/shared/ui/Row.tsx" xlink:title="Row.tsx">
<path fill="#bbfeff" stroke="black" d="M678.08,-365.62C678.08,-365.62 636.92,-365.62 636.92,-365.62 633.71,-365.62 630.5,-362.42 630.5,-359.21 630.5,-359.21 630.5,-352.79 630.5,-352.79 630.5,-349.58 633.71,-346.38 636.92,-346.38 636.92,-346.38 678.08,-346.38 678.08,-346.38 681.29,-346.38 684.5,-349.58 684.5,-352.79 684.5,-352.79 684.5,-359.21 684.5,-359.21 684.5,-362.42 681.29,-365.62 678.08,-365.62"/>
<text text-anchor="start" x="640.25" y="-353.07" font-family="Helvetica,sans-Serif" font-size="9.00">Row.tsx</text>
</a>
</g>
</g>
<!-- src/shared/ui/index.ts&#45;&gt;src/shared/ui/Row.tsx -->
<g id="edge28" class="edge">
<title>src/shared/ui/index.ts&#45;&gt;src/shared/ui/Row.tsx</title>
<path fill="none" stroke="#000000" stroke-width="2" stroke-opacity="0.200000" d="M607,-334.98C612.67,-337.39 618.83,-340 624.81,-342.54"/>
<polygon fill="#000000" fill-opacity="0.200000" stroke="#000000" stroke-width="2" stroke-opacity="0.200000" points="624.45,-344.52 630.79,-344.93 626.09,-340.65 624.45,-344.52"/>
</g>
<!-- src/pages/bookings/Bookings.tsx&#45;&gt;src/shared/ui/index.ts -->
<g id="edge13" class="edge">
<title>src/pages/bookings/Bookings.tsx&#45;&gt;src/shared/ui/index.ts</title>
<path fill="none" stroke="#000000" stroke-width="2" stroke-opacity="0.200000" d="M499.95,-409.93C508.07,-406.54 516.47,-402.26 523.5,-397 543.53,-382.01 560.66,-358.59 571.01,-342.56"/>
<polygon fill="#000000" fill-opacity="0.200000" stroke="#000000" stroke-width="2" stroke-opacity="0.200000" points="573.38,-343.13 574.78,-336.93 569.82,-340.91 573.38,-343.13"/>
</g>
<!-- src/pages/cabins/Cabins.tsx&#45;&gt;src/shared/ui/index.ts -->
<g id="edge15" class="edge">
<title>src/pages/cabins/Cabins.tsx&#45;&gt;src/shared/ui/index.ts</title>
<path fill="none" stroke="#000000" stroke-width="2" stroke-opacity="0.200000" d="M498.62,-348.34C513.6,-344.12 531.65,-339.04 547.08,-334.69"/>
<polygon fill="#000000" fill-opacity="0.200000" stroke="#000000" stroke-width="2" stroke-opacity="0.200000" points="548.14,-336.01 553.35,-332.36 547.01,-331.97 548.14,-336.01"/>
</g>
<!-- src/pages/dashboard/Dashboard.tsx&#45;&gt;src/shared/ui/index.ts -->
<g id="edge17" class="edge">
<title>src/pages/dashboard/Dashboard.tsx&#45;&gt;src/shared/ui/index.ts</title>
<path fill="none" stroke="#000000" stroke-width="2" stroke-opacity="0.200000" d="M504.77,-304.06C518.27,-307.75 533.49,-311.9 546.79,-315.53"/>
<polygon fill="#000000" fill-opacity="0.200000" stroke="#000000" stroke-width="2" stroke-opacity="0.200000" points="546.88,-318.28 553.22,-317.83 547.99,-314.23 546.88,-318.28"/>
</g>
<!-- src/pages/error/Error.tsx -->
<g id="node18" class="node">
<title>src/pages/error/Error.tsx</title>
<g id="a_node18"><a xlink:href="src/pages/error/Error.tsx" xlink:title="Error.tsx">
<path fill="#bbfeff" stroke="black" d="M487.58,-240.62C487.58,-240.62 446.17,-240.62 446.17,-240.62 442.96,-240.62 439.75,-237.42 439.75,-234.21 439.75,-234.21 439.75,-227.79 439.75,-227.79 439.75,-224.58 442.96,-221.38 446.17,-221.38 446.17,-221.38 487.58,-221.38 487.58,-221.38 490.79,-221.38 494,-224.58 494,-227.79 494,-227.79 494,-234.21 494,-234.21 494,-237.42 490.79,-240.62 487.58,-240.62"/>
<text text-anchor="start" x="447.75" y="-228.07" font-family="Helvetica,sans-Serif" font-size="9.00">Error.tsx</text>
</a>
</g>
</g>
<!-- src/pages/error/Error.tsx&#45;&gt;src/shared/ui/index.ts -->
<g id="edge19" class="edge">
<title>src/pages/error/Error.tsx&#45;&gt;src/shared/ui/index.ts</title>
<path fill="none" stroke="#000000" stroke-width="2" stroke-opacity="0.200000" d="M481.84,-241.04C493.24,-249.36 509.67,-261.62 523.5,-273 537.68,-284.67 553.14,-298.6 564.53,-309.1"/>
<polygon fill="#000000" fill-opacity="0.200000" stroke="#000000" stroke-width="2" stroke-opacity="0.200000" points="563.22,-310.6 569.05,-313.14 566.07,-307.52 563.22,-310.6"/>
</g>
<!-- src/pages/error/index.ts -->
<g id="node19" class="node">
<title>src/pages/error/index.ts</title>
<g id="a_node19"><a xlink:href="src/pages/error/index.ts" xlink:title="index.ts">
<path fill="#ddfeff" stroke="black" d="M406.83,-240.62C406.83,-240.62 365.67,-240.62 365.67,-240.62 362.46,-240.62 359.25,-237.42 359.25,-234.21 359.25,-234.21 359.25,-227.79 359.25,-227.79 359.25,-224.58 362.46,-221.38 365.67,-221.38 365.67,-221.38 406.83,-221.38 406.83,-221.38 410.04,-221.38 413.25,-224.58 413.25,-227.79 413.25,-227.79 413.25,-234.21 413.25,-234.21 413.25,-237.42 410.04,-240.62 406.83,-240.62"/>
<text text-anchor="start" x="368.25" y="-228.07" font-family="Helvetica,sans-Serif" font-size="9.00">index.ts</text>
</a>
</g>
</g>
<!-- src/pages/error/index.ts&#45;&gt;src/pages/error/Error.tsx -->
<g id="edge20" class="edge">
<title>src/pages/error/index.ts&#45;&gt;src/pages/error/Error.tsx</title>
<path fill="none" stroke="#000000" stroke-width="2" stroke-opacity="0.200000" d="M413.43,-231C418.88,-231 424.72,-231 430.44,-231"/>
<polygon fill="#000000" fill-opacity="0.200000" stroke="#000000" stroke-width="2" stroke-opacity="0.200000" points="430.27,-233.1 436.27,-231 430.27,-228.9 430.27,-233.1"/>
</g>
<!-- src/pages/settings/Settings.tsx&#45;&gt;src/shared/ui/index.ts -->
<g id="edge22" class="edge">
<title>src/pages/settings/Settings.tsx&#45;&gt;src/shared/ui/index.ts</title>
<path fill="none" stroke="#000000" stroke-width="2" stroke-opacity="0.200000" d="M486.52,-115.04C498.62,-122.42 513.87,-133.5 523.5,-147 559.73,-197.79 574.24,-272.49 579.23,-306.69"/>
<polygon fill="#000000" fill-opacity="0.200000" stroke="#000000" stroke-width="2" stroke-opacity="0.200000" points="577.5,-307.55 580.39,-313.21 581.66,-306.98 577.5,-307.55"/>
</g>
<!-- src/pages/users/Users.tsx&#45;&gt;src/shared/ui/index.ts -->
<g id="edge24" class="edge">
<title>src/pages/users/Users.tsx&#45;&gt;src/shared/ui/index.ts</title>
<path fill="none" stroke="#000000" stroke-width="2" stroke-opacity="0.200000" d="M487.41,-52.12C499.57,-59.4 514.55,-70.34 523.5,-84 570.77,-156.13 579.57,-263.01 581.17,-306.04"/>
<polygon fill="#000000" fill-opacity="0.200000" stroke="#000000" stroke-width="2" stroke-opacity="0.200000" points="579.15,-305.95 581.43,-311.88 583.35,-305.82 579.15,-305.95"/>
</g>
</g>
</svg>
