<?xml version="1.0" encoding="UTF-8" standalone="no"?>
<!DOCTYPE svg PUBLIC "-//W3C//DTD SVG 1.1//EN"
 "http://www.w3.org/Graphics/SVG/1.1/DTD/svg11.dtd">
<!-- Generated by graphviz version 8.1.0 (0)
 -->
<!-- Title: dependency&#45;cruiser output Pages: 1 -->
<svg width="1232pt" height="984pt"
 viewBox="0.00 0.00 1231.50 984.00" xmlns="http://www.w3.org/2000/svg" xmlns:xlink="http://www.w3.org/1999/xlink">
<g id="graph0" class="graph" transform="scale(1 1) rotate(0) translate(4 980)">
<title>dependency&#45;cruiser output</title>
<polygon fill="white" stroke="none" points="-4,4 -4,-980 1227.5,-980 1227.5,4 -4,4"/>
<g id="clust1" class="cluster">
<title>cluster_src</title>
<path fill="#ffffff" stroke="black" stroke-width="2" d="M20,-8C20,-8 1203.5,-8 1203.5,-8 1209.5,-8 1215.5,-14 1215.5,-20 1215.5,-20 1215.5,-956 1215.5,-956 1215.5,-962 1209.5,-968 1203.5,-968 1203.5,-968 20,-968 20,-968 14,-968 8,-962 8,-956 8,-956 8,-20 8,-20 8,-14 14,-8 20,-8"/>
<text text-anchor="middle" x="611.75" y="-955.45" font-family="Helvetica,sans-Serif" font-weight="bold" font-size="9.00">src</text>
</g>
<g id="clust2" class="cluster">
<title>cluster_src/app</title>
<path fill="#ffffff" stroke="black" stroke-width="2" d="M61.5,-524C61.5,-524 359.75,-524 359.75,-524 365.75,-524 371.75,-530 371.75,-536 371.75,-536 371.75,-664 371.75,-664 371.75,-670 365.75,-676 359.75,-676 359.75,-676 61.5,-676 61.5,-676 55.5,-676 49.5,-670 49.5,-664 49.5,-664 49.5,-536 49.5,-536 49.5,-530 55.5,-524 61.5,-524"/>
<text text-anchor="middle" x="210.62" y="-663.45" font-family="Helvetica,sans-Serif" font-weight="bold" font-size="9.00">app</text>
</g>
<g id="clust3" class="cluster">
<title>cluster_src/app/providers</title>
<path fill="#ffffff" stroke="black" stroke-width="2" d="M176.25,-532C176.25,-532 351.75,-532 351.75,-532 357.75,-532 363.75,-538 363.75,-544 363.75,-544 363.75,-637 363.75,-637 363.75,-643 357.75,-649 351.75,-649 351.75,-649 176.25,-649 176.25,-649 170.25,-649 164.25,-643 164.25,-637 164.25,-637 164.25,-544 164.25,-544 164.25,-538 170.25,-532 176.25,-532"/>
<text text-anchor="middle" x="264" y="-636.45" font-family="Helvetica,sans-Serif" font-weight="bold" font-size="9.00">providers</text>
</g>
<g id="clust4" class="cluster">
<title>cluster_src/entities</title>
<path fill="#ffffff" stroke="black" stroke-width="2" d="M603.62,-16C603.62,-16 903.88,-16 903.88,-16 909.88,-16 915.88,-22 915.88,-28 915.88,-28 915.88,-250 915.88,-250 915.88,-256 909.88,-262 903.88,-262 903.88,-262 603.62,-262 603.62,-262 597.62,-262 591.62,-256 591.62,-250 591.62,-250 591.62,-28 591.62,-28 591.62,-22 597.62,-16 603.62,-16"/>
<text text-anchor="middle" x="753.75" y="-249.45" font-family="Helvetica,sans-Serif" font-weight="bold" font-size="9.00">entities</text>
</g>
<g id="clust5" class="cluster">
<title>cluster_src/entities/cabin</title>
<path fill="#ffffff" stroke="black" stroke-width="2" d="M611.62,-24C611.62,-24 895.88,-24 895.88,-24 901.88,-24 907.88,-30 907.88,-36 907.88,-36 907.88,-223 907.88,-223 907.88,-229 901.88,-235 895.88,-235 895.88,-235 611.62,-235 611.62,-235 605.62,-235 599.62,-229 599.62,-223 599.62,-223 599.62,-36 599.62,-36 599.62,-30 605.62,-24 611.62,-24"/>
<text text-anchor="middle" x="753.75" y="-222.45" font-family="Helvetica,sans-Serif" font-weight="bold" font-size="9.00">cabin</text>
</g>
<g id="clust6" class="cluster">
<title>cluster_src/entities/cabin/ui</title>
<path fill="#ffffff" stroke="black" stroke-width="2" d="M696.75,-60C696.75,-60 887.88,-60 887.88,-60 893.88,-60 899.88,-66 899.88,-72 899.88,-72 899.88,-196 899.88,-196 899.88,-202 893.88,-208 887.88,-208 887.88,-208 696.75,-208 696.75,-208 690.75,-208 684.75,-202 684.75,-196 684.75,-196 684.75,-72 684.75,-72 684.75,-66 690.75,-60 696.75,-60"/>
<text text-anchor="middle" x="792.31" y="-195.45" font-family="Helvetica,sans-Serif" font-weight="bold" font-size="9.00">ui</text>
</g>
<g id="clust7" class="cluster">
<title>cluster_src/features</title>
<path fill="#ffffff" stroke="black" stroke-width="2" d="M28,-221C28,-221 144.25,-221 144.25,-221 150.25,-221 156.25,-227 156.25,-233 156.25,-233 156.25,-299 156.25,-299 156.25,-305 150.25,-311 144.25,-311 144.25,-311 28,-311 28,-311 22,-311 16,-305 16,-299 16,-299 16,-233 16,-233 16,-227 22,-221 28,-221"/>
<text text-anchor="middle" x="86.12" y="-298.45" font-family="Helvetica,sans-Serif" font-weight="bold" font-size="9.00">features</text>
</g>
<g id="clust8" class="cluster">
<title>cluster_src/features/cabins</title>
<path fill="#ffffff" stroke="black" stroke-width="2" d="M36,-229C36,-229 136.25,-229 136.25,-229 142.25,-229 148.25,-235 148.25,-241 148.25,-241 148.25,-272 148.25,-272 148.25,-278 142.25,-284 136.25,-284 136.25,-284 36,-284 36,-284 30,-284 24,-278 24,-272 24,-272 24,-241 24,-241 24,-235 30,-229 36,-229"/>
<text text-anchor="middle" x="86.12" y="-271.45" font-family="Helvetica,sans-Serif" font-weight="bold" font-size="9.00">cabins</text>
</g>
<g id="clust9" class="cluster">
<title>cluster_src/pages</title>
<path fill="#ffffff" stroke="black" stroke-width="2" d="M391.75,-209C391.75,-209 564.5,-209 564.5,-209 570.5,-209 576.5,-215 576.5,-221 576.5,-221 576.5,-791 576.5,-791 576.5,-797 570.5,-803 564.5,-803 564.5,-803 391.75,-803 391.75,-803 385.75,-803 379.75,-797 379.75,-791 379.75,-791 379.75,-221 379.75,-221 379.75,-215 385.75,-209 391.75,-209"/>
<text text-anchor="middle" x="478.12" y="-790.45" font-family="Helvetica,sans-Serif" font-weight="bold" font-size="9.00">pages</text>
</g>
<g id="clust10" class="cluster">
<title>cluster_src/pages/account</title>
<path fill="#ffffff" stroke="black" stroke-width="2" d="M399.75,-721C399.75,-721 542.62,-721 542.62,-721 548.62,-721 554.62,-727 554.62,-733 554.62,-733 554.62,-764 554.62,-764 554.62,-770 548.62,-776 542.62,-776 542.62,-776 399.75,-776 399.75,-776 393.75,-776 387.75,-770 387.75,-764 387.75,-764 387.75,-733 387.75,-733 387.75,-727 393.75,-721 399.75,-721"/>
<text text-anchor="middle" x="471.19" y="-763.45" font-family="Helvetica,sans-Serif" font-weight="bold" font-size="9.00">account</text>
</g>
<g id="clust11" class="cluster">
<title>cluster_src/pages/bookings</title>
<path fill="#ffffff" stroke="black" stroke-width="2" d="M399.75,-658C399.75,-658 544.12,-658 544.12,-658 550.12,-658 556.12,-664 556.12,-670 556.12,-670 556.12,-701 556.12,-701 556.12,-707 550.12,-713 544.12,-713 544.12,-713 399.75,-713 399.75,-713 393.75,-713 387.75,-707 387.75,-701 387.75,-701 387.75,-670 387.75,-670 387.75,-664 393.75,-658 399.75,-658"/>
<text text-anchor="middle" x="471.94" y="-700.45" font-family="Helvetica,sans-Serif" font-weight="bold" font-size="9.00">bookings</text>
</g>
<g id="clust12" class="cluster">
<title>cluster_src/pages/cabins</title>
<path fill="#ffffff" stroke="black" stroke-width="2" d="M399.75,-595C399.75,-595 538.88,-595 538.88,-595 544.88,-595 550.88,-601 550.88,-607 550.88,-607 550.88,-638 550.88,-638 550.88,-644 544.88,-650 538.88,-650 538.88,-650 399.75,-650 399.75,-650 393.75,-650 387.75,-644 387.75,-638 387.75,-638 387.75,-607 387.75,-607 387.75,-601 393.75,-595 399.75,-595"/>
<text text-anchor="middle" x="469.31" y="-637.45" font-family="Helvetica,sans-Serif" font-weight="bold" font-size="9.00">cabins</text>
</g>
<g id="clust13" class="cluster">
<title>cluster_src/pages/dashboard</title>
<path fill="#ffffff" stroke="black" stroke-width="2" d="M399.75,-532C399.75,-532 548.25,-532 548.25,-532 554.25,-532 560.25,-538 560.25,-544 560.25,-544 560.25,-575 560.25,-575 560.25,-581 554.25,-587 548.25,-587 548.25,-587 399.75,-587 399.75,-587 393.75,-587 387.75,-581 387.75,-575 387.75,-575 387.75,-544 387.75,-544 387.75,-538 393.75,-532 399.75,-532"/>
<text text-anchor="middle" x="474" y="-574.45" font-family="Helvetica,sans-Serif" font-weight="bold" font-size="9.00">dashboard</text>
</g>
<g id="clust14" class="cluster">
<title>cluster_src/pages/error</title>
<path fill="#ffffff" stroke="black" stroke-width="2" d="M399.75,-469C399.75,-469 534.75,-469 534.75,-469 540.75,-469 546.75,-475 546.75,-481 546.75,-481 546.75,-512 546.75,-512 546.75,-518 540.75,-524 534.75,-524 534.75,-524 399.75,-524 399.75,-524 393.75,-524 387.75,-518 387.75,-512 387.75,-512 387.75,-481 387.75,-481 387.75,-475 393.75,-469 399.75,-469"/>
<text text-anchor="middle" x="467.25" y="-511.45" font-family="Helvetica,sans-Serif" font-weight="bold" font-size="9.00">error</text>
</g>
<g id="clust15" class="cluster">
<title>cluster_src/pages/layouts</title>
<path fill="#ffffff" stroke="black" stroke-width="2" d="M399.75,-406C399.75,-406 556.5,-406 556.5,-406 562.5,-406 568.5,-412 568.5,-418 568.5,-418 568.5,-449 568.5,-449 568.5,-455 562.5,-461 556.5,-461 556.5,-461 399.75,-461 399.75,-461 393.75,-461 387.75,-455 387.75,-449 387.75,-449 387.75,-418 387.75,-418 387.75,-412 393.75,-406 399.75,-406"/>
<text text-anchor="middle" x="478.12" y="-448.45" font-family="Helvetica,sans-Serif" font-weight="bold" font-size="9.00">layouts</text>
</g>
<g id="clust16" class="cluster">
<title>cluster_src/pages/login</title>
<path fill="#ffffff" stroke="black" stroke-width="2" d="M399.75,-343C399.75,-343 535.88,-343 535.88,-343 541.88,-343 547.88,-349 547.88,-355 547.88,-355 547.88,-386 547.88,-386 547.88,-392 541.88,-398 535.88,-398 535.88,-398 399.75,-398 399.75,-398 393.75,-398 387.75,-392 387.75,-386 387.75,-386 387.75,-355 387.75,-355 387.75,-349 393.75,-343 399.75,-343"/>
<text text-anchor="middle" x="467.81" y="-385.45" font-family="Helvetica,sans-Serif" font-weight="bold" font-size="9.00">login</text>
</g>
<g id="clust17" class="cluster">
<title>cluster_src/pages/settings</title>
<path fill="#ffffff" stroke="black" stroke-width="2" d="M399.75,-217C399.75,-217 542.62,-217 542.62,-217 548.62,-217 554.62,-223 554.62,-229 554.62,-229 554.62,-260 554.62,-260 554.62,-266 548.62,-272 542.62,-272 542.62,-272 399.75,-272 399.75,-272 393.75,-272 387.75,-266 387.75,-260 387.75,-260 387.75,-229 387.75,-229 387.75,-223 393.75,-217 399.75,-217"/>
<text text-anchor="middle" x="471.19" y="-259.45" font-family="Helvetica,sans-Serif" font-weight="bold" font-size="9.00">settings</text>
</g>
<g id="clust18" class="cluster">
<title>cluster_src/pages/users</title>
<path fill="#ffffff" stroke="black" stroke-width="2" d="M399.75,-280C399.75,-280 536.25,-280 536.25,-280 542.25,-280 548.25,-286 548.25,-292 548.25,-292 548.25,-323 548.25,-323 548.25,-329 542.25,-335 536.25,-335 536.25,-335 399.75,-335 399.75,-335 393.75,-335 387.75,-329 387.75,-323 387.75,-323 387.75,-292 387.75,-292 387.75,-286 393.75,-280 399.75,-280"/>
<text text-anchor="middle" x="468" y="-322.45" font-family="Helvetica,sans-Serif" font-weight="bold" font-size="9.00">users</text>
</g>
<g id="clust19" class="cluster">
<title>cluster_src/shared</title>
<path fill="#ffffff" stroke="black" stroke-width="2" d="M803.62,-270C803.62,-270 1195.5,-270 1195.5,-270 1201.5,-270 1207.5,-276 1207.5,-282 1207.5,-282 1207.5,-929 1207.5,-929 1207.5,-935 1201.5,-941 1195.5,-941 1195.5,-941 803.62,-941 803.62,-941 797.62,-941 791.62,-935 791.62,-929 791.62,-929 791.62,-282 791.62,-282 791.62,-276 797.62,-270 803.62,-270"/>
<text text-anchor="middle" x="999.56" y="-928.45" font-family="Helvetica,sans-Serif" font-weight="bold" font-size="9.00">shared</text>
</g>
<g id="clust20" class="cluster">
<title>cluster_src/shared/api</title>
<path fill="#ffffff" stroke="black" stroke-width="2" d="M819.62,-698C819.62,-698 1187.5,-698 1187.5,-698 1193.5,-698 1199.5,-704 1199.5,-710 1199.5,-710 1199.5,-741 1199.5,-741 1199.5,-747 1193.5,-753 1187.5,-753 1187.5,-753 819.62,-753 819.62,-753 813.62,-753 807.62,-747 807.62,-741 807.62,-741 807.62,-710 807.62,-710 807.62,-704 813.62,-698 819.62,-698"/>
<text text-anchor="middle" x="1003.56" y="-740.45" font-family="Helvetica,sans-Serif" font-weight="bold" font-size="9.00">api</text>
</g>
<g id="clust21" class="cluster">
<title>cluster_src/shared/lib</title>
<path fill="#ffffff" stroke="black" stroke-width="2" d="M811.62,-761C811.62,-761 1017,-761 1017,-761 1023,-761 1029,-767 1029,-773 1029,-773 1029,-902 1029,-902 1029,-908 1023,-914 1017,-914 1017,-914 811.62,-914 811.62,-914 805.62,-914 799.62,-908 799.62,-902 799.62,-902 799.62,-773 799.62,-773 799.62,-767 805.62,-761 811.62,-761"/>
<text text-anchor="middle" x="914.31" y="-901.45" font-family="Helvetica,sans-Serif" font-weight="bold" font-size="9.00">lib</text>
</g>
<g id="clust22" class="cluster">
<title>cluster_src/shared/lib/react&#45;query</title>
<path fill="#ffffff" stroke="black" stroke-width="2" d="M819.62,-832C819.62,-832 1009,-832 1009,-832 1015,-832 1021,-838 1021,-844 1021,-844 1021,-875 1021,-875 1021,-881 1015,-887 1009,-887 1009,-887 819.62,-887 819.62,-887 813.62,-887 807.62,-881 807.62,-875 807.62,-875 807.62,-844 807.62,-844 807.62,-838 813.62,-832 819.62,-832"/>
<text text-anchor="middle" x="914.31" y="-874.45" font-family="Helvetica,sans-Serif" font-weight="bold" font-size="9.00">react&#45;query</text>
</g>
<g id="clust23" class="cluster">
<title>cluster_src/shared/lib/react&#45;router</title>
<path fill="#ffffff" stroke="black" stroke-width="2" d="M819.62,-769C819.62,-769 996.5,-769 996.5,-769 1002.5,-769 1008.5,-775 1008.5,-781 1008.5,-781 1008.5,-812 1008.5,-812 1008.5,-818 1002.5,-824 996.5,-824 996.5,-824 819.62,-824 819.62,-824 813.62,-824 807.62,-818 807.62,-812 807.62,-812 807.62,-781 807.62,-781 807.62,-775 813.62,-769 819.62,-769"/>
<text text-anchor="middle" x="908.06" y="-811.45" font-family="Helvetica,sans-Serif" font-weight="bold" font-size="9.00">react&#45;router</text>
</g>
<g id="clust24" class="cluster">
<title>cluster_src/shared/ui</title>
<path fill="#ffffff" stroke="black" stroke-width="2" d="M819.62,-341C819.62,-341 1106,-341 1106,-341 1112,-341 1118,-347 1118,-353 1118,-353 1118,-678 1118,-678 1118,-684 1112,-690 1106,-690 1106,-690 819.62,-690 819.62,-690 813.62,-690 807.62,-684 807.62,-678 807.62,-678 807.62,-353 807.62,-353 807.62,-347 813.62,-341 819.62,-341"/>
<text text-anchor="middle" x="962.81" y="-677.45" font-family="Helvetica,sans-Serif" font-weight="bold" font-size="9.00">ui</text>
</g>
<g id="clust25" class="cluster">
<title>cluster_src/shared/utils</title>
<path fill="#ffffff" stroke="black" stroke-width="2" d="M819.62,-278C819.62,-278 1002.62,-278 1002.62,-278 1008.62,-278 1014.62,-284 1014.62,-290 1014.62,-290 1014.62,-321 1014.62,-321 1014.62,-327 1008.62,-333 1002.62,-333 1002.62,-333 819.62,-333 819.62,-333 813.62,-333 807.62,-327 807.62,-321 807.62,-321 807.62,-290 807.62,-290 807.62,-284 813.62,-278 819.62,-278"/>
<text text-anchor="middle" x="911.12" y="-320.45" font-family="Helvetica,sans-Serif" font-weight="bold" font-size="9.00">utils</text>
</g>
<g id="clust26" class="cluster">
<title>cluster_src/widgets</title>
<path fill="#ffffff" stroke="black" stroke-width="2" d="M596.5,-343C596.5,-343 771.62,-343 771.62,-343 777.62,-343 783.62,-349 783.62,-355 783.62,-355 783.62,-449 783.62,-449 783.62,-455 777.62,-461 771.62,-461 771.62,-461 596.5,-461 596.5,-461 590.5,-461 584.5,-455 584.5,-449 584.5,-449 584.5,-355 584.5,-355 584.5,-349 590.5,-343 596.5,-343"/>
<text text-anchor="middle" x="684.06" y="-448.45" font-family="Helvetica,sans-Serif" font-weight="bold" font-size="9.00">widgets</text>
</g>
<g id="clust27" class="cluster">
<title>cluster_src/widgets/CabinList</title>
<path fill="#ffffff" stroke="black" stroke-width="2" d="M611.62,-351C611.62,-351 763.62,-351 763.62,-351 769.62,-351 775.62,-357 775.62,-363 775.62,-363 775.62,-394 775.62,-394 775.62,-400 769.62,-406 763.62,-406 763.62,-406 611.62,-406 611.62,-406 605.62,-406 599.62,-400 599.62,-394 599.62,-394 599.62,-363 599.62,-363 599.62,-357 605.62,-351 611.62,-351"/>
<text text-anchor="middle" x="687.62" y="-393.45" font-family="Helvetica,sans-Serif" font-weight="bold" font-size="9.00">CabinList</text>
</g>
<!-- src/app/index.tsx -->
<g id="node1" class="node">
<title>src/app/index.tsx</title>
<g id="a_node1"><a xlink:href="src/app/index.tsx" xlink:title="index.tsx">
<path fill="#bbfeff" stroke="black" d="M108.33,-590.62C108.33,-590.62 63.92,-590.62 63.92,-590.62 60.71,-590.62 57.5,-587.42 57.5,-584.21 57.5,-584.21 57.5,-577.79 57.5,-577.79 57.5,-574.58 60.71,-571.38 63.92,-571.38 63.92,-571.38 108.33,-571.38 108.33,-571.38 111.54,-571.38 114.75,-574.58 114.75,-577.79 114.75,-577.79 114.75,-584.21 114.75,-584.21 114.75,-587.42 111.54,-590.62 108.33,-590.62"/>
<text text-anchor="start" x="65.5" y="-578.08" font-family="Helvetica,sans-Serif" font-size="9.00">index.tsx</text>
</a>
</g>
</g>
<!-- src/app/providers/index.ts -->
<g id="node2" class="node">
<title>src/app/providers/index.ts</title>
<g id="a_node2"><a xlink:href="src/app/providers/index.ts" xlink:title="index.ts">
<path fill="#ddfeff" stroke="black" d="M219.83,-590.62C219.83,-590.62 178.67,-590.62 178.67,-590.62 175.46,-590.62 172.25,-587.42 172.25,-584.21 172.25,-584.21 172.25,-577.79 172.25,-577.79 172.25,-574.58 175.46,-571.38 178.67,-571.38 178.67,-571.38 219.83,-571.38 219.83,-571.38 223.04,-571.38 226.25,-574.58 226.25,-577.79 226.25,-577.79 226.25,-584.21 226.25,-584.21 226.25,-587.42 223.04,-590.62 219.83,-590.62"/>
<text text-anchor="start" x="181.25" y="-578.08" font-family="Helvetica,sans-Serif" font-size="9.00">index.ts</text>
</a>
</g>
</g>
<!-- src/app/index.tsx&#45;&gt;src/app/providers/index.ts -->
<g id="edge1" class="edge">
<title>src/app/index.tsx&#45;&gt;src/app/providers/index.ts</title>
<path fill="none" stroke="#000000" stroke-width="2" stroke-opacity="0.200000" d="M115.17,-581C129.79,-581 147.81,-581 163.32,-581"/>
<polygon fill="#000000" fill-opacity="0.200000" stroke="#000000" stroke-width="2" stroke-opacity="0.200000" points="163.13,-583.1 169.13,-581 163.13,-578.9 163.13,-583.1"/>
</g>
<!-- src/app/providers/AppQueryProvider.tsx -->
<g id="node3" class="node">
<title>src/app/providers/AppQueryProvider.tsx</title>
<g id="a_node3"><a xlink:href="src/app/providers/AppQueryProvider.tsx" xlink:title="AppQueryProvider.tsx">
<path fill="#bbfeff" stroke="black" d="M347.83,-590.62C347.83,-590.62 247.17,-590.62 247.17,-590.62 243.96,-590.62 240.75,-587.42 240.75,-584.21 240.75,-584.21 240.75,-577.79 240.75,-577.79 240.75,-574.58 243.96,-571.38 247.17,-571.38 247.17,-571.38 347.83,-571.38 347.83,-571.38 351.04,-571.38 354.25,-574.58 354.25,-577.79 354.25,-577.79 354.25,-584.21 354.25,-584.21 354.25,-587.42 351.04,-590.62 347.83,-590.62"/>
<text text-anchor="start" x="248.75" y="-578.08" font-family="Helvetica,sans-Serif" font-size="9.00">AppQueryProvider.tsx</text>
</a>
</g>
</g>
<!-- src/app/providers/index.ts&#45;&gt;src/app/providers/AppQueryProvider.tsx -->
<g id="edge13" class="edge">
<title>src/app/providers/index.ts&#45;&gt;src/app/providers/AppQueryProvider.tsx</title>
<path fill="none" stroke="#000000" stroke-width="2" stroke-opacity="0.200000" d="M226.55,-581C228.18,-581 229.85,-581 231.55,-581"/>
<polygon fill="#000000" fill-opacity="0.200000" stroke="#000000" stroke-width="2" stroke-opacity="0.200000" points="231.28,-583.1 237.28,-581 231.28,-578.9 231.28,-583.1"/>
</g>
<!-- src/app/providers/AppRouterProvider.tsx -->
<g id="node5" class="node">
<title>src/app/providers/AppRouterProvider.tsx</title>
<g id="a_node5"><a xlink:href="src/app/providers/AppRouterProvider.tsx" xlink:title="AppRouterProvider.tsx">
<path fill="#bbfeff" stroke="black" d="M349.33,-559.62C349.33,-559.62 245.67,-559.62 245.67,-559.62 242.46,-559.62 239.25,-556.42 239.25,-553.21 239.25,-553.21 239.25,-546.79 239.25,-546.79 239.25,-543.58 242.46,-540.38 245.67,-540.38 245.67,-540.38 349.33,-540.38 349.33,-540.38 352.54,-540.38 355.75,-543.58 355.75,-546.79 355.75,-546.79 355.75,-553.21 355.75,-553.21 355.75,-556.42 352.54,-559.62 349.33,-559.62"/>
<text text-anchor="start" x="247.25" y="-547.08" font-family="Helvetica,sans-Serif" font-size="9.00">AppRouterProvider.tsx</text>
</a>
</g>
</g>
<!-- src/app/providers/index.ts&#45;&gt;src/app/providers/AppRouterProvider.tsx -->
<g id="edge14" class="edge">
<title>src/app/providers/index.ts&#45;&gt;src/app/providers/AppRouterProvider.tsx</title>
<path fill="none" stroke="#000000" stroke-width="2" stroke-opacity="0.200000" d="M223.16,-571.01C228.4,-568.89 233.98,-566.76 239.25,-565 241.75,-564.16 244.33,-563.34 246.94,-562.55"/>
<polygon fill="#000000" fill-opacity="0.200000" stroke="#000000" stroke-width="2" stroke-opacity="0.200000" points="248.17,-563.78 253.34,-560.08 246.99,-559.75 248.17,-563.78"/>
</g>
<!-- src/app/providers/AppStyleProvider.tsx -->
<g id="node16" class="node">
<title>src/app/providers/AppStyleProvider.tsx</title>
<g id="a_node16"><a xlink:href="src/app/providers/AppStyleProvider.tsx" xlink:title="AppStyleProvider.tsx">
<path fill="#bbfeff" stroke="black" d="M345.58,-621.62C345.58,-621.62 249.42,-621.62 249.42,-621.62 246.21,-621.62 243,-618.42 243,-615.21 243,-615.21 243,-608.79 243,-608.79 243,-605.58 246.21,-602.38 249.42,-602.38 249.42,-602.38 345.58,-602.38 345.58,-602.38 348.79,-602.38 352,-605.58 352,-608.79 352,-608.79 352,-615.21 352,-615.21 352,-618.42 348.79,-621.62 345.58,-621.62"/>
<text text-anchor="start" x="251" y="-609.08" font-family="Helvetica,sans-Serif" font-size="9.00">AppStyleProvider.tsx</text>
</a>
</g>
</g>
<!-- src/app/providers/index.ts&#45;&gt;src/app/providers/AppStyleProvider.tsx -->
<g id="edge15" class="edge">
<title>src/app/providers/index.ts&#45;&gt;src/app/providers/AppStyleProvider.tsx</title>
<path fill="none" stroke="#000000" stroke-width="2" stroke-opacity="0.200000" d="M223.16,-590.99C228.4,-593.11 233.98,-595.24 239.25,-597 241.75,-597.84 244.33,-598.66 246.94,-599.45"/>
<polygon fill="#000000" fill-opacity="0.200000" stroke="#000000" stroke-width="2" stroke-opacity="0.200000" points="246.99,-602.25 253.34,-601.92 248.17,-598.22 246.99,-602.25"/>
</g>
<!-- src/shared/lib/react&#45;query/index.ts -->
<g id="node4" class="node">
<title>src/shared/lib/react&#45;query/index.ts</title>
<g id="a_node4"><a xlink:href="src/shared/lib/react-query/index.ts" xlink:title="index.ts">
<path fill="#ddfeff" stroke="black" d="M863.21,-859.62C863.21,-859.62 822.04,-859.62 822.04,-859.62 818.83,-859.62 815.62,-856.42 815.62,-853.21 815.62,-853.21 815.62,-846.79 815.62,-846.79 815.62,-843.58 818.83,-840.38 822.04,-840.38 822.04,-840.38 863.21,-840.38 863.21,-840.38 866.42,-840.38 869.62,-843.58 869.62,-846.79 869.62,-846.79 869.62,-853.21 869.62,-853.21 869.62,-856.42 866.42,-859.62 863.21,-859.62"/>
<text text-anchor="start" x="824.62" y="-847.08" font-family="Helvetica,sans-Serif" font-size="9.00">index.ts</text>
</a>
</g>
</g>
<!-- src/app/providers/AppQueryProvider.tsx&#45;&gt;src/shared/lib/react&#45;query/index.ts -->
<g id="edge2" class="edge">
<title>src/app/providers/AppQueryProvider.tsx&#45;&gt;src/shared/lib/react&#45;query/index.ts</title>
<path fill="none" stroke="#000000" stroke-width="2" stroke-opacity="0.200000" d="M354.51,-584.16C361.11,-586.76 367.13,-590.56 371.75,-596 386.43,-613.29 365.78,-782.13 379.75,-800 417.06,-847.71 450.06,-838 510.62,-838 510.62,-838 510.62,-838 635.62,-838 695.74,-838 765.56,-843.16 806.53,-846.71"/>
<polygon fill="#000000" fill-opacity="0.200000" stroke="#000000" stroke-width="2" stroke-opacity="0.200000" points="806.15,-849.05 812.31,-847.48 806.52,-844.86 806.15,-849.05"/>
</g>
<!-- src/shared/lib/react&#45;query/queryClient.ts -->
<g id="node42" class="node">
<title>src/shared/lib/react&#45;query/queryClient.ts</title>
<g id="a_node42"><a xlink:href="src/shared/lib/react-query/queryClient.ts" xlink:title="queryClient.ts">
<path fill="#ddfeff" stroke="black" d="M1006.58,-859.62C1006.58,-859.62 940.42,-859.62 940.42,-859.62 937.21,-859.62 934,-856.42 934,-853.21 934,-853.21 934,-846.79 934,-846.79 934,-843.58 937.21,-840.38 940.42,-840.38 940.42,-840.38 1006.58,-840.38 1006.58,-840.38 1009.79,-840.38 1013,-843.58 1013,-846.79 1013,-846.79 1013,-853.21 1013,-853.21 1013,-856.42 1009.79,-859.62 1006.58,-859.62"/>
<text text-anchor="start" x="942" y="-847.08" font-family="Helvetica,sans-Serif" font-size="9.00">queryClient.ts</text>
</a>
</g>
</g>
<!-- src/shared/lib/react&#45;query/index.ts&#45;&gt;src/shared/lib/react&#45;query/queryClient.ts -->
<g id="edge48" class="edge">
<title>src/shared/lib/react&#45;query/index.ts&#45;&gt;src/shared/lib/react&#45;query/queryClient.ts</title>
<path fill="none" stroke="#000000" stroke-width="2" stroke-opacity="0.200000" d="M870.02,-850C885.84,-850 906.43,-850 925,-850"/>
<polygon fill="#000000" fill-opacity="0.200000" stroke="#000000" stroke-width="2" stroke-opacity="0.200000" points="924.92,-852.1 930.92,-850 924.92,-847.9 924.92,-852.1"/>
</g>
<!-- src/pages/account/index.ts -->
<g id="node6" class="node">
<title>src/pages/account/index.ts</title>
<g id="a_node6"><a xlink:href="src/pages/account/index.ts" xlink:title="index.ts">
<path fill="#ddfeff" stroke="black" d="M443.33,-748.62C443.33,-748.62 402.17,-748.62 402.17,-748.62 398.96,-748.62 395.75,-745.42 395.75,-742.21 395.75,-742.21 395.75,-735.79 395.75,-735.79 395.75,-732.58 398.96,-729.38 402.17,-729.38 402.17,-729.38 443.33,-729.38 443.33,-729.38 446.54,-729.38 449.75,-732.58 449.75,-735.79 449.75,-735.79 449.75,-742.21 449.75,-742.21 449.75,-745.42 446.54,-748.62 443.33,-748.62"/>
<text text-anchor="start" x="404.75" y="-736.08" font-family="Helvetica,sans-Serif" font-size="9.00">index.ts</text>
</a>
</g>
</g>
<!-- src/app/providers/AppRouterProvider.tsx&#45;&gt;src/pages/account/index.ts -->
<g id="edge3" class="edge">
<title>src/app/providers/AppRouterProvider.tsx&#45;&gt;src/pages/account/index.ts</title>
<path fill="none" stroke="#000000" stroke-width="2" stroke-dasharray="5,2" stroke-opacity="0.200000" d="M356.23,-553.95C362.14,-556.51 367.52,-560.08 371.75,-565 382.71,-577.73 370.81,-701.78 379.75,-716 381.9,-719.42 384.74,-722.37 387.94,-724.9"/>
<polygon fill="#000000" fill-opacity="0.200000" stroke="#000000" stroke-width="2" stroke-opacity="0.200000" points="387.22,-727.26 393.38,-728.81 389.53,-723.75 387.22,-727.26"/>
</g>
<!-- src/pages/bookings/index.ts -->
<g id="node7" class="node">
<title>src/pages/bookings/index.ts</title>
<g id="a_node7"><a xlink:href="src/pages/bookings/index.ts" xlink:title="index.ts">
<path fill="#ddfeff" stroke="black" d="M443.33,-685.62C443.33,-685.62 402.17,-685.62 402.17,-685.62 398.96,-685.62 395.75,-682.42 395.75,-679.21 395.75,-679.21 395.75,-672.79 395.75,-672.79 395.75,-669.58 398.96,-666.38 402.17,-666.38 402.17,-666.38 443.33,-666.38 443.33,-666.38 446.54,-666.38 449.75,-669.58 449.75,-672.79 449.75,-672.79 449.75,-679.21 449.75,-679.21 449.75,-682.42 446.54,-685.62 443.33,-685.62"/>
<text text-anchor="start" x="404.75" y="-673.08" font-family="Helvetica,sans-Serif" font-size="9.00">index.ts</text>
</a>
</g>
</g>
<!-- src/app/providers/AppRouterProvider.tsx&#45;&gt;src/pages/bookings/index.ts -->
<g id="edge4" class="edge">
<title>src/app/providers/AppRouterProvider.tsx&#45;&gt;src/pages/bookings/index.ts</title>
<path fill="none" stroke="#000000" stroke-width="2" stroke-dasharray="5,2" stroke-opacity="0.200000" d="M356.05,-554.11C361.99,-556.64 367.42,-560.16 371.75,-565 384.84,-579.64 368.99,-636.58 379.75,-653 381.96,-656.38 384.85,-659.3 388.07,-661.82"/>
<polygon fill="#000000" fill-opacity="0.200000" stroke="#000000" stroke-width="2" stroke-opacity="0.200000" points="387.36,-664.18 393.53,-665.71 389.67,-660.67 387.36,-664.18"/>
</g>
<!-- src/pages/cabins/index.ts -->
<g id="node8" class="node">
<title>src/pages/cabins/index.ts</title>
<g id="a_node8"><a xlink:href="src/pages/cabins/index.ts" xlink:title="index.ts">
<path fill="#ddfeff" stroke="black" d="M443.33,-622.62C443.33,-622.62 402.17,-622.62 402.17,-622.62 398.96,-622.62 395.75,-619.42 395.75,-616.21 395.75,-616.21 395.75,-609.79 395.75,-609.79 395.75,-606.58 398.96,-603.38 402.17,-603.38 402.17,-603.38 443.33,-603.38 443.33,-603.38 446.54,-603.38 449.75,-606.58 449.75,-609.79 449.75,-609.79 449.75,-616.21 449.75,-616.21 449.75,-619.42 446.54,-622.62 443.33,-622.62"/>
<text text-anchor="start" x="404.75" y="-610.08" font-family="Helvetica,sans-Serif" font-size="9.00">index.ts</text>
</a>
</g>
</g>
<!-- src/app/providers/AppRouterProvider.tsx&#45;&gt;src/pages/cabins/index.ts -->
<g id="edge5" class="edge">
<title>src/app/providers/AppRouterProvider.tsx&#45;&gt;src/pages/cabins/index.ts</title>
<path fill="none" stroke="#000000" stroke-width="2" stroke-dasharray="5,2" stroke-opacity="0.200000" d="M356.17,-555.52C361.87,-557.84 367.21,-560.92 371.75,-565 380.43,-572.79 372.33,-581 379.75,-590 382.32,-593.11 385.42,-595.87 388.77,-598.3"/>
<polygon fill="#000000" fill-opacity="0.200000" stroke="#000000" stroke-width="2" stroke-opacity="0.200000" points="388.17,-600.67 394.37,-602.1 390.41,-597.12 388.17,-600.67"/>
</g>
<!-- src/pages/dashboard/index.ts -->
<g id="node9" class="node">
<title>src/pages/dashboard/index.ts</title>
<g id="a_node9"><a xlink:href="src/pages/dashboard/index.ts" xlink:title="index.ts">
<path fill="#ddfeff" stroke="black" d="M443.33,-559.62C443.33,-559.62 402.17,-559.62 402.17,-559.62 398.96,-559.62 395.75,-556.42 395.75,-553.21 395.75,-553.21 395.75,-546.79 395.75,-546.79 395.75,-543.58 398.96,-540.38 402.17,-540.38 402.17,-540.38 443.33,-540.38 443.33,-540.38 446.54,-540.38 449.75,-543.58 449.75,-546.79 449.75,-546.79 449.75,-553.21 449.75,-553.21 449.75,-556.42 446.54,-559.62 443.33,-559.62"/>
<text text-anchor="start" x="404.75" y="-547.08" font-family="Helvetica,sans-Serif" font-size="9.00">index.ts</text>
</a>
</g>
</g>
<!-- src/app/providers/AppRouterProvider.tsx&#45;&gt;src/pages/dashboard/index.ts -->
<g id="edge6" class="edge">
<title>src/app/providers/AppRouterProvider.tsx&#45;&gt;src/pages/dashboard/index.ts</title>
<path fill="none" stroke="#000000" stroke-width="2" stroke-dasharray="5,2" stroke-opacity="0.200000" d="M356.16,-550C366.6,-550 377.2,-550 386.74,-550"/>
<polygon fill="#000000" fill-opacity="0.200000" stroke="#000000" stroke-width="2" stroke-opacity="0.200000" points="386.53,-552.1 392.53,-550 386.53,-547.9 386.53,-552.1"/>
</g>
<!-- src/pages/error/index.ts -->
<g id="node10" class="node">
<title>src/pages/error/index.ts</title>
<g id="a_node10"><a xlink:href="src/pages/error/index.ts" xlink:title="index.ts">
<path fill="#ddfeff" stroke="black" d="M443.33,-496.62C443.33,-496.62 402.17,-496.62 402.17,-496.62 398.96,-496.62 395.75,-493.42 395.75,-490.21 395.75,-490.21 395.75,-483.79 395.75,-483.79 395.75,-480.58 398.96,-477.38 402.17,-477.38 402.17,-477.38 443.33,-477.38 443.33,-477.38 446.54,-477.38 449.75,-480.58 449.75,-483.79 449.75,-483.79 449.75,-490.21 449.75,-490.21 449.75,-493.42 446.54,-496.62 443.33,-496.62"/>
<text text-anchor="start" x="404.75" y="-484.07" font-family="Helvetica,sans-Serif" font-size="9.00">index.ts</text>
</a>
</g>
</g>
<!-- src/app/providers/AppRouterProvider.tsx&#45;&gt;src/pages/error/index.ts -->
<g id="edge7" class="edge">
<title>src/app/providers/AppRouterProvider.tsx&#45;&gt;src/pages/error/index.ts</title>
<path fill="none" stroke="#000000" stroke-width="2" stroke-opacity="0.200000" d="M318.3,-539.88C338.88,-529.36 371.23,-512.83 394.27,-501.05"/>
<polygon fill="#000000" fill-opacity="0.200000" stroke="#000000" stroke-width="2" stroke-opacity="0.200000" points="395.61,-502.7 400,-498.1 393.7,-498.96 395.61,-502.7"/>
</g>
<!-- src/pages/layouts/index.ts -->
<g id="node11" class="node">
<title>src/pages/layouts/index.ts</title>
<g id="a_node11"><a xlink:href="src/pages/layouts/index.ts" xlink:title="index.ts">
<path fill="#ddfeff" stroke="black" d="M443.33,-433.62C443.33,-433.62 402.17,-433.62 402.17,-433.62 398.96,-433.62 395.75,-430.42 395.75,-427.21 395.75,-427.21 395.75,-420.79 395.75,-420.79 395.75,-417.58 398.96,-414.38 402.17,-414.38 402.17,-414.38 443.33,-414.38 443.33,-414.38 446.54,-414.38 449.75,-417.58 449.75,-420.79 449.75,-420.79 449.75,-427.21 449.75,-427.21 449.75,-430.42 446.54,-433.62 443.33,-433.62"/>
<text text-anchor="start" x="404.75" y="-421.07" font-family="Helvetica,sans-Serif" font-size="9.00">index.ts</text>
</a>
</g>
</g>
<!-- src/app/providers/AppRouterProvider.tsx&#45;&gt;src/pages/layouts/index.ts -->
<g id="edge8" class="edge">
<title>src/app/providers/AppRouterProvider.tsx&#45;&gt;src/pages/layouts/index.ts</title>
<path fill="none" stroke="#000000" stroke-width="2" stroke-opacity="0.200000" d="M307.95,-540.12C323.05,-524.37 353.57,-492.62 379.75,-466 388.22,-457.38 397.74,-447.86 405.57,-440.05"/>
<polygon fill="#000000" fill-opacity="0.200000" stroke="#000000" stroke-width="2" stroke-opacity="0.200000" points="406.92,-441.69 409.69,-435.97 403.95,-438.71 406.92,-441.69"/>
</g>
<!-- src/pages/login/index.ts -->
<g id="node12" class="node">
<title>src/pages/login/index.ts</title>
<g id="a_node12"><a xlink:href="src/pages/login/index.ts" xlink:title="index.ts">
<path fill="#ddfeff" stroke="black" d="M443.33,-370.62C443.33,-370.62 402.17,-370.62 402.17,-370.62 398.96,-370.62 395.75,-367.42 395.75,-364.21 395.75,-364.21 395.75,-357.79 395.75,-357.79 395.75,-354.58 398.96,-351.38 402.17,-351.38 402.17,-351.38 443.33,-351.38 443.33,-351.38 446.54,-351.38 449.75,-354.58 449.75,-357.79 449.75,-357.79 449.75,-364.21 449.75,-364.21 449.75,-367.42 446.54,-370.62 443.33,-370.62"/>
<text text-anchor="start" x="404.75" y="-358.07" font-family="Helvetica,sans-Serif" font-size="9.00">index.ts</text>
</a>
</g>
</g>
<!-- src/app/providers/AppRouterProvider.tsx&#45;&gt;src/pages/login/index.ts -->
<g id="edge9" class="edge">
<title>src/app/providers/AppRouterProvider.tsx&#45;&gt;src/pages/login/index.ts</title>
<path fill="none" stroke="#000000" stroke-width="2" stroke-dasharray="5,2" stroke-opacity="0.200000" d="M302.77,-540.15C313.62,-515.66 343.98,-450.53 379.75,-403 386.82,-393.6 395.93,-384.24 403.86,-376.75"/>
<polygon fill="#000000" fill-opacity="0.200000" stroke="#000000" stroke-width="2" stroke-opacity="0.200000" points="405.18,-378.55 408.17,-372.94 402.33,-375.46 405.18,-378.55"/>
</g>
<!-- src/pages/settings/index.ts -->
<g id="node13" class="node">
<title>src/pages/settings/index.ts</title>
<g id="a_node13"><a xlink:href="src/pages/settings/index.ts" xlink:title="index.ts">
<path fill="#ddfeff" stroke="black" d="M443.33,-244.62C443.33,-244.62 402.17,-244.62 402.17,-244.62 398.96,-244.62 395.75,-241.42 395.75,-238.21 395.75,-238.21 395.75,-231.79 395.75,-231.79 395.75,-228.58 398.96,-225.38 402.17,-225.38 402.17,-225.38 443.33,-225.38 443.33,-225.38 446.54,-225.38 449.75,-228.58 449.75,-231.79 449.75,-231.79 449.75,-238.21 449.75,-238.21 449.75,-241.42 446.54,-244.62 443.33,-244.62"/>
<text text-anchor="start" x="404.75" y="-232.07" font-family="Helvetica,sans-Serif" font-size="9.00">index.ts</text>
</a>
</g>
</g>
<!-- src/app/providers/AppRouterProvider.tsx&#45;&gt;src/pages/settings/index.ts -->
<g id="edge10" class="edge">
<title>src/app/providers/AppRouterProvider.tsx&#45;&gt;src/pages/settings/index.ts</title>
<path fill="none" stroke="#000000" stroke-width="2" stroke-dasharray="5,2" stroke-opacity="0.200000" d="M299.66,-540.12C304.36,-503.07 324.45,-369.82 379.75,-277 385.61,-267.17 394.27,-257.98 402.22,-250.71"/>
<polygon fill="#000000" fill-opacity="0.200000" stroke="#000000" stroke-width="2" stroke-opacity="0.200000" points="403.51,-251.62 406.64,-246.08 400.74,-248.46 403.51,-251.62"/>
</g>
<!-- src/pages/users/index.ts -->
<g id="node14" class="node">
<title>src/pages/users/index.ts</title>
<g id="a_node14"><a xlink:href="src/pages/users/index.ts" xlink:title="index.ts">
<path fill="#ddfeff" stroke="black" d="M443.33,-307.62C443.33,-307.62 402.17,-307.62 402.17,-307.62 398.96,-307.62 395.75,-304.42 395.75,-301.21 395.75,-301.21 395.75,-294.79 395.75,-294.79 395.75,-291.58 398.96,-288.38 402.17,-288.38 402.17,-288.38 443.33,-288.38 443.33,-288.38 446.54,-288.38 449.75,-291.58 449.75,-294.79 449.75,-294.79 449.75,-301.21 449.75,-301.21 449.75,-304.42 446.54,-307.62 443.33,-307.62"/>
<text text-anchor="start" x="404.75" y="-295.07" font-family="Helvetica,sans-Serif" font-size="9.00">index.ts</text>
</a>
</g>
</g>
<!-- src/app/providers/AppRouterProvider.tsx&#45;&gt;src/pages/users/index.ts -->
<g id="edge11" class="edge">
<title>src/app/providers/AppRouterProvider.tsx&#45;&gt;src/pages/users/index.ts</title>
<path fill="none" stroke="#000000" stroke-width="2" stroke-dasharray="5,2" stroke-opacity="0.200000" d="M300.76,-540.12C308.24,-508.82 334.31,-409.77 379.75,-340 386.08,-330.28 394.96,-320.99 402.92,-313.63"/>
<polygon fill="#000000" fill-opacity="0.200000" stroke="#000000" stroke-width="2" stroke-opacity="0.200000" points="404.23,-315.5 407.32,-309.94 401.44,-312.36 404.23,-315.5"/>
</g>
<!-- src/shared/lib/react&#45;router/index.ts -->
<g id="node15" class="node">
<title>src/shared/lib/react&#45;router/index.ts</title>
<g id="a_node15"><a xlink:href="src/shared/lib/react-router/index.ts" xlink:title="index.ts">
<path fill="#ddfeff" stroke="black" d="M863.21,-796.62C863.21,-796.62 822.04,-796.62 822.04,-796.62 818.83,-796.62 815.62,-793.42 815.62,-790.21 815.62,-790.21 815.62,-783.79 815.62,-783.79 815.62,-780.58 818.83,-777.38 822.04,-777.38 822.04,-777.38 863.21,-777.38 863.21,-777.38 866.42,-777.38 869.62,-780.58 869.62,-783.79 869.62,-783.79 869.62,-790.21 869.62,-790.21 869.62,-793.42 866.42,-796.62 863.21,-796.62"/>
<text text-anchor="start" x="824.62" y="-784.08" font-family="Helvetica,sans-Serif" font-size="9.00">index.ts</text>
</a>
</g>
</g>
<!-- src/app/providers/AppRouterProvider.tsx&#45;&gt;src/shared/lib/react&#45;router/index.ts -->
<g id="edge12" class="edge">
<title>src/app/providers/AppRouterProvider.tsx&#45;&gt;src/shared/lib/react&#45;router/index.ts</title>
<path fill="none" stroke="#000000" stroke-width="2" stroke-opacity="0.200000" d="M355.95,-553.74C361.99,-556.32 367.47,-559.95 371.75,-565 387.13,-583.15 364.78,-760.51 379.75,-779 417.5,-825.62 450.64,-812 510.62,-812 510.62,-812 510.62,-812 635.62,-812 696.08,-812 765.79,-801.26 806.65,-793.86"/>
<polygon fill="#000000" fill-opacity="0.200000" stroke="#000000" stroke-width="2" stroke-opacity="0.200000" points="807.89,-795.39 813.41,-792.24 807.13,-791.26 807.89,-795.39"/>
</g>
<!-- src/pages/account/Account.tsx -->
<g id="node27" class="node">
<title>src/pages/account/Account.tsx</title>
<g id="a_node27"><a xlink:href="src/pages/account/Account.tsx" xlink:title="Account.tsx">
<path fill="#bbfeff" stroke="black" d="M540.21,-748.62C540.21,-748.62 483.04,-748.62 483.04,-748.62 479.83,-748.62 476.62,-745.42 476.62,-742.21 476.62,-742.21 476.62,-735.79 476.62,-735.79 476.62,-732.58 479.83,-729.38 483.04,-729.38 483.04,-729.38 540.21,-729.38 540.21,-729.38 543.42,-729.38 546.62,-732.58 546.62,-735.79 546.62,-735.79 546.62,-742.21 546.62,-742.21 546.62,-745.42 543.42,-748.62 540.21,-748.62"/>
<text text-anchor="start" x="484.62" y="-736.08" font-family="Helvetica,sans-Serif" font-size="9.00">Account.tsx</text>
</a>
</g>
</g>
<!-- src/pages/account/index.ts&#45;&gt;src/pages/account/Account.tsx -->
<g id="edge26" class="edge">
<title>src/pages/account/index.ts&#45;&gt;src/pages/account/Account.tsx</title>
<path fill="none" stroke="#000000" stroke-width="2" stroke-opacity="0.200000" d="M449.82,-739C455.39,-739 461.42,-739 467.45,-739"/>
<polygon fill="#000000" fill-opacity="0.200000" stroke="#000000" stroke-width="2" stroke-opacity="0.200000" points="467.21,-741.1 473.21,-739 467.21,-736.9 467.21,-741.1"/>
</g>
<!-- src/pages/bookings/Bookings.tsx -->
<g id="node28" class="node">
<title>src/pages/bookings/Bookings.tsx</title>
<g id="a_node28"><a xlink:href="src/pages/bookings/Bookings.tsx" xlink:title="Bookings.tsx">
<path fill="#bbfeff" stroke="black" d="M541.71,-685.62C541.71,-685.62 481.54,-685.62 481.54,-685.62 478.33,-685.62 475.12,-682.42 475.12,-679.21 475.12,-679.21 475.12,-672.79 475.12,-672.79 475.12,-669.58 478.33,-666.38 481.54,-666.38 481.54,-666.38 541.71,-666.38 541.71,-666.38 544.92,-666.38 548.12,-669.58 548.12,-672.79 548.12,-672.79 548.12,-679.21 548.12,-679.21 548.12,-682.42 544.92,-685.62 541.71,-685.62"/>
<text text-anchor="start" x="483.12" y="-673.08" font-family="Helvetica,sans-Serif" font-size="9.00">Bookings.tsx</text>
</a>
</g>
</g>
<!-- src/pages/bookings/index.ts&#45;&gt;src/pages/bookings/Bookings.tsx -->
<g id="edge28" class="edge">
<title>src/pages/bookings/index.ts&#45;&gt;src/pages/bookings/Bookings.tsx</title>
<path fill="none" stroke="#000000" stroke-width="2" stroke-opacity="0.200000" d="M449.82,-676C455,-676 460.57,-676 466.17,-676"/>
<polygon fill="#000000" fill-opacity="0.200000" stroke="#000000" stroke-width="2" stroke-opacity="0.200000" points="465.94,-678.1 471.94,-676 465.94,-673.9 465.94,-678.1"/>
</g>
<!-- src/pages/cabins/Cabins.tsx -->
<g id="node29" class="node">
<title>src/pages/cabins/Cabins.tsx</title>
<g id="a_node29"><a xlink:href="src/pages/cabins/Cabins.tsx" xlink:title="Cabins.tsx">
<path fill="#bbfeff" stroke="black" d="M536.46,-622.62C536.46,-622.62 486.79,-622.62 486.79,-622.62 483.58,-622.62 480.38,-619.42 480.38,-616.21 480.38,-616.21 480.38,-609.79 480.38,-609.79 480.38,-606.58 483.58,-603.38 486.79,-603.38 486.79,-603.38 536.46,-603.38 536.46,-603.38 539.67,-603.38 542.88,-606.58 542.88,-609.79 542.88,-609.79 542.88,-616.21 542.88,-616.21 542.88,-619.42 539.67,-622.62 536.46,-622.62"/>
<text text-anchor="start" x="488.38" y="-610.08" font-family="Helvetica,sans-Serif" font-size="9.00">Cabins.tsx</text>
</a>
</g>
</g>
<!-- src/pages/cabins/index.ts&#45;&gt;src/pages/cabins/Cabins.tsx -->
<g id="edge32" class="edge">
<title>src/pages/cabins/index.ts&#45;&gt;src/pages/cabins/Cabins.tsx</title>
<path fill="none" stroke="#000000" stroke-width="2" stroke-opacity="0.200000" d="M449.82,-613C456.49,-613 463.82,-613 471.02,-613"/>
<polygon fill="#000000" fill-opacity="0.200000" stroke="#000000" stroke-width="2" stroke-opacity="0.200000" points="470.99,-615.1 476.99,-613 470.99,-610.9 470.99,-615.1"/>
</g>
<!-- src/pages/dashboard/Dashboard.tsx -->
<g id="node32" class="node">
<title>src/pages/dashboard/Dashboard.tsx</title>
<g id="a_node32"><a xlink:href="src/pages/dashboard/Dashboard.tsx" xlink:title="Dashboard.tsx">
<path fill="#bbfeff" stroke="black" d="M545.83,-559.62C545.83,-559.62 477.42,-559.62 477.42,-559.62 474.21,-559.62 471,-556.42 471,-553.21 471,-553.21 471,-546.79 471,-546.79 471,-543.58 474.21,-540.38 477.42,-540.38 477.42,-540.38 545.83,-540.38 545.83,-540.38 549.04,-540.38 552.25,-543.58 552.25,-546.79 552.25,-546.79 552.25,-553.21 552.25,-553.21 552.25,-556.42 549.04,-559.62 545.83,-559.62"/>
<text text-anchor="start" x="479" y="-547.08" font-family="Helvetica,sans-Serif" font-size="9.00">Dashboard.tsx</text>
</a>
</g>
</g>
<!-- src/pages/dashboard/index.ts&#45;&gt;src/pages/dashboard/Dashboard.tsx -->
<g id="edge34" class="edge">
<title>src/pages/dashboard/index.ts&#45;&gt;src/pages/dashboard/Dashboard.tsx</title>
<path fill="none" stroke="#000000" stroke-width="2" stroke-opacity="0.200000" d="M449.82,-550C453.73,-550 457.88,-550 462.08,-550"/>
<polygon fill="#000000" fill-opacity="0.200000" stroke="#000000" stroke-width="2" stroke-opacity="0.200000" points="461.76,-552.1 467.76,-550 461.76,-547.9 461.76,-552.1"/>
</g>
<!-- src/pages/error/Error.tsx -->
<g id="node33" class="node">
<title>src/pages/error/Error.tsx</title>
<g id="a_node33"><a xlink:href="src/pages/error/Error.tsx" xlink:title="Error.tsx">
<path fill="#bbfeff" stroke="black" d="M532.33,-496.62C532.33,-496.62 490.92,-496.62 490.92,-496.62 487.71,-496.62 484.5,-493.42 484.5,-490.21 484.5,-490.21 484.5,-483.79 484.5,-483.79 484.5,-480.58 487.71,-477.38 490.92,-477.38 490.92,-477.38 532.33,-477.38 532.33,-477.38 535.54,-477.38 538.75,-480.58 538.75,-483.79 538.75,-483.79 538.75,-490.21 538.75,-490.21 538.75,-493.42 535.54,-496.62 532.33,-496.62"/>
<text text-anchor="start" x="492.5" y="-484.07" font-family="Helvetica,sans-Serif" font-size="9.00">Error.tsx</text>
</a>
</g>
</g>
<!-- src/pages/error/index.ts&#45;&gt;src/pages/error/Error.tsx -->
<g id="edge36" class="edge">
<title>src/pages/error/index.ts&#45;&gt;src/pages/error/Error.tsx</title>
<path fill="none" stroke="#000000" stroke-width="2" stroke-opacity="0.200000" d="M449.82,-487C457.9,-487 466.95,-487 475.54,-487"/>
<polygon fill="#000000" fill-opacity="0.200000" stroke="#000000" stroke-width="2" stroke-opacity="0.200000" points="475.28,-489.1 481.28,-487 475.28,-484.9 475.28,-489.1"/>
</g>
<!-- src/pages/layouts/PrimaryLayout.tsx -->
<g id="node34" class="node">
<title>src/pages/layouts/PrimaryLayout.tsx</title>
<g id="a_node34"><a xlink:href="src/pages/layouts/PrimaryLayout.tsx" xlink:title="PrimaryLayout.tsx">
<path fill="#bbfeff" stroke="black" d="M554.08,-433.62C554.08,-433.62 469.17,-433.62 469.17,-433.62 465.96,-433.62 462.75,-430.42 462.75,-427.21 462.75,-427.21 462.75,-420.79 462.75,-420.79 462.75,-417.58 465.96,-414.38 469.17,-414.38 469.17,-414.38 554.08,-414.38 554.08,-414.38 557.29,-414.38 560.5,-417.58 560.5,-420.79 560.5,-420.79 560.5,-427.21 560.5,-427.21 560.5,-430.42 557.29,-433.62 554.08,-433.62"/>
<text text-anchor="start" x="470.75" y="-421.07" font-family="Helvetica,sans-Serif" font-size="9.00">PrimaryLayout.tsx</text>
</a>
</g>
</g>
<!-- src/pages/layouts/index.ts&#45;&gt;src/pages/layouts/PrimaryLayout.tsx -->
<g id="edge39" class="edge">
<title>src/pages/layouts/index.ts&#45;&gt;src/pages/layouts/PrimaryLayout.tsx</title>
<path fill="none" stroke="#000000" stroke-width="2" stroke-opacity="0.200000" d="M449.82,-424C451.06,-424 452.34,-424 453.63,-424"/>
<polygon fill="#000000" fill-opacity="0.200000" stroke="#000000" stroke-width="2" stroke-opacity="0.200000" points="453.34,-426.1 459.34,-424 453.34,-421.9 453.34,-426.1"/>
</g>
<!-- src/pages/login/Login.tsx -->
<g id="node36" class="node">
<title>src/pages/login/Login.tsx</title>
<g id="a_node36"><a xlink:href="src/pages/login/Login.tsx" xlink:title="Login.tsx">
<path fill="#bbfeff" stroke="black" d="M533.46,-370.62C533.46,-370.62 489.79,-370.62 489.79,-370.62 486.58,-370.62 483.38,-367.42 483.38,-364.21 483.38,-364.21 483.38,-357.79 483.38,-357.79 483.38,-354.58 486.58,-351.38 489.79,-351.38 489.79,-351.38 533.46,-351.38 533.46,-351.38 536.67,-351.38 539.88,-354.58 539.88,-357.79 539.88,-357.79 539.88,-364.21 539.88,-364.21 539.88,-367.42 536.67,-370.62 533.46,-370.62"/>
<text text-anchor="start" x="491.38" y="-358.07" font-family="Helvetica,sans-Serif" font-size="9.00">Login.tsx</text>
</a>
</g>
</g>
<!-- src/pages/login/index.ts&#45;&gt;src/pages/login/Login.tsx -->
<g id="edge40" class="edge">
<title>src/pages/login/index.ts&#45;&gt;src/pages/login/Login.tsx</title>
<path fill="none" stroke="#000000" stroke-width="2" stroke-opacity="0.200000" d="M449.82,-361C457.44,-361 465.92,-361 474.07,-361"/>
<polygon fill="#000000" fill-opacity="0.200000" stroke="#000000" stroke-width="2" stroke-opacity="0.200000" points="474.07,-363.1 480.07,-361 474.07,-358.9 474.07,-363.1"/>
</g>
<!-- src/pages/settings/Settings.tsx -->
<g id="node37" class="node">
<title>src/pages/settings/Settings.tsx</title>
<g id="a_node37"><a xlink:href="src/pages/settings/Settings.tsx" xlink:title="Settings.tsx">
<path fill="#bbfeff" stroke="black" d="M540.21,-244.62C540.21,-244.62 483.04,-244.62 483.04,-244.62 479.83,-244.62 476.62,-241.42 476.62,-238.21 476.62,-238.21 476.62,-231.79 476.62,-231.79 476.62,-228.58 479.83,-225.38 483.04,-225.38 483.04,-225.38 540.21,-225.38 540.21,-225.38 543.42,-225.38 546.62,-228.58 546.62,-231.79 546.62,-231.79 546.62,-238.21 546.62,-238.21 546.62,-241.42 543.42,-244.62 540.21,-244.62"/>
<text text-anchor="start" x="484.62" y="-232.07" font-family="Helvetica,sans-Serif" font-size="9.00">Settings.tsx</text>
</a>
</g>
</g>
<!-- src/pages/settings/index.ts&#45;&gt;src/pages/settings/Settings.tsx -->
<g id="edge42" class="edge">
<title>src/pages/settings/index.ts&#45;&gt;src/pages/settings/Settings.tsx</title>
<path fill="none" stroke="#000000" stroke-width="2" stroke-opacity="0.200000" d="M449.82,-235C455.39,-235 461.42,-235 467.45,-235"/>
<polygon fill="#000000" fill-opacity="0.200000" stroke="#000000" stroke-width="2" stroke-opacity="0.200000" points="467.21,-237.1 473.21,-235 467.21,-232.9 467.21,-237.1"/>
</g>
<!-- src/pages/users/Users.tsx -->
<g id="node38" class="node">
<title>src/pages/users/Users.tsx</title>
<g id="a_node38"><a xlink:href="src/pages/users/Users.tsx" xlink:title="Users.tsx">
<path fill="#bbfeff" stroke="black" d="M533.83,-307.62C533.83,-307.62 489.42,-307.62 489.42,-307.62 486.21,-307.62 483,-304.42 483,-301.21 483,-301.21 483,-294.79 483,-294.79 483,-291.58 486.21,-288.38 489.42,-288.38 489.42,-288.38 533.83,-288.38 533.83,-288.38 537.04,-288.38 540.25,-291.58 540.25,-294.79 540.25,-294.79 540.25,-301.21 540.25,-301.21 540.25,-304.42 537.04,-307.62 533.83,-307.62"/>
<text text-anchor="start" x="491" y="-295.07" font-family="Helvetica,sans-Serif" font-size="9.00">Users.tsx</text>
</a>
</g>
</g>
<!-- src/pages/users/index.ts&#45;&gt;src/pages/users/Users.tsx -->
<g id="edge44" class="edge">
<title>src/pages/users/index.ts&#45;&gt;src/pages/users/Users.tsx</title>
<path fill="none" stroke="#000000" stroke-width="2" stroke-opacity="0.200000" d="M449.82,-298C457.37,-298 465.76,-298 473.84,-298"/>
<polygon fill="#000000" fill-opacity="0.200000" stroke="#000000" stroke-width="2" stroke-opacity="0.200000" points="473.76,-300.1 479.76,-298 473.76,-295.9 473.76,-300.1"/>
</g>
<!-- src/shared/lib/react&#45;router/paths.ts -->
<g id="node43" class="node">
<title>src/shared/lib/react&#45;router/paths.ts</title>
<g id="a_node43"><a xlink:href="src/shared/lib/react-router/paths.ts" xlink:title="paths.ts">
<path fill="#ddfeff" stroke="black" d="M994.08,-796.62C994.08,-796.62 952.92,-796.62 952.92,-796.62 949.71,-796.62 946.5,-793.42 946.5,-790.21 946.5,-790.21 946.5,-783.79 946.5,-783.79 946.5,-780.58 949.71,-777.38 952.92,-777.38 952.92,-777.38 994.08,-777.38 994.08,-777.38 997.29,-777.38 1000.5,-780.58 1000.5,-783.79 1000.5,-783.79 1000.5,-790.21 1000.5,-790.21 1000.5,-793.42 997.29,-796.62 994.08,-796.62"/>
<text text-anchor="start" x="955.12" y="-784.08" font-family="Helvetica,sans-Serif" font-size="9.00">paths.ts</text>
</a>
</g>
</g>
<!-- src/shared/lib/react&#45;router/index.ts&#45;&gt;src/shared/lib/react&#45;router/paths.ts -->
<g id="edge49" class="edge">
<title>src/shared/lib/react&#45;router/index.ts&#45;&gt;src/shared/lib/react&#45;router/paths.ts</title>
<path fill="none" stroke="#000000" stroke-width="2" stroke-opacity="0.200000" d="M870.02,-787C889.48,-787 916.15,-787 937.4,-787"/>
<polygon fill="#000000" fill-opacity="0.200000" stroke="#000000" stroke-width="2" stroke-opacity="0.200000" points="937.14,-789.1 943.14,-787 937.14,-784.9 937.14,-789.1"/>
</g>
<!-- src/entities/cabin/CabinType.ts -->
<g id="node17" class="node">
<title>src/entities/cabin/CabinType.ts</title>
<g id="a_node17"><a xlink:href="src/entities/cabin/CabinType.ts" xlink:title="CabinType.ts">
<path fill="#ddfeff" stroke="black" d="M872.71,-51.62C872.71,-51.62 812.54,-51.62 812.54,-51.62 809.33,-51.62 806.12,-48.42 806.12,-45.21 806.12,-45.21 806.12,-38.79 806.12,-38.79 806.12,-35.58 809.33,-32.38 812.54,-32.38 812.54,-32.38 872.71,-32.38 872.71,-32.38 875.92,-32.38 879.12,-35.58 879.12,-38.79 879.12,-38.79 879.12,-45.21 879.12,-45.21 879.12,-48.42 875.92,-51.62 872.71,-51.62"/>
<text text-anchor="start" x="814.12" y="-39.08" font-family="Helvetica,sans-Serif" font-size="9.00">CabinType.ts</text>
</a>
</g>
</g>
<!-- src/entities/cabin/index.ts -->
<g id="node18" class="node">
<title>src/entities/cabin/index.ts</title>
<g id="a_node18"><a xlink:href="src/entities/cabin/index.ts" xlink:title="index.ts">
<path fill="#ddfeff" stroke="black" d="M655.21,-149.62C655.21,-149.62 614.04,-149.62 614.04,-149.62 610.83,-149.62 607.62,-146.42 607.62,-143.21 607.62,-143.21 607.62,-136.79 607.62,-136.79 607.62,-133.58 610.83,-130.38 614.04,-130.38 614.04,-130.38 655.21,-130.38 655.21,-130.38 658.42,-130.38 661.62,-133.58 661.62,-136.79 661.62,-136.79 661.62,-143.21 661.62,-143.21 661.62,-146.42 658.42,-149.62 655.21,-149.62"/>
<text text-anchor="start" x="616.62" y="-137.07" font-family="Helvetica,sans-Serif" font-size="9.00">index.ts</text>
</a>
</g>
</g>
<!-- src/entities/cabin/index.ts&#45;&gt;src/entities/cabin/CabinType.ts -->
<g id="edge16" class="edge">
<title>src/entities/cabin/index.ts&#45;&gt;src/entities/cabin/CabinType.ts</title>
<path fill="none" stroke="#000000" stroke-width="2" stroke-opacity="0.200000" d="M638.3,-129.98C643.69,-111.91 657.75,-74.15 684.75,-57 718.03,-35.86 763.56,-33.77 797,-35.98"/>
<polygon fill="#000000" fill-opacity="0.200000" stroke="#000000" stroke-width="2" stroke-opacity="0.200000" points="796.51,-38.28 802.66,-36.66 796.84,-34.1 796.51,-38.28"/>
</g>
<!-- src/entities/cabin/ui/CabinRow.tsx -->
<g id="node19" class="node">
<title>src/entities/cabin/ui/CabinRow.tsx</title>
<g id="a_node19"><a xlink:href="src/entities/cabin/ui/CabinRow.tsx" xlink:title="CabinRow.tsx">
<path fill="#bbfeff" stroke="black" d="M762.33,-149.62C762.33,-149.62 699.17,-149.62 699.17,-149.62 695.96,-149.62 692.75,-146.42 692.75,-143.21 692.75,-143.21 692.75,-136.79 692.75,-136.79 692.75,-133.58 695.96,-130.38 699.17,-130.38 699.17,-130.38 762.33,-130.38 762.33,-130.38 765.54,-130.38 768.75,-133.58 768.75,-136.79 768.75,-136.79 768.75,-143.21 768.75,-143.21 768.75,-146.42 765.54,-149.62 762.33,-149.62"/>
<text text-anchor="start" x="700.75" y="-137.07" font-family="Helvetica,sans-Serif" font-size="9.00">CabinRow.tsx</text>
</a>
</g>
</g>
<!-- src/entities/cabin/index.ts&#45;&gt;src/entities/cabin/ui/CabinRow.tsx -->
<g id="edge17" class="edge">
<title>src/entities/cabin/index.ts&#45;&gt;src/entities/cabin/ui/CabinRow.tsx</title>
<path fill="none" stroke="#000000" stroke-width="2" stroke-opacity="0.200000" d="M662.09,-140C668.89,-140 676.41,-140 683.88,-140"/>
<polygon fill="#000000" fill-opacity="0.200000" stroke="#000000" stroke-width="2" stroke-opacity="0.200000" points="683.59,-142.1 689.59,-140 683.59,-137.9 683.59,-142.1"/>
</g>
<!-- src/entities/cabin/ui/CabinRow.tsx&#45;&gt;src/entities/cabin/CabinType.ts -->
<g id="edge18" class="edge">
<title>src/entities/cabin/ui/CabinRow.tsx&#45;&gt;src/entities/cabin/CabinType.ts</title>
<path fill="none" stroke="#000000" stroke-width="2" stroke-opacity="0.200000" d="M769.2,-135.72C774.7,-133.56 779.79,-130.45 783.62,-126 803.78,-102.61 771.8,-80.66 791.62,-57 793.49,-54.78 795.67,-52.88 798.05,-51.25"/>
<polygon fill="#000000" fill-opacity="0.200000" stroke="#000000" stroke-width="2" stroke-opacity="0.200000" points="799.42,-52.83 803.72,-48.15 797.44,-49.13 799.42,-52.83"/>
</g>
<!-- src/entities/cabin/ui/CabinDIscount.tsx -->
<g id="node20" class="node">
<title>src/entities/cabin/ui/CabinDIscount.tsx</title>
<g id="a_node20"><a xlink:href="src/entities/cabin/ui/CabinDIscount.tsx" xlink:title="CabinDIscount.tsx">
<path fill="#bbfeff" stroke="black" d="M885.46,-87.62C885.46,-87.62 799.79,-87.62 799.79,-87.62 796.58,-87.62 793.38,-84.42 793.38,-81.21 793.38,-81.21 793.38,-74.79 793.38,-74.79 793.38,-71.58 796.58,-68.38 799.79,-68.38 799.79,-68.38 885.46,-68.38 885.46,-68.38 888.67,-68.38 891.88,-71.58 891.88,-74.79 891.88,-74.79 891.88,-81.21 891.88,-81.21 891.88,-84.42 888.67,-87.62 885.46,-87.62"/>
<text text-anchor="start" x="801.38" y="-75.08" font-family="Helvetica,sans-Serif" font-size="9.00">CabinDIscount.tsx</text>
</a>
</g>
</g>
<!-- src/entities/cabin/ui/CabinRow.tsx&#45;&gt;src/entities/cabin/ui/CabinDIscount.tsx -->
<g id="edge19" class="edge">
<title>src/entities/cabin/ui/CabinRow.tsx&#45;&gt;src/entities/cabin/ui/CabinDIscount.tsx</title>
<path fill="none" stroke="#000000" stroke-width="2" stroke-opacity="0.200000" d="M769.02,-135.2C774.46,-133.1 779.59,-130.14 783.62,-126 792.59,-116.8 784.56,-107.28 791.98,-94.88"/>
<polygon fill="#000000" fill-opacity="0.200000" stroke="#000000" stroke-width="2" stroke-opacity="0.200000" points="794.31,-96.11 796.44,-90.12 791.04,-93.47 794.31,-96.11"/>
</g>
<!-- src/entities/cabin/ui/CabinImg.tsx -->
<g id="node21" class="node">
<title>src/entities/cabin/ui/CabinImg.tsx</title>
<g id="a_node21"><a xlink:href="src/entities/cabin/ui/CabinImg.tsx" xlink:title="CabinImg.tsx">
<path fill="#bbfeff" stroke="black" d="M874.21,-118.62C874.21,-118.62 811.04,-118.62 811.04,-118.62 807.83,-118.62 804.62,-115.42 804.62,-112.21 804.62,-112.21 804.62,-105.79 804.62,-105.79 804.62,-102.58 807.83,-99.38 811.04,-99.38 811.04,-99.38 874.21,-99.38 874.21,-99.38 877.42,-99.38 880.62,-102.58 880.62,-105.79 880.62,-105.79 880.62,-112.21 880.62,-112.21 880.62,-115.42 877.42,-118.62 874.21,-118.62"/>
<text text-anchor="start" x="812.62" y="-106.08" font-family="Helvetica,sans-Serif" font-size="9.00">CabinImg.tsx</text>
</a>
</g>
</g>
<!-- src/entities/cabin/ui/CabinRow.tsx&#45;&gt;src/entities/cabin/ui/CabinImg.tsx -->
<g id="edge20" class="edge">
<title>src/entities/cabin/ui/CabinRow.tsx&#45;&gt;src/entities/cabin/ui/CabinImg.tsx</title>
<path fill="none" stroke="#000000" stroke-width="2" stroke-opacity="0.200000" d="M769.18,-130C774.04,-128.67 778.96,-127.31 783.62,-126 788.61,-124.6 793.82,-123.1 799,-121.61"/>
<polygon fill="#000000" fill-opacity="0.200000" stroke="#000000" stroke-width="2" stroke-opacity="0.200000" points="800.44,-122.79 805.62,-119.1 799.27,-118.76 800.44,-122.79"/>
</g>
<!-- src/entities/cabin/ui/CabinName.tsx -->
<g id="node22" class="node">
<title>src/entities/cabin/ui/CabinName.tsx</title>
<g id="a_node22"><a xlink:href="src/entities/cabin/ui/CabinName.tsx" xlink:title="CabinName.tsx">
<path fill="#bbfeff" stroke="black" d="M878.33,-149.62C878.33,-149.62 806.92,-149.62 806.92,-149.62 803.71,-149.62 800.5,-146.42 800.5,-143.21 800.5,-143.21 800.5,-136.79 800.5,-136.79 800.5,-133.58 803.71,-130.38 806.92,-130.38 806.92,-130.38 878.33,-130.38 878.33,-130.38 881.54,-130.38 884.75,-133.58 884.75,-136.79 884.75,-136.79 884.75,-143.21 884.75,-143.21 884.75,-146.42 881.54,-149.62 878.33,-149.62"/>
<text text-anchor="start" x="808.5" y="-137.07" font-family="Helvetica,sans-Serif" font-size="9.00">CabinName.tsx</text>
</a>
</g>
</g>
<!-- src/entities/cabin/ui/CabinRow.tsx&#45;&gt;src/entities/cabin/ui/CabinName.tsx -->
<g id="edge21" class="edge">
<title>src/entities/cabin/ui/CabinRow.tsx&#45;&gt;src/entities/cabin/ui/CabinName.tsx</title>
<path fill="none" stroke="#000000" stroke-width="2" stroke-opacity="0.200000" d="M768.95,-140C776.2,-140 783.91,-140 791.5,-140"/>
<polygon fill="#000000" fill-opacity="0.200000" stroke="#000000" stroke-width="2" stroke-opacity="0.200000" points="791.31,-142.1 797.31,-140 791.31,-137.9 791.31,-142.1"/>
</g>
<!-- src/entities/cabin/ui/CabinPrice.tsx -->
<g id="node23" class="node">
<title>src/entities/cabin/ui/CabinPrice.tsx</title>
<g id="a_node23"><a xlink:href="src/entities/cabin/ui/CabinPrice.tsx" xlink:title="CabinPrice.tsx">
<path fill="#bbfeff" stroke="black" d="M876.08,-180.62C876.08,-180.62 809.17,-180.62 809.17,-180.62 805.96,-180.62 802.75,-177.42 802.75,-174.21 802.75,-174.21 802.75,-167.79 802.75,-167.79 802.75,-164.58 805.96,-161.38 809.17,-161.38 809.17,-161.38 876.08,-161.38 876.08,-161.38 879.29,-161.38 882.5,-164.58 882.5,-167.79 882.5,-167.79 882.5,-174.21 882.5,-174.21 882.5,-177.42 879.29,-180.62 876.08,-180.62"/>
<text text-anchor="start" x="810.75" y="-168.07" font-family="Helvetica,sans-Serif" font-size="9.00">CabinPrice.tsx</text>
</a>
</g>
</g>
<!-- src/entities/cabin/ui/CabinRow.tsx&#45;&gt;src/entities/cabin/ui/CabinPrice.tsx -->
<g id="edge22" class="edge">
<title>src/entities/cabin/ui/CabinRow.tsx&#45;&gt;src/entities/cabin/ui/CabinPrice.tsx</title>
<path fill="none" stroke="#000000" stroke-width="2" stroke-opacity="0.200000" d="M767.42,-150.06C776.92,-152.74 787.3,-155.67 797.21,-158.47"/>
<polygon fill="#000000" fill-opacity="0.200000" stroke="#000000" stroke-width="2" stroke-opacity="0.200000" points="797.41,-161.27 803.75,-160.88 798.55,-157.23 797.41,-161.27"/>
</g>
<!-- src/shared/ui/index.ts -->
<g id="node24" class="node">
<title>src/shared/ui/index.ts</title>
<g id="a_node24"><a xlink:href="src/shared/ui/index.ts" xlink:title="index.ts">
<path fill="#ddfeff" stroke="black" d="M863.21,-507.62C863.21,-507.62 822.04,-507.62 822.04,-507.62 818.83,-507.62 815.62,-504.42 815.62,-501.21 815.62,-501.21 815.62,-494.79 815.62,-494.79 815.62,-491.58 818.83,-488.38 822.04,-488.38 822.04,-488.38 863.21,-488.38 863.21,-488.38 866.42,-488.38 869.62,-491.58 869.62,-494.79 869.62,-494.79 869.62,-501.21 869.62,-501.21 869.62,-504.42 866.42,-507.62 863.21,-507.62"/>
<text text-anchor="start" x="824.62" y="-495.07" font-family="Helvetica,sans-Serif" font-size="9.00">index.ts</text>
</a>
</g>
</g>
<!-- src/entities/cabin/ui/CabinRow.tsx&#45;&gt;src/shared/ui/index.ts -->
<g id="edge23" class="edge">
<title>src/entities/cabin/ui/CabinRow.tsx&#45;&gt;src/shared/ui/index.ts</title>
<path fill="none" stroke="#000000" stroke-width="2" stroke-opacity="0.200000" d="M734.73,-149.79C743.45,-178.44 769.69,-264.57 791.62,-336 807.68,-388.27 826.76,-449.99 836.03,-479.92"/>
<polygon fill="#000000" fill-opacity="0.200000" stroke="#000000" stroke-width="2" stroke-opacity="0.200000" points="834.79,-481.03 838.57,-486.14 838.8,-479.79 834.79,-481.03"/>
</g>
<!-- src/shared/utils/index.ts -->
<g id="node25" class="node">
<title>src/shared/utils/index.ts</title>
<g id="a_node25"><a xlink:href="src/shared/utils/index.ts" xlink:title="index.ts">
<path fill="#ddfeff" stroke="black" d="M863.21,-305.62C863.21,-305.62 822.04,-305.62 822.04,-305.62 818.83,-305.62 815.62,-302.42 815.62,-299.21 815.62,-299.21 815.62,-292.79 815.62,-292.79 815.62,-289.58 818.83,-286.38 822.04,-286.38 822.04,-286.38 863.21,-286.38 863.21,-286.38 866.42,-286.38 869.62,-289.58 869.62,-292.79 869.62,-292.79 869.62,-299.21 869.62,-299.21 869.62,-302.42 866.42,-305.62 863.21,-305.62"/>
<text text-anchor="start" x="824.62" y="-293.07" font-family="Helvetica,sans-Serif" font-size="9.00">index.ts</text>
</a>
</g>
</g>
<!-- src/entities/cabin/ui/CabinRow.tsx&#45;&gt;src/shared/utils/index.ts -->
<g id="edge24" class="edge">
<title>src/entities/cabin/ui/CabinRow.tsx&#45;&gt;src/shared/utils/index.ts</title>
<path fill="none" stroke="#000000" stroke-width="2" stroke-opacity="0.200000" d="M738.62,-149.76C756.89,-175.69 806.82,-246.58 829.78,-279.18"/>
<polygon fill="#000000" fill-opacity="0.200000" stroke="#000000" stroke-width="2" stroke-opacity="0.200000" points="828.58,-280.55 833.75,-284.25 832.02,-278.13 828.58,-280.55"/>
</g>
<!-- src/shared/ui/Header.tsx -->
<g id="node44" class="node">
<title>src/shared/ui/Header.tsx</title>
<g id="a_node44"><a xlink:href="src/shared/ui/Header.tsx" xlink:title="Header.tsx">
<path fill="#bbfeff" stroke="black" d="M999.08,-445.62C999.08,-445.62 947.92,-445.62 947.92,-445.62 944.71,-445.62 941.5,-442.42 941.5,-439.21 941.5,-439.21 941.5,-432.79 941.5,-432.79 941.5,-429.58 944.71,-426.38 947.92,-426.38 947.92,-426.38 999.08,-426.38 999.08,-426.38 1002.29,-426.38 1005.5,-429.58 1005.5,-432.79 1005.5,-432.79 1005.5,-439.21 1005.5,-439.21 1005.5,-442.42 1002.29,-445.62 999.08,-445.62"/>
<text text-anchor="start" x="949.5" y="-433.07" font-family="Helvetica,sans-Serif" font-size="9.00">Header.tsx</text>
</a>
</g>
</g>
<!-- src/shared/ui/index.ts&#45;&gt;src/shared/ui/Header.tsx -->
<g id="edge51" class="edge">
<title>src/shared/ui/index.ts&#45;&gt;src/shared/ui/Header.tsx</title>
<path fill="none" stroke="#000000" stroke-width="2" stroke-opacity="0.200000" d="M858.45,-487.9C874.16,-477.56 899.93,-461.53 923.88,-451 926.8,-449.71 929.86,-448.49 932.97,-447.34"/>
<polygon fill="#000000" fill-opacity="0.200000" stroke="#000000" stroke-width="2" stroke-opacity="0.200000" points="934.26,-448.42 939.24,-444.47 932.88,-444.46 934.26,-448.42"/>
</g>
<!-- src/shared/ui/Heading.tsx -->
<g id="node45" class="node">
<title>src/shared/ui/Heading.tsx</title>
<g id="a_node45"><a xlink:href="src/shared/ui/Heading.tsx" xlink:title="Heading.tsx">
<path fill="#bbfeff" stroke="black" d="M1002.08,-476.62C1002.08,-476.62 944.92,-476.62 944.92,-476.62 941.71,-476.62 938.5,-473.42 938.5,-470.21 938.5,-470.21 938.5,-463.79 938.5,-463.79 938.5,-460.58 941.71,-457.38 944.92,-457.38 944.92,-457.38 1002.08,-457.38 1002.08,-457.38 1005.29,-457.38 1008.5,-460.58 1008.5,-463.79 1008.5,-463.79 1008.5,-470.21 1008.5,-470.21 1008.5,-473.42 1005.29,-476.62 1002.08,-476.62"/>
<text text-anchor="start" x="946.5" y="-464.07" font-family="Helvetica,sans-Serif" font-size="9.00">Heading.tsx</text>
</a>
</g>
</g>
<!-- src/shared/ui/index.ts&#45;&gt;src/shared/ui/Heading.tsx -->
<g id="edge52" class="edge">
<title>src/shared/ui/index.ts&#45;&gt;src/shared/ui/Heading.tsx</title>
<path fill="none" stroke="#000000" stroke-width="2" stroke-opacity="0.200000" d="M870.02,-491.65C887.21,-487.52 910.03,-482.03 929.77,-477.28"/>
<polygon fill="#000000" fill-opacity="0.200000" stroke="#000000" stroke-width="2" stroke-opacity="0.200000" points="930.96,-478.67 936.3,-475.23 929.98,-474.59 930.96,-478.67"/>
</g>
<!-- src/shared/ui/Logo.tsx -->
<g id="node46" class="node">
<title>src/shared/ui/Logo.tsx</title>
<g id="a_node46"><a xlink:href="src/shared/ui/Logo.tsx" xlink:title="Logo.tsx">
<path fill="#bbfeff" stroke="black" d="M994.08,-507.62C994.08,-507.62 952.92,-507.62 952.92,-507.62 949.71,-507.62 946.5,-504.42 946.5,-501.21 946.5,-501.21 946.5,-494.79 946.5,-494.79 946.5,-491.58 949.71,-488.38 952.92,-488.38 952.92,-488.38 994.08,-488.38 994.08,-488.38 997.29,-488.38 1000.5,-491.58 1000.5,-494.79 1000.5,-494.79 1000.5,-501.21 1000.5,-501.21 1000.5,-504.42 997.29,-507.62 994.08,-507.62"/>
<text text-anchor="start" x="954.75" y="-495.07" font-family="Helvetica,sans-Serif" font-size="9.00">Logo.tsx</text>
</a>
</g>
</g>
<!-- src/shared/ui/index.ts&#45;&gt;src/shared/ui/Logo.tsx -->
<g id="edge53" class="edge">
<title>src/shared/ui/index.ts&#45;&gt;src/shared/ui/Logo.tsx</title>
<path fill="none" stroke="#000000" stroke-width="2" stroke-opacity="0.200000" d="M870.02,-498C889.48,-498 916.15,-498 937.4,-498"/>
<polygon fill="#000000" fill-opacity="0.200000" stroke="#000000" stroke-width="2" stroke-opacity="0.200000" points="937.14,-500.1 943.14,-498 937.14,-495.9 937.14,-500.1"/>
</g>
<!-- src/shared/ui/MainNav.tsx -->
<g id="node47" class="node">
<title>src/shared/ui/MainNav.tsx</title>
<g id="a_node47"><a xlink:href="src/shared/ui/MainNav.tsx" xlink:title="MainNav.tsx">
<path fill="#bbfeff" stroke="black" d="M1002.08,-538.62C1002.08,-538.62 944.92,-538.62 944.92,-538.62 941.71,-538.62 938.5,-535.42 938.5,-532.21 938.5,-532.21 938.5,-525.79 938.5,-525.79 938.5,-522.58 941.71,-519.38 944.92,-519.38 944.92,-519.38 1002.08,-519.38 1002.08,-519.38 1005.29,-519.38 1008.5,-522.58 1008.5,-525.79 1008.5,-525.79 1008.5,-532.21 1008.5,-532.21 1008.5,-535.42 1005.29,-538.62 1002.08,-538.62"/>
<text text-anchor="start" x="946.5" y="-526.08" font-family="Helvetica,sans-Serif" font-size="9.00">MainNav.tsx</text>
</a>
</g>
</g>
<!-- src/shared/ui/index.ts&#45;&gt;src/shared/ui/MainNav.tsx -->
<g id="edge54" class="edge">
<title>src/shared/ui/index.ts&#45;&gt;src/shared/ui/MainNav.tsx</title>
<path fill="none" stroke="#000000" stroke-width="2" stroke-opacity="0.200000" d="M870.02,-504.35C887.21,-508.48 910.03,-513.97 929.77,-518.72"/>
<polygon fill="#000000" fill-opacity="0.200000" stroke="#000000" stroke-width="2" stroke-opacity="0.200000" points="929.98,-521.41 936.3,-520.77 930.96,-517.33 929.98,-521.41"/>
</g>
<!-- src/shared/ui/NavigationLink.tsx -->
<g id="node48" class="node">
<title>src/shared/ui/NavigationLink.tsx</title>
<g id="a_node48"><a xlink:href="src/shared/ui/NavigationLink.tsx" xlink:title="NavigationLink.tsx">
<path fill="#bbfeff" stroke="black" d="M1016.71,-569.62C1016.71,-569.62 930.29,-569.62 930.29,-569.62 927.08,-569.62 923.88,-566.42 923.88,-563.21 923.88,-563.21 923.88,-556.79 923.88,-556.79 923.88,-553.58 927.08,-550.38 930.29,-550.38 930.29,-550.38 1016.71,-550.38 1016.71,-550.38 1019.92,-550.38 1023.12,-553.58 1023.12,-556.79 1023.12,-556.79 1023.12,-563.21 1023.12,-563.21 1023.12,-566.42 1019.92,-569.62 1016.71,-569.62"/>
<text text-anchor="start" x="931.88" y="-557.08" font-family="Helvetica,sans-Serif" font-size="9.00">NavigationLink.tsx</text>
</a>
</g>
</g>
<!-- src/shared/ui/index.ts&#45;&gt;src/shared/ui/NavigationLink.tsx -->
<g id="edge55" class="edge">
<title>src/shared/ui/index.ts&#45;&gt;src/shared/ui/NavigationLink.tsx</title>
<path fill="none" stroke="#000000" stroke-width="2" stroke-opacity="0.200000" d="M858.45,-508.1C874.16,-518.44 899.93,-534.47 923.88,-545 925.39,-545.67 926.95,-546.32 928.53,-546.95"/>
<polygon fill="#000000" fill-opacity="0.200000" stroke="#000000" stroke-width="2" stroke-opacity="0.200000" points="928.21,-548.82 934.57,-548.95 929.68,-544.88 928.21,-548.82"/>
</g>
<!-- src/shared/ui/Row.tsx -->
<g id="node49" class="node">
<title>src/shared/ui/Row.tsx</title>
<g id="a_node49"><a xlink:href="src/shared/ui/Row.tsx" xlink:title="Row.tsx">
<path fill="#bbfeff" stroke="black" d="M994.08,-600.62C994.08,-600.62 952.92,-600.62 952.92,-600.62 949.71,-600.62 946.5,-597.42 946.5,-594.21 946.5,-594.21 946.5,-587.79 946.5,-587.79 946.5,-584.58 949.71,-581.38 952.92,-581.38 952.92,-581.38 994.08,-581.38 994.08,-581.38 997.29,-581.38 1000.5,-584.58 1000.5,-587.79 1000.5,-587.79 1000.5,-594.21 1000.5,-594.21 1000.5,-597.42 997.29,-600.62 994.08,-600.62"/>
<text text-anchor="start" x="956.25" y="-588.08" font-family="Helvetica,sans-Serif" font-size="9.00">Row.tsx</text>
</a>
</g>
</g>
<!-- src/shared/ui/index.ts&#45;&gt;src/shared/ui/Row.tsx -->
<g id="edge56" class="edge">
<title>src/shared/ui/index.ts&#45;&gt;src/shared/ui/Row.tsx</title>
<path fill="none" stroke="#000000" stroke-width="2" stroke-opacity="0.200000" d="M851.16,-507.91C864.21,-524.39 892.62,-557.47 923.88,-576 928.1,-578.51 932.79,-580.63 937.53,-582.42"/>
<polygon fill="#000000" fill-opacity="0.200000" stroke="#000000" stroke-width="2" stroke-opacity="0.200000" points="937.7,-585.37 944.05,-585.3 939.04,-581.39 937.7,-585.37"/>
</g>
<!-- src/shared/ui/Sidebar.tsx -->
<g id="node50" class="node">
<title>src/shared/ui/Sidebar.tsx</title>
<g id="a_node50"><a xlink:href="src/shared/ui/Sidebar.tsx" xlink:title="Sidebar.tsx">
<path fill="#bbfeff" stroke="black" d="M1000.21,-631.62C1000.21,-631.62 946.79,-631.62 946.79,-631.62 943.58,-631.62 940.38,-628.42 940.38,-625.21 940.38,-625.21 940.38,-618.79 940.38,-618.79 940.38,-615.58 943.58,-612.38 946.79,-612.38 946.79,-612.38 1000.21,-612.38 1000.21,-612.38 1003.42,-612.38 1006.62,-615.58 1006.62,-618.79 1006.62,-618.79 1006.62,-625.21 1006.62,-625.21 1006.62,-628.42 1003.42,-631.62 1000.21,-631.62"/>
<text text-anchor="start" x="948.38" y="-619.08" font-family="Helvetica,sans-Serif" font-size="9.00">Sidebar.tsx</text>
</a>
</g>
</g>
<!-- src/shared/ui/index.ts&#45;&gt;src/shared/ui/Sidebar.tsx -->
<g id="edge57" class="edge">
<title>src/shared/ui/index.ts&#45;&gt;src/shared/ui/Sidebar.tsx</title>
<path fill="none" stroke="#000000" stroke-width="2" stroke-opacity="0.200000" d="M848.28,-508.1C858.68,-529.59 885.94,-580.05 923.88,-607 926.36,-608.77 929.07,-610.33 931.88,-611.71"/>
<polygon fill="#000000" fill-opacity="0.200000" stroke="#000000" stroke-width="2" stroke-opacity="0.200000" points="931.67,-613.75 938.01,-614.15 933.3,-609.88 931.67,-613.75"/>
</g>
<!-- src/shared/ui/Spinner.tsx -->
<g id="node51" class="node">
<title>src/shared/ui/Spinner.tsx</title>
<g id="a_node51"><a xlink:href="src/shared/ui/Spinner.tsx" xlink:title="Spinner.tsx">
<path fill="#bbfeff" stroke="black" d="M1000.58,-662.62C1000.58,-662.62 946.42,-662.62 946.42,-662.62 943.21,-662.62 940,-659.42 940,-656.21 940,-656.21 940,-649.79 940,-649.79 940,-646.58 943.21,-643.38 946.42,-643.38 946.42,-643.38 1000.58,-643.38 1000.58,-643.38 1003.79,-643.38 1007,-646.58 1007,-649.79 1007,-649.79 1007,-656.21 1007,-656.21 1007,-659.42 1003.79,-662.62 1000.58,-662.62"/>
<text text-anchor="start" x="948" y="-650.08" font-family="Helvetica,sans-Serif" font-size="9.00">Spinner.tsx</text>
</a>
</g>
</g>
<!-- src/shared/ui/index.ts&#45;&gt;src/shared/ui/Spinner.tsx -->
<g id="edge58" class="edge">
<title>src/shared/ui/index.ts&#45;&gt;src/shared/ui/Spinner.tsx</title>
<path fill="none" stroke="#000000" stroke-width="2" stroke-opacity="0.200000" d="M846.46,-507.81C854.31,-533.26 878.81,-601.95 923.88,-638 926.26,-639.91 928.88,-641.57 931.64,-643.03"/>
<polygon fill="#000000" fill-opacity="0.200000" stroke="#000000" stroke-width="2" stroke-opacity="0.200000" points="931.35,-645.08 937.68,-645.59 933.05,-641.24 931.35,-645.08"/>
</g>
<!-- src/shared/ui/Table.tsx -->
<g id="node52" class="node">
<title>src/shared/ui/Table.tsx</title>
<g id="a_node52"><a xlink:href="src/shared/ui/Table.tsx" xlink:title="Table.tsx">
<path fill="#bbfeff" stroke="black" d="M994.58,-368.62C994.58,-368.62 952.42,-368.62 952.42,-368.62 949.21,-368.62 946,-365.42 946,-362.21 946,-362.21 946,-355.79 946,-355.79 946,-352.58 949.21,-349.38 952.42,-349.38 952.42,-349.38 994.58,-349.38 994.58,-349.38 997.79,-349.38 1001,-352.58 1001,-355.79 1001,-355.79 1001,-362.21 1001,-362.21 1001,-365.42 997.79,-368.62 994.58,-368.62"/>
<text text-anchor="start" x="954" y="-356.07" font-family="Helvetica,sans-Serif" font-size="9.00">Table.tsx</text>
</a>
</g>
</g>
<!-- src/shared/ui/index.ts&#45;&gt;src/shared/ui/Table.tsx -->
<g id="edge59" class="edge">
<title>src/shared/ui/index.ts&#45;&gt;src/shared/ui/Table.tsx</title>
<path fill="none" stroke="#000000" stroke-width="2" stroke-opacity="0.200000" d="M847.32,-487.95C856.48,-464.39 882.57,-405.26 923.88,-374 927.94,-370.93 932.64,-368.48 937.48,-366.52"/>
<polygon fill="#000000" fill-opacity="0.200000" stroke="#000000" stroke-width="2" stroke-opacity="0.200000" points="938.69,-367.64 943.68,-363.69 937.32,-363.67 938.69,-367.64"/>
</g>
<!-- src/shared/ui/TableHeader.tsx -->
<g id="node53" class="node">
<title>src/shared/ui/TableHeader.tsx</title>
<g id="a_node53"><a xlink:href="src/shared/ui/TableHeader.tsx" xlink:title="TableHeader.tsx">
<path fill="#bbfeff" stroke="black" d="M1010.33,-399.62C1010.33,-399.62 936.67,-399.62 936.67,-399.62 933.46,-399.62 930.25,-396.42 930.25,-393.21 930.25,-393.21 930.25,-386.79 930.25,-386.79 930.25,-383.58 933.46,-380.38 936.67,-380.38 936.67,-380.38 1010.33,-380.38 1010.33,-380.38 1013.54,-380.38 1016.75,-383.58 1016.75,-386.79 1016.75,-386.79 1016.75,-393.21 1016.75,-393.21 1016.75,-396.42 1013.54,-399.62 1010.33,-399.62"/>
<text text-anchor="start" x="938.25" y="-387.07" font-family="Helvetica,sans-Serif" font-size="9.00">TableHeader.tsx</text>
</a>
</g>
</g>
<!-- src/shared/ui/index.ts&#45;&gt;src/shared/ui/TableHeader.tsx -->
<g id="edge60" class="edge">
<title>src/shared/ui/index.ts&#45;&gt;src/shared/ui/TableHeader.tsx</title>
<path fill="none" stroke="#000000" stroke-width="2" stroke-opacity="0.200000" d="M850.2,-488.07C862.6,-470.02 891.19,-431.59 923.88,-409 926.57,-407.14 929.47,-405.42 932.47,-403.85"/>
<polygon fill="#000000" fill-opacity="0.200000" stroke="#000000" stroke-width="2" stroke-opacity="0.200000" points="934.03,-405.49 938.55,-401.02 932.23,-401.69 934.03,-405.49"/>
</g>
<!-- src/shared/ui/TableRow.tsx -->
<g id="node54" class="node">
<title>src/shared/ui/TableRow.tsx</title>
<g id="a_node54"><a xlink:href="src/shared/ui/TableRow.tsx" xlink:title="TableRow.tsx">
<path fill="#bbfeff" stroke="black" d="M1103.58,-410.62C1103.58,-410.62 1043.42,-410.62 1043.42,-410.62 1040.21,-410.62 1037,-407.42 1037,-404.21 1037,-404.21 1037,-397.79 1037,-397.79 1037,-394.58 1040.21,-391.38 1043.42,-391.38 1043.42,-391.38 1103.58,-391.38 1103.58,-391.38 1106.79,-391.38 1110,-394.58 1110,-397.79 1110,-397.79 1110,-404.21 1110,-404.21 1110,-407.42 1106.79,-410.62 1103.58,-410.62"/>
<text text-anchor="start" x="1045" y="-398.07" font-family="Helvetica,sans-Serif" font-size="9.00">TableRow.tsx</text>
</a>
</g>
</g>
<!-- src/shared/ui/index.ts&#45;&gt;src/shared/ui/TableRow.tsx -->
<g id="edge61" class="edge">
<title>src/shared/ui/index.ts&#45;&gt;src/shared/ui/TableRow.tsx</title>
<path fill="none" stroke="#000000" stroke-width="2" stroke-opacity="0.200000" d="M850.44,-488.04C862.82,-470.86 890.8,-435.94 923.88,-420 926.24,-418.86 984.78,-411.6 1027.67,-406.39"/>
<polygon fill="#000000" fill-opacity="0.200000" stroke="#000000" stroke-width="2" stroke-opacity="0.200000" points="1027.86,-408.12 1033.56,-405.31 1027.35,-403.95 1027.86,-408.12"/>
</g>
<!-- src/shared/utils/currency.ts -->
<g id="node55" class="node">
<title>src/shared/utils/currency.ts</title>
<g id="a_node55"><a xlink:href="src/shared/utils/currency.ts" xlink:title="currency.ts">
<path fill="#ddfeff" stroke="black" d="M1000.21,-305.62C1000.21,-305.62 946.79,-305.62 946.79,-305.62 943.58,-305.62 940.38,-302.42 940.38,-299.21 940.38,-299.21 940.38,-292.79 940.38,-292.79 940.38,-289.58 943.58,-286.38 946.79,-286.38 946.79,-286.38 1000.21,-286.38 1000.21,-286.38 1003.42,-286.38 1006.62,-289.58 1006.62,-292.79 1006.62,-292.79 1006.62,-299.21 1006.62,-299.21 1006.62,-302.42 1003.42,-305.62 1000.21,-305.62"/>
<text text-anchor="start" x="948.38" y="-293.07" font-family="Helvetica,sans-Serif" font-size="9.00">currency.ts</text>
</a>
</g>
</g>
<!-- src/shared/utils/index.ts&#45;&gt;src/shared/utils/currency.ts -->
<g id="edge62" class="edge">
<title>src/shared/utils/index.ts&#45;&gt;src/shared/utils/currency.ts</title>
<path fill="none" stroke="#000000" stroke-width="2" stroke-opacity="0.200000" d="M870.02,-296C887.64,-296 911.18,-296 931.26,-296"/>
<polygon fill="#000000" fill-opacity="0.200000" stroke="#000000" stroke-width="2" stroke-opacity="0.200000" points="931.21,-298.1 937.21,-296 931.21,-293.9 931.21,-298.1"/>
</g>
<!-- src/features/cabins/CreateCabinForm.jsx -->
<g id="node26" class="node">
<title>src/features/cabins/CreateCabinForm.jsx</title>
<g id="a_node26"><a xlink:href="src/features/cabins/CreateCabinForm.jsx" xlink:title="no&#45;orphans">
<path fill="#ccffcc" stroke="orange" d="M133.83,-256.62C133.83,-256.62 38.42,-256.62 38.42,-256.62 35.21,-256.62 32,-253.42 32,-250.21 32,-250.21 32,-243.79 32,-243.79 32,-240.58 35.21,-237.38 38.42,-237.38 38.42,-237.38 133.83,-237.38 133.83,-237.38 137.04,-237.38 140.25,-240.58 140.25,-243.79 140.25,-243.79 140.25,-250.21 140.25,-250.21 140.25,-253.42 137.04,-256.62 133.83,-256.62"/>
<text text-anchor="start" x="40" y="-244.07" font-family="Helvetica,sans-Serif" font-size="9.00" fill="orange">CreateCabinForm.jsx</text>
</a>
</g>
</g>
<!-- src/pages/account/Account.tsx&#45;&gt;src/shared/ui/index.ts -->
<g id="edge25" class="edge">
<title>src/pages/account/Account.tsx&#45;&gt;src/shared/ui/index.ts</title>
<path fill="none" stroke="#000000" stroke-width="2" stroke-opacity="0.200000" d="M545.45,-728.94C555.63,-725.36 566.73,-720.96 576.5,-716 675.56,-665.68 703.31,-652.78 783.62,-576 802.91,-557.56 820.5,-532.14 831.13,-515.4"/>
<polygon fill="#000000" fill-opacity="0.200000" stroke="#000000" stroke-width="2" stroke-opacity="0.200000" points="833.38,-516.15 834.77,-509.95 829.82,-513.93 833.38,-516.15"/>
</g>
<!-- src/pages/bookings/Bookings.tsx&#45;&gt;src/shared/ui/index.ts -->
<g id="edge27" class="edge">
<title>src/pages/bookings/Bookings.tsx&#45;&gt;src/shared/ui/index.ts</title>
<path fill="none" stroke="#000000" stroke-width="2" stroke-opacity="0.200000" d="M543.53,-665.9C554.11,-662.17 565.95,-657.7 576.5,-653 671.92,-610.53 695.72,-598.4 783.62,-542 797.24,-533.27 811.73,-522.27 822.83,-513.45"/>
<polygon fill="#000000" fill-opacity="0.200000" stroke="#000000" stroke-width="2" stroke-opacity="0.200000" points="824.22,-514.42 827.59,-509.02 821.59,-511.14 824.22,-514.42"/>
</g>
<!-- src/pages/cabins/Cabins.tsx&#45;&gt;src/shared/ui/index.ts -->
<g id="edge30" class="edge">
<title>src/pages/cabins/Cabins.tsx&#45;&gt;src/shared/ui/index.ts</title>
<path fill="none" stroke="#000000" stroke-width="2" stroke-opacity="0.200000" d="M543.28,-603.15C593.69,-586.83 697.12,-552.81 783.62,-521 791.77,-518 800.51,-514.63 808.66,-511.41"/>
<polygon fill="#000000" fill-opacity="0.200000" stroke="#000000" stroke-width="2" stroke-opacity="0.200000" points="810.1,-513.3 814.89,-509.12 808.54,-509.39 810.1,-513.3"/>
</g>
<!-- src/shared/api/index.ts -->
<g id="node30" class="node">
<title>src/shared/api/index.ts</title>
<g id="a_node30"><a xlink:href="src/shared/api/index.ts" xlink:title="index.ts">
<path fill="#ddfeff" stroke="black" d="M863.21,-725.62C863.21,-725.62 822.04,-725.62 822.04,-725.62 818.83,-725.62 815.62,-722.42 815.62,-719.21 815.62,-719.21 815.62,-712.79 815.62,-712.79 815.62,-709.58 818.83,-706.38 822.04,-706.38 822.04,-706.38 863.21,-706.38 863.21,-706.38 866.42,-706.38 869.62,-709.58 869.62,-712.79 869.62,-712.79 869.62,-719.21 869.62,-719.21 869.62,-722.42 866.42,-725.62 863.21,-725.62"/>
<text text-anchor="start" x="824.62" y="-713.08" font-family="Helvetica,sans-Serif" font-size="9.00">index.ts</text>
</a>
</g>
</g>
<!-- src/pages/cabins/Cabins.tsx&#45;&gt;src/shared/api/index.ts -->
<g id="edge29" class="edge">
<title>src/pages/cabins/Cabins.tsx&#45;&gt;src/shared/api/index.ts</title>
<path fill="none" stroke="#000000" stroke-width="2" stroke-opacity="0.200000" d="M543.28,-622.6C604.81,-641.86 742.93,-685.1 807.34,-705.27"/>
<polygon fill="#000000" fill-opacity="0.200000" stroke="#000000" stroke-width="2" stroke-opacity="0.200000" points="807.2,-708.05 813.56,-707.84 808.46,-704.04 807.2,-708.05"/>
</g>
<!-- src/widgets/CabinList/index.ts -->
<g id="node31" class="node">
<title>src/widgets/CabinList/index.ts</title>
<g id="a_node31"><a xlink:href="src/widgets/CabinList/index.ts" xlink:title="index.ts">
<path fill="#ddfeff" stroke="black" d="M655.21,-378.62C655.21,-378.62 614.04,-378.62 614.04,-378.62 610.83,-378.62 607.62,-375.42 607.62,-372.21 607.62,-372.21 607.62,-365.79 607.62,-365.79 607.62,-362.58 610.83,-359.38 614.04,-359.38 614.04,-359.38 655.21,-359.38 655.21,-359.38 658.42,-359.38 661.62,-362.58 661.62,-365.79 661.62,-365.79 661.62,-372.21 661.62,-372.21 661.62,-375.42 658.42,-378.62 655.21,-378.62"/>
<text text-anchor="start" x="616.62" y="-366.07" font-family="Helvetica,sans-Serif" font-size="9.00">index.ts</text>
</a>
</g>
</g>
<!-- src/pages/cabins/Cabins.tsx&#45;&gt;src/widgets/CabinList/index.ts -->
<g id="edge31" class="edge">
<title>src/pages/cabins/Cabins.tsx&#45;&gt;src/widgets/CabinList/index.ts</title>
<path fill="none" stroke="#000000" stroke-width="2" stroke-opacity="0.200000" d="M543.12,-609.47C555.5,-606.39 568.7,-600.65 576.5,-590 590.1,-571.43 570.28,-401.1 584.5,-383 588.18,-378.31 593.31,-375.12 598.88,-372.97"/>
<polygon fill="#000000" fill-opacity="0.200000" stroke="#000000" stroke-width="2" stroke-opacity="0.200000" points="600.08,-374.21 605.23,-370.49 598.89,-370.18 600.08,-374.21"/>
</g>
<!-- src/shared/api/apiCabins.ts -->
<g id="node39" class="node">
<title>src/shared/api/apiCabins.ts</title>
<g id="a_node39"><a xlink:href="src/shared/api/apiCabins.ts" xlink:title="apiCabins.ts">
<path fill="#ddfeff" stroke="black" d="M1002.46,-725.62C1002.46,-725.62 944.54,-725.62 944.54,-725.62 941.33,-725.62 938.12,-722.42 938.12,-719.21 938.12,-719.21 938.12,-712.79 938.12,-712.79 938.12,-709.58 941.33,-706.38 944.54,-706.38 944.54,-706.38 1002.46,-706.38 1002.46,-706.38 1005.67,-706.38 1008.88,-709.58 1008.88,-712.79 1008.88,-712.79 1008.88,-719.21 1008.88,-719.21 1008.88,-722.42 1005.67,-725.62 1002.46,-725.62"/>
<text text-anchor="start" x="946.12" y="-713.08" font-family="Helvetica,sans-Serif" font-size="9.00">apiCabins.ts</text>
</a>
</g>
</g>
<!-- src/shared/api/index.ts&#45;&gt;src/shared/api/apiCabins.ts -->
<g id="edge46" class="edge">
<title>src/shared/api/index.ts&#45;&gt;src/shared/api/apiCabins.ts</title>
<path fill="none" stroke="#000000" stroke-width="2" stroke-opacity="0.200000" d="M870.02,-716C887,-716 909.49,-716 929.06,-716"/>
<polygon fill="#000000" fill-opacity="0.200000" stroke="#000000" stroke-width="2" stroke-opacity="0.200000" points="928.82,-718.1 934.82,-716 928.82,-713.9 928.82,-718.1"/>
</g>
<!-- src/widgets/CabinList/CabinList.tsx -->
<g id="node56" class="node">
<title>src/widgets/CabinList/CabinList.tsx</title>
<g id="a_node56"><a xlink:href="src/widgets/CabinList/CabinList.tsx" xlink:title="CabinList.tsx">
<path fill="#bbfeff" stroke="black" d="M761.21,-378.62C761.21,-378.62 700.29,-378.62 700.29,-378.62 697.08,-378.62 693.88,-375.42 693.88,-372.21 693.88,-372.21 693.88,-365.79 693.88,-365.79 693.88,-362.58 697.08,-359.38 700.29,-359.38 700.29,-359.38 761.21,-359.38 761.21,-359.38 764.42,-359.38 767.62,-362.58 767.62,-365.79 767.62,-365.79 767.62,-372.21 767.62,-372.21 767.62,-375.42 764.42,-378.62 761.21,-378.62"/>
<text text-anchor="start" x="701.88" y="-366.07" font-family="Helvetica,sans-Serif" font-size="9.00">CabinList.tsx</text>
</a>
</g>
</g>
<!-- src/widgets/CabinList/index.ts&#45;&gt;src/widgets/CabinList/CabinList.tsx -->
<g id="edge67" class="edge">
<title>src/widgets/CabinList/index.ts&#45;&gt;src/widgets/CabinList/CabinList.tsx</title>
<path fill="none" stroke="#000000" stroke-width="2" stroke-opacity="0.200000" d="M662.09,-369C669.13,-369 676.93,-369 684.66,-369"/>
<polygon fill="#000000" fill-opacity="0.200000" stroke="#000000" stroke-width="2" stroke-opacity="0.200000" points="684.65,-371.1 690.65,-369 684.65,-366.9 684.65,-371.1"/>
</g>
<!-- src/pages/dashboard/Dashboard.tsx&#45;&gt;src/shared/ui/index.ts -->
<g id="edge33" class="edge">
<title>src/pages/dashboard/Dashboard.tsx&#45;&gt;src/shared/ui/index.ts</title>
<path fill="none" stroke="#000000" stroke-width="2" stroke-opacity="0.200000" d="M552.65,-544.42C605.59,-536.93 701.77,-522.95 783.62,-509 791.1,-507.73 799.11,-506.27 806.71,-504.84"/>
<polygon fill="#000000" fill-opacity="0.200000" stroke="#000000" stroke-width="2" stroke-opacity="0.200000" points="807.89,-506.37 813.39,-503.19 807.1,-502.25 807.89,-506.37"/>
</g>
<!-- src/pages/error/Error.tsx&#45;&gt;src/shared/ui/index.ts -->
<g id="edge35" class="edge">
<title>src/pages/error/Error.tsx&#45;&gt;src/shared/ui/index.ts</title>
<path fill="none" stroke="#000000" stroke-width="2" stroke-opacity="0.200000" d="M539.04,-493.87C552.54,-497.04 569.28,-500.43 584.5,-502 663.52,-510.16 756.9,-505.04 806.51,-501.17"/>
<polygon fill="#000000" fill-opacity="0.200000" stroke="#000000" stroke-width="2" stroke-opacity="0.200000" points="806.44,-503.04 812.25,-500.46 806.11,-498.85 806.44,-503.04"/>
</g>
<!-- src/pages/layouts/PrimaryLayout.tsx&#45;&gt;src/shared/ui/index.ts -->
<g id="edge37" class="edge">
<title>src/pages/layouts/PrimaryLayout.tsx&#45;&gt;src/shared/ui/index.ts</title>
<path fill="none" stroke="#000000" stroke-width="2" stroke-opacity="0.200000" d="M534.8,-434.02C548.49,-441.2 565.47,-452.05 576.5,-466 582.95,-474.16 576.1,-481.87 584.5,-488 601.99,-500.76 740.47,-499.93 806.64,-498.77"/>
<polygon fill="#000000" fill-opacity="0.200000" stroke="#000000" stroke-width="2" stroke-opacity="0.200000" points="806.52,-500.82 812.48,-498.61 806.44,-496.62 806.52,-500.82"/>
</g>
<!-- src/widgets/AppSidebar.tsx -->
<g id="node35" class="node">
<title>src/widgets/AppSidebar.tsx</title>
<g id="a_node35"><a xlink:href="src/widgets/AppSidebar.tsx" xlink:title="AppSidebar.tsx">
<path fill="#bbfeff" stroke="black" d="M670.33,-433.62C670.33,-433.62 598.92,-433.62 598.92,-433.62 595.71,-433.62 592.5,-430.42 592.5,-427.21 592.5,-427.21 592.5,-420.79 592.5,-420.79 592.5,-417.58 595.71,-414.38 598.92,-414.38 598.92,-414.38 670.33,-414.38 670.33,-414.38 673.54,-414.38 676.75,-417.58 676.75,-420.79 676.75,-420.79 676.75,-427.21 676.75,-427.21 676.75,-430.42 673.54,-433.62 670.33,-433.62"/>
<text text-anchor="start" x="600.5" y="-421.07" font-family="Helvetica,sans-Serif" font-size="9.00">AppSidebar.tsx</text>
</a>
</g>
</g>
<!-- src/pages/layouts/PrimaryLayout.tsx&#45;&gt;src/widgets/AppSidebar.tsx -->
<g id="edge38" class="edge">
<title>src/pages/layouts/PrimaryLayout.tsx&#45;&gt;src/widgets/AppSidebar.tsx</title>
<path fill="none" stroke="#000000" stroke-width="2" stroke-opacity="0.200000" d="M560.8,-424C568.28,-424 576.03,-424 583.55,-424"/>
<polygon fill="#000000" fill-opacity="0.200000" stroke="#000000" stroke-width="2" stroke-opacity="0.200000" points="583.25,-426.1 589.25,-424 583.25,-421.9 583.25,-426.1"/>
</g>
<!-- src/widgets/AppSidebar.tsx&#45;&gt;src/shared/lib/react&#45;router/index.ts -->
<g id="edge63" class="edge">
<title>src/widgets/AppSidebar.tsx&#45;&gt;src/shared/lib/react&#45;router/index.ts</title>
<path fill="none" stroke="#000000" stroke-width="2" stroke-opacity="0.200000" d="M638.03,-433.84C648.9,-476.73 697.18,-649.94 791.62,-756 797.43,-762.52 804.94,-768.14 812.36,-772.74"/>
<polygon fill="#000000" fill-opacity="0.200000" stroke="#000000" stroke-width="2" stroke-opacity="0.200000" points="811.44,-774.8 817.69,-775.99 813.55,-771.17 811.44,-774.8"/>
</g>
<!-- src/widgets/AppSidebar.tsx&#45;&gt;src/shared/ui/index.ts -->
<g id="edge64" class="edge">
<title>src/widgets/AppSidebar.tsx&#45;&gt;src/shared/ui/index.ts</title>
<path fill="none" stroke="#000000" stroke-width="2" stroke-opacity="0.200000" d="M676.99,-433.06C707.14,-440.3 748.67,-451.62 783.62,-466 795.49,-470.88 808.03,-477.59 818.4,-483.6"/>
<polygon fill="#000000" fill-opacity="0.200000" stroke="#000000" stroke-width="2" stroke-opacity="0.200000" points="817.63,-485.77 823.86,-487.02 819.77,-482.15 817.63,-485.77"/>
</g>
<!-- src/pages/settings/Settings.tsx&#45;&gt;src/shared/ui/index.ts -->
<g id="edge41" class="edge">
<title>src/pages/settings/Settings.tsx&#45;&gt;src/shared/ui/index.ts</title>
<path fill="none" stroke="#000000" stroke-width="2" stroke-opacity="0.200000" d="M538.6,-245.08C552.4,-251.89 568.18,-262.34 576.5,-277 586.76,-295.09 570.26,-448.84 584.5,-464 586.4,-466.03 780.88,-484.55 783.62,-485 791.09,-486.23 799.04,-487.82 806.58,-489.46"/>
<polygon fill="#000000" fill-opacity="0.200000" stroke="#000000" stroke-width="2" stroke-opacity="0.200000" points="806.87,-492.13 813.19,-491.4 807.79,-488.03 806.87,-492.13"/>
</g>
<!-- src/pages/users/Users.tsx&#45;&gt;src/shared/ui/index.ts -->
<g id="edge43" class="edge">
<title>src/pages/users/Users.tsx&#45;&gt;src/shared/ui/index.ts</title>
<path fill="none" stroke="#000000" stroke-width="2" stroke-opacity="0.200000" d="M538.18,-307.97C552.03,-314.79 567.99,-325.29 576.5,-340 583.97,-352.91 574.13,-463.28 584.5,-474 592.12,-481.88 738.37,-491.74 806.83,-495.95"/>
<polygon fill="#000000" fill-opacity="0.200000" stroke="#000000" stroke-width="2" stroke-opacity="0.200000" points="806.44,-498.21 812.56,-496.48 806.7,-494.02 806.44,-498.21"/>
</g>
<!-- src/shared/api/supabase.ts -->
<g id="node40" class="node">
<title>src/shared/api/supabase.ts</title>
<g id="a_node40"><a xlink:href="src/shared/api/supabase.ts" xlink:title="supabase.ts">
<path fill="#ddfeff" stroke="black" d="M1102.08,-725.62C1102.08,-725.62 1044.92,-725.62 1044.92,-725.62 1041.71,-725.62 1038.5,-722.42 1038.5,-719.21 1038.5,-719.21 1038.5,-712.79 1038.5,-712.79 1038.5,-709.58 1041.71,-706.38 1044.92,-706.38 1044.92,-706.38 1102.08,-706.38 1102.08,-706.38 1105.29,-706.38 1108.5,-709.58 1108.5,-712.79 1108.5,-712.79 1108.5,-719.21 1108.5,-719.21 1108.5,-722.42 1105.29,-725.62 1102.08,-725.62"/>
<text text-anchor="start" x="1046.5" y="-713.08" font-family="Helvetica,sans-Serif" font-size="9.00">supabase.ts</text>
</a>
</g>
</g>
<!-- src/shared/api/apiCabins.ts&#45;&gt;src/shared/api/supabase.ts -->
<g id="edge45" class="edge">
<title>src/shared/api/apiCabins.ts&#45;&gt;src/shared/api/supabase.ts</title>
<path fill="none" stroke="#000000" stroke-width="2" stroke-opacity="0.200000" d="M1009.33,-716C1015.76,-716 1022.54,-716 1029.19,-716"/>
<polygon fill="#000000" fill-opacity="0.200000" stroke="#000000" stroke-width="2" stroke-opacity="0.200000" points="1029.11,-718.1 1035.11,-716 1029.11,-713.9 1029.11,-718.1"/>
</g>
<!-- src/shared/api/apiTypes.ts -->
<g id="node41" class="node">
<title>src/shared/api/apiTypes.ts</title>
<g id="a_node41"><a xlink:href="src/shared/api/apiTypes.ts" xlink:title="apiTypes.ts">
<path fill="#ddfeff" stroke="black" d="M1185.08,-725.62C1185.08,-725.62 1132.42,-725.62 1132.42,-725.62 1129.21,-725.62 1126,-722.42 1126,-719.21 1126,-719.21 1126,-712.79 1126,-712.79 1126,-709.58 1129.21,-706.38 1132.42,-706.38 1132.42,-706.38 1185.08,-706.38 1185.08,-706.38 1188.29,-706.38 1191.5,-709.58 1191.5,-712.79 1191.5,-712.79 1191.5,-719.21 1191.5,-719.21 1191.5,-722.42 1188.29,-725.62 1185.08,-725.62"/>
<text text-anchor="start" x="1134" y="-713.08" font-family="Helvetica,sans-Serif" font-size="9.00">apiTypes.ts</text>
</a>
</g>
</g>
<!-- src/shared/api/supabase.ts&#45;&gt;src/shared/api/apiTypes.ts -->
<g id="edge47" class="edge">
<title>src/shared/api/supabase.ts&#45;&gt;src/shared/api/apiTypes.ts</title>
<path fill="none" stroke="#000000" stroke-width="2" stroke-opacity="0.200000" d="M1108.84,-716C1111.44,-716 1114.09,-716 1116.73,-716"/>
<polygon fill="#000000" fill-opacity="0.200000" stroke="#000000" stroke-width="2" stroke-opacity="0.200000" points="1116.63,-718.1 1122.63,-716 1116.63,-713.9 1116.63,-718.1"/>
</g>
<!-- src/shared/ui/TableHeader.tsx&#45;&gt;src/shared/ui/TableRow.tsx -->
<g id="edge50" class="edge">
<title>src/shared/ui/TableHeader.tsx&#45;&gt;src/shared/ui/TableRow.tsx</title>
<path fill="none" stroke="#000000" stroke-width="2" stroke-opacity="0.200000" d="M1017.2,-394.79C1020.75,-395.19 1024.35,-395.6 1027.92,-396"/>
<polygon fill="#000000" fill-opacity="0.200000" stroke="#000000" stroke-width="2" stroke-opacity="0.200000" points="1027.48,-398.4 1033.68,-396.98 1027.95,-394.22 1027.48,-398.4"/>
</g>
<!-- src/widgets/CabinList/CabinList.tsx&#45;&gt;src/entities/cabin/index.ts -->
<g id="edge65" class="edge">
<title>src/widgets/CabinList/CabinList.tsx&#45;&gt;src/entities/cabin/index.ts</title>
<path fill="none" stroke="#000000" stroke-width="2" stroke-opacity="0.200000" d="M725.61,-358.94C711.02,-323.43 661.8,-203.68 643,-157.95"/>
<polygon fill="#000000" fill-opacity="0.200000" stroke="#000000" stroke-width="2" stroke-opacity="0.200000" points="644.89,-156.59 640.67,-151.84 641.01,-158.19 644.89,-156.59"/>
</g>
<!-- src/widgets/CabinList/CabinList.tsx&#45;&gt;src/shared/ui/index.ts -->
<g id="edge66" class="edge">
<title>src/widgets/CabinList/CabinList.tsx&#45;&gt;src/shared/ui/index.ts</title>
<path fill="none" stroke="#000000" stroke-width="2" stroke-opacity="0.200000" d="M767.98,-374.54C773.61,-376.56 779.07,-379.29 783.62,-383 814.5,-408.16 830.49,-453.98 837.36,-479.53"/>
<polygon fill="#000000" fill-opacity="0.200000" stroke="#000000" stroke-width="2" stroke-opacity="0.200000" points="835.98,-480.65 839.49,-485.95 840.06,-479.62 835.98,-480.65"/>
</g>
</g>
</svg>
