<?xml version="1.0" encoding="UTF-8" standalone="no"?>
<!DOCTYPE svg PUBLIC "-//W3C//DTD SVG 1.1//EN"
 "http://www.w3.org/Graphics/SVG/1.1/DTD/svg11.dtd">
<!-- Generated by graphviz version 8.1.0 (0)
 -->
<!-- Title: dependency&#45;cruiser output Pages: 1 -->
<svg width="703pt" height="729pt"
 viewBox="0.00 0.00 702.50 729.00" xmlns="http://www.w3.org/2000/svg" xmlns:xlink="http://www.w3.org/1999/xlink">
<g id="graph0" class="graph" transform="scale(1 1) rotate(0) translate(4 725)">
<title>dependency&#45;cruiser output</title>
<polygon fill="white" stroke="none" points="-4,4 -4,-725 698.5,-725 698.5,4 -4,4"/>
<g id="clust1" class="cluster">
<title>cluster_src</title>
<path fill="#ffffff" stroke="black" stroke-width="2" d="M20,-8C20,-8 674.5,-8 674.5,-8 680.5,-8 686.5,-14 686.5,-20 686.5,-20 686.5,-701 686.5,-701 686.5,-707 680.5,-713 674.5,-713 674.5,-713 20,-713 20,-713 14,-713 8,-707 8,-701 8,-701 8,-20 8,-20 8,-14 14,-8 20,-8"/>
<text text-anchor="middle" x="347.25" y="-700.45" font-family="Helvetica,sans-Serif" font-weight="bold" font-size="9.00">src</text>
</g>
<g id="clust2" class="cluster">
<title>cluster_src/app</title>
<path fill="#ffffff" stroke="black" stroke-width="2" d="M28,-16C28,-16 481.5,-16 481.5,-16 487.5,-16 493.5,-22 493.5,-28 493.5,-28 493.5,-125 493.5,-125 493.5,-131 487.5,-137 481.5,-137 481.5,-137 28,-137 28,-137 22,-137 16,-131 16,-125 16,-125 16,-28 16,-28 16,-22 22,-16 28,-16"/>
<text text-anchor="middle" x="254.75" y="-124.45" font-family="Helvetica,sans-Serif" font-weight="bold" font-size="9.00">app</text>
</g>
<g id="clust3" class="cluster">
<title>cluster_src/app/layouts</title>
<path fill="#ffffff" stroke="black" stroke-width="2" d="M316.75,-39C316.75,-39 473.5,-39 473.5,-39 479.5,-39 485.5,-45 485.5,-51 485.5,-51 485.5,-82 485.5,-82 485.5,-88 479.5,-94 473.5,-94 473.5,-94 316.75,-94 316.75,-94 310.75,-94 304.75,-88 304.75,-82 304.75,-82 304.75,-51 304.75,-51 304.75,-45 310.75,-39 316.75,-39"/>
<text text-anchor="middle" x="395.12" y="-81.45" font-family="Helvetica,sans-Serif" font-weight="bold" font-size="9.00">layouts</text>
</g>
<g id="clust4" class="cluster">
<title>cluster_src/app/providers</title>
<path fill="#ffffff" stroke="black" stroke-width="2" d="M101.25,-24C101.25,-24 276.75,-24 276.75,-24 282.75,-24 288.75,-30 288.75,-36 288.75,-36 288.75,-98 288.75,-98 288.75,-104 282.75,-110 276.75,-110 276.75,-110 101.25,-110 101.25,-110 95.25,-110 89.25,-104 89.25,-98 89.25,-98 89.25,-36 89.25,-36 89.25,-30 95.25,-24 101.25,-24"/>
<text text-anchor="middle" x="189" y="-97.45" font-family="Helvetica,sans-Serif" font-weight="bold" font-size="9.00">providers</text>
</g>
<g id="clust5" class="cluster">
<title>cluster_src/pages</title>
<path fill="#ffffff" stroke="black" stroke-width="2" d="M308.75,-145C308.75,-145 473.25,-145 473.25,-145 479.25,-145 485.25,-151 485.25,-157 485.25,-157 485.25,-664 485.25,-664 485.25,-670 479.25,-676 473.25,-676 473.25,-676 308.75,-676 308.75,-676 302.75,-676 296.75,-670 296.75,-664 296.75,-664 296.75,-157 296.75,-157 296.75,-151 302.75,-145 308.75,-145"/>
<text text-anchor="middle" x="391" y="-663.45" font-family="Helvetica,sans-Serif" font-weight="bold" font-size="9.00">pages</text>
</g>
<g id="clust6" class="cluster">
<title>cluster_src/pages/account</title>
<path fill="#ffffff" stroke="black" stroke-width="2" d="M316.75,-594C316.75,-594 459.62,-594 459.62,-594 465.62,-594 471.62,-600 471.62,-606 471.62,-606 471.62,-637 471.62,-637 471.62,-643 465.62,-649 459.62,-649 459.62,-649 316.75,-649 316.75,-649 310.75,-649 304.75,-643 304.75,-637 304.75,-637 304.75,-606 304.75,-606 304.75,-600 310.75,-594 316.75,-594"/>
<text text-anchor="middle" x="388.19" y="-636.45" font-family="Helvetica,sans-Serif" font-weight="bold" font-size="9.00">account</text>
</g>
<g id="clust7" class="cluster">
<title>cluster_src/pages/bookings</title>
<path fill="#ffffff" stroke="black" stroke-width="2" d="M316.75,-531C316.75,-531 461.12,-531 461.12,-531 467.12,-531 473.12,-537 473.12,-543 473.12,-543 473.12,-574 473.12,-574 473.12,-580 467.12,-586 461.12,-586 461.12,-586 316.75,-586 316.75,-586 310.75,-586 304.75,-580 304.75,-574 304.75,-574 304.75,-543 304.75,-543 304.75,-537 310.75,-531 316.75,-531"/>
<text text-anchor="middle" x="388.94" y="-573.45" font-family="Helvetica,sans-Serif" font-weight="bold" font-size="9.00">bookings</text>
</g>
<g id="clust8" class="cluster">
<title>cluster_src/pages/cabins</title>
<path fill="#ffffff" stroke="black" stroke-width="2" d="M316.75,-468C316.75,-468 455.88,-468 455.88,-468 461.88,-468 467.88,-474 467.88,-480 467.88,-480 467.88,-511 467.88,-511 467.88,-517 461.88,-523 455.88,-523 455.88,-523 316.75,-523 316.75,-523 310.75,-523 304.75,-517 304.75,-511 304.75,-511 304.75,-480 304.75,-480 304.75,-474 310.75,-468 316.75,-468"/>
<text text-anchor="middle" x="386.31" y="-510.45" font-family="Helvetica,sans-Serif" font-weight="bold" font-size="9.00">cabins</text>
</g>
<g id="clust9" class="cluster">
<title>cluster_src/pages/dashboard</title>
<path fill="#ffffff" stroke="black" stroke-width="2" d="M316.75,-405C316.75,-405 465.25,-405 465.25,-405 471.25,-405 477.25,-411 477.25,-417 477.25,-417 477.25,-448 477.25,-448 477.25,-454 471.25,-460 465.25,-460 465.25,-460 316.75,-460 316.75,-460 310.75,-460 304.75,-454 304.75,-448 304.75,-448 304.75,-417 304.75,-417 304.75,-411 310.75,-405 316.75,-405"/>
<text text-anchor="middle" x="391" y="-447.45" font-family="Helvetica,sans-Serif" font-weight="bold" font-size="9.00">dashboard</text>
</g>
<g id="clust10" class="cluster">
<title>cluster_src/pages/error</title>
<path fill="#ffffff" stroke="black" stroke-width="2" d="M316.75,-342C316.75,-342 451.75,-342 451.75,-342 457.75,-342 463.75,-348 463.75,-354 463.75,-354 463.75,-385 463.75,-385 463.75,-391 457.75,-397 451.75,-397 451.75,-397 316.75,-397 316.75,-397 310.75,-397 304.75,-391 304.75,-385 304.75,-385 304.75,-354 304.75,-354 304.75,-348 310.75,-342 316.75,-342"/>
<text text-anchor="middle" x="384.25" y="-384.45" font-family="Helvetica,sans-Serif" font-weight="bold" font-size="9.00">error</text>
</g>
<g id="clust11" class="cluster">
<title>cluster_src/pages/login</title>
<path fill="#ffffff" stroke="black" stroke-width="2" d="M316.75,-279C316.75,-279 452.88,-279 452.88,-279 458.88,-279 464.88,-285 464.88,-291 464.88,-291 464.88,-322 464.88,-322 464.88,-328 458.88,-334 452.88,-334 452.88,-334 316.75,-334 316.75,-334 310.75,-334 304.75,-328 304.75,-322 304.75,-322 304.75,-291 304.75,-291 304.75,-285 310.75,-279 316.75,-279"/>
<text text-anchor="middle" x="384.81" y="-321.45" font-family="Helvetica,sans-Serif" font-weight="bold" font-size="9.00">login</text>
</g>
<g id="clust12" class="cluster">
<title>cluster_src/pages/settings</title>
<path fill="#ffffff" stroke="black" stroke-width="2" d="M316.75,-216C316.75,-216 459.62,-216 459.62,-216 465.62,-216 471.62,-222 471.62,-228 471.62,-228 471.62,-259 471.62,-259 471.62,-265 465.62,-271 459.62,-271 459.62,-271 316.75,-271 316.75,-271 310.75,-271 304.75,-265 304.75,-259 304.75,-259 304.75,-228 304.75,-228 304.75,-222 310.75,-216 316.75,-216"/>
<text text-anchor="middle" x="388.19" y="-258.45" font-family="Helvetica,sans-Serif" font-weight="bold" font-size="9.00">settings</text>
</g>
<g id="clust13" class="cluster">
<title>cluster_src/pages/users</title>
<path fill="#ffffff" stroke="black" stroke-width="2" d="M316.75,-153C316.75,-153 453.25,-153 453.25,-153 459.25,-153 465.25,-159 465.25,-165 465.25,-165 465.25,-196 465.25,-196 465.25,-202 459.25,-208 453.25,-208 453.25,-208 316.75,-208 316.75,-208 310.75,-208 304.75,-202 304.75,-196 304.75,-196 304.75,-165 304.75,-165 304.75,-159 310.75,-153 316.75,-153"/>
<text text-anchor="middle" x="385" y="-195.45" font-family="Helvetica,sans-Serif" font-weight="bold" font-size="9.00">users</text>
</g>
<g id="clust14" class="cluster">
<title>cluster_src/shared</title>
<path fill="#ffffff" stroke="black" stroke-width="2" d="M513.5,-366C513.5,-366 666.5,-366 666.5,-366 672.5,-366 678.5,-372 678.5,-378 678.5,-378 678.5,-635 678.5,-635 678.5,-641 672.5,-647 666.5,-647 666.5,-647 513.5,-647 513.5,-647 507.5,-647 501.5,-641 501.5,-635 501.5,-635 501.5,-378 501.5,-378 501.5,-372 507.5,-366 513.5,-366"/>
<text text-anchor="middle" x="590" y="-634.45" font-family="Helvetica,sans-Serif" font-weight="bold" font-size="9.00">shared</text>
</g>
<g id="clust15" class="cluster">
<title>cluster_src/shared/lib</title>
<path fill="#ffffff" stroke="black" stroke-width="2" d="M521.5,-530C521.5,-530 658.5,-530 658.5,-530 664.5,-530 670.5,-536 670.5,-542 670.5,-542 670.5,-608 670.5,-608 670.5,-614 664.5,-620 658.5,-620 658.5,-620 521.5,-620 521.5,-620 515.5,-620 509.5,-614 509.5,-608 509.5,-608 509.5,-542 509.5,-542 509.5,-536 515.5,-530 521.5,-530"/>
<text text-anchor="middle" x="590" y="-607.45" font-family="Helvetica,sans-Serif" font-weight="bold" font-size="9.00">lib</text>
</g>
<g id="clust16" class="cluster">
<title>cluster_src/shared/lib/react&#45;router</title>
<path fill="#ffffff" stroke="black" stroke-width="2" d="M529.5,-538C529.5,-538 650.5,-538 650.5,-538 656.5,-538 662.5,-544 662.5,-550 662.5,-550 662.5,-581 662.5,-581 662.5,-587 656.5,-593 650.5,-593 650.5,-593 529.5,-593 529.5,-593 523.5,-593 517.5,-587 517.5,-581 517.5,-581 517.5,-550 517.5,-550 517.5,-544 523.5,-538 529.5,-538"/>
<text text-anchor="middle" x="590" y="-580.45" font-family="Helvetica,sans-Serif" font-weight="bold" font-size="9.00">react&#45;router</text>
</g>
<g id="clust17" class="cluster">
<title>cluster_src/shared/ui</title>
<path fill="#ffffff" stroke="black" stroke-width="2" d="M529.5,-374C529.5,-374 658.5,-374 658.5,-374 664.5,-374 670.5,-380 670.5,-386 670.5,-386 670.5,-510 670.5,-510 670.5,-516 664.5,-522 658.5,-522 658.5,-522 529.5,-522 529.5,-522 523.5,-522 517.5,-516 517.5,-510 517.5,-510 517.5,-386 517.5,-386 517.5,-380 523.5,-374 529.5,-374"/>
<text text-anchor="middle" x="594" y="-509.45" font-family="Helvetica,sans-Serif" font-weight="bold" font-size="9.00">ui</text>
</g>
<!-- src/app/index.tsx -->
<g id="node1" class="node">
<title>src/app/index.tsx</title>
<g id="a_node1"><a xlink:href="src/app/index.tsx" xlink:title="index.tsx">
<path fill="#bbfeff" stroke="black" d="M74.83,-66.62C74.83,-66.62 30.42,-66.62 30.42,-66.62 27.21,-66.62 24,-63.42 24,-60.21 24,-60.21 24,-53.79 24,-53.79 24,-50.58 27.21,-47.38 30.42,-47.38 30.42,-47.38 74.83,-47.38 74.83,-47.38 78.04,-47.38 81.25,-50.58 81.25,-53.79 81.25,-53.79 81.25,-60.21 81.25,-60.21 81.25,-63.42 78.04,-66.62 74.83,-66.62"/>
<text text-anchor="start" x="32" y="-54.08" font-family="Helvetica,sans-Serif" font-size="9.00">index.tsx</text>
</a>
</g>
</g>
<!-- src/app/providers/index.ts -->
<g id="node2" class="node">
<title>src/app/providers/index.ts</title>
<g id="a_node2"><a xlink:href="src/app/providers/index.ts" xlink:title="index.ts">
<path fill="#ddfeff" stroke="black" d="M144.83,-66.62C144.83,-66.62 103.67,-66.62 103.67,-66.62 100.46,-66.62 97.25,-63.42 97.25,-60.21 97.25,-60.21 97.25,-53.79 97.25,-53.79 97.25,-50.58 100.46,-47.38 103.67,-47.38 103.67,-47.38 144.83,-47.38 144.83,-47.38 148.04,-47.38 151.25,-50.58 151.25,-53.79 151.25,-53.79 151.25,-60.21 151.25,-60.21 151.25,-63.42 148.04,-66.62 144.83,-66.62"/>
<text text-anchor="start" x="106.25" y="-54.08" font-family="Helvetica,sans-Serif" font-size="9.00">index.ts</text>
</a>
</g>
</g>
<!-- src/app/index.tsx&#45;&gt;src/app/providers/index.ts -->
<g id="edge1" class="edge">
<title>src/app/index.tsx&#45;&gt;src/app/providers/index.ts</title>
<path fill="none" stroke="#000000" stroke-width="2" stroke-opacity="0.200000" d="M81.54,-57C83.79,-57 86.09,-57 88.38,-57"/>
<polygon fill="#000000" fill-opacity="0.200000" stroke="#000000" stroke-width="2" stroke-opacity="0.200000" points="88.13,-59.1 94.13,-57 88.13,-54.9 88.13,-59.1"/>
</g>
<!-- src/app/providers/AppRouterProvider.tsx -->
<g id="node6" class="node">
<title>src/app/providers/AppRouterProvider.tsx</title>
<g id="a_node6"><a xlink:href="src/app/providers/AppRouterProvider.tsx" xlink:title="AppRouterProvider.tsx">
<path fill="#bbfeff" stroke="black" d="M274.33,-51.62C274.33,-51.62 170.67,-51.62 170.67,-51.62 167.46,-51.62 164.25,-48.42 164.25,-45.21 164.25,-45.21 164.25,-38.79 164.25,-38.79 164.25,-35.58 167.46,-32.38 170.67,-32.38 170.67,-32.38 274.33,-32.38 274.33,-32.38 277.54,-32.38 280.75,-35.58 280.75,-38.79 280.75,-38.79 280.75,-45.21 280.75,-45.21 280.75,-48.42 277.54,-51.62 274.33,-51.62"/>
<text text-anchor="start" x="172.25" y="-39.08" font-family="Helvetica,sans-Serif" font-size="9.00">AppRouterProvider.tsx</text>
</a>
</g>
</g>
<!-- src/app/providers/index.ts&#45;&gt;src/app/providers/AppRouterProvider.tsx -->
<g id="edge14" class="edge">
<title>src/app/providers/index.ts&#45;&gt;src/app/providers/AppRouterProvider.tsx</title>
<path fill="none" stroke="#000000" stroke-width="2" stroke-opacity="0.200000" d="M151.55,-52.9C152.77,-52.71 154.01,-52.52 155.27,-52.32"/>
<polygon fill="#000000" fill-opacity="0.200000" stroke="#000000" stroke-width="2" stroke-opacity="0.200000" points="156.22,-53.99 161.83,-50.99 155.57,-49.84 156.22,-53.99"/>
</g>
<!-- src/app/providers/AppStyleProvider.tsx -->
<g id="node16" class="node">
<title>src/app/providers/AppStyleProvider.tsx</title>
<g id="a_node16"><a xlink:href="src/app/providers/AppStyleProvider.tsx" xlink:title="AppStyleProvider.tsx">
<path fill="#bbfeff" stroke="black" d="M270.58,-82.62C270.58,-82.62 174.42,-82.62 174.42,-82.62 171.21,-82.62 168,-79.42 168,-76.21 168,-76.21 168,-69.79 168,-69.79 168,-66.58 171.21,-63.38 174.42,-63.38 174.42,-63.38 270.58,-63.38 270.58,-63.38 273.79,-63.38 277,-66.58 277,-69.79 277,-69.79 277,-76.21 277,-76.21 277,-79.42 273.79,-82.62 270.58,-82.62"/>
<text text-anchor="start" x="176" y="-70.08" font-family="Helvetica,sans-Serif" font-size="9.00">AppStyleProvider.tsx</text>
</a>
</g>
</g>
<!-- src/app/providers/index.ts&#45;&gt;src/app/providers/AppStyleProvider.tsx -->
<g id="edge15" class="edge">
<title>src/app/providers/index.ts&#45;&gt;src/app/providers/AppStyleProvider.tsx</title>
<path fill="none" stroke="#000000" stroke-width="2" stroke-opacity="0.200000" d="M151.55,-61.37C153.95,-61.77 156.44,-62.19 158.99,-62.61"/>
<polygon fill="#000000" fill-opacity="0.200000" stroke="#000000" stroke-width="2" stroke-opacity="0.200000" points="159.59,-65.17 165.85,-64.08 160.28,-61.03 159.59,-65.17"/>
</g>
<!-- src/app/layouts/PrimaryLayout.tsx -->
<g id="node3" class="node">
<title>src/app/layouts/PrimaryLayout.tsx</title>
<g id="a_node3"><a xlink:href="src/app/layouts/PrimaryLayout.tsx" xlink:title="PrimaryLayout.tsx">
<path fill="#bbfeff" stroke="black" d="M471.08,-66.62C471.08,-66.62 386.17,-66.62 386.17,-66.62 382.96,-66.62 379.75,-63.42 379.75,-60.21 379.75,-60.21 379.75,-53.79 379.75,-53.79 379.75,-50.58 382.96,-47.38 386.17,-47.38 386.17,-47.38 471.08,-47.38 471.08,-47.38 474.29,-47.38 477.5,-50.58 477.5,-53.79 477.5,-53.79 477.5,-60.21 477.5,-60.21 477.5,-63.42 474.29,-66.62 471.08,-66.62"/>
<text text-anchor="start" x="387.75" y="-54.08" font-family="Helvetica,sans-Serif" font-size="9.00">PrimaryLayout.tsx</text>
</a>
</g>
</g>
<!-- src/shared/ui/index.ts -->
<g id="node4" class="node">
<title>src/shared/ui/index.ts</title>
<g id="a_node4"><a xlink:href="src/shared/ui/index.ts" xlink:title="index.ts">
<path fill="#ddfeff" stroke="black" d="M573.08,-432.62C573.08,-432.62 531.92,-432.62 531.92,-432.62 528.71,-432.62 525.5,-429.42 525.5,-426.21 525.5,-426.21 525.5,-419.79 525.5,-419.79 525.5,-416.58 528.71,-413.38 531.92,-413.38 531.92,-413.38 573.08,-413.38 573.08,-413.38 576.29,-413.38 579.5,-416.58 579.5,-419.79 579.5,-419.79 579.5,-426.21 579.5,-426.21 579.5,-429.42 576.29,-432.62 573.08,-432.62"/>
<text text-anchor="start" x="534.5" y="-420.07" font-family="Helvetica,sans-Serif" font-size="9.00">index.ts</text>
</a>
</g>
</g>
<!-- src/app/layouts/PrimaryLayout.tsx&#45;&gt;src/shared/ui/index.ts -->
<g id="edge2" class="edge">
<title>src/app/layouts/PrimaryLayout.tsx&#45;&gt;src/shared/ui/index.ts</title>
<path fill="none" stroke="#000000" stroke-width="2" stroke-opacity="0.200000" d="M438.57,-67.07C452.5,-83.33 479.28,-116.88 493.5,-150 532.24,-240.22 545.99,-358.66 550.04,-404.12"/>
<polygon fill="#000000" fill-opacity="0.200000" stroke="#000000" stroke-width="2" stroke-opacity="0.200000" points="548.18,-404.1 550.78,-409.9 552.37,-403.75 548.18,-404.1"/>
</g>
<!-- src/shared/ui/Header.tsx -->
<g id="node26" class="node">
<title>src/shared/ui/Header.tsx</title>
<g id="a_node26"><a xlink:href="src/shared/ui/Header.tsx" xlink:title="Header.tsx">
<path fill="#bbfeff" stroke="black" d="M653.08,-401.62C653.08,-401.62 601.92,-401.62 601.92,-401.62 598.71,-401.62 595.5,-398.42 595.5,-395.21 595.5,-395.21 595.5,-388.79 595.5,-388.79 595.5,-385.58 598.71,-382.38 601.92,-382.38 601.92,-382.38 653.08,-382.38 653.08,-382.38 656.29,-382.38 659.5,-385.58 659.5,-388.79 659.5,-388.79 659.5,-395.21 659.5,-395.21 659.5,-398.42 656.29,-401.62 653.08,-401.62"/>
<text text-anchor="start" x="603.5" y="-389.07" font-family="Helvetica,sans-Serif" font-size="9.00">Header.tsx</text>
</a>
</g>
</g>
<!-- src/shared/ui/index.ts&#45;&gt;src/shared/ui/Header.tsx -->
<g id="edge32" class="edge">
<title>src/shared/ui/index.ts&#45;&gt;src/shared/ui/Header.tsx</title>
<path fill="none" stroke="#000000" stroke-width="2" stroke-opacity="0.200000" d="M577,-413.02C582.67,-410.61 588.83,-408 594.81,-405.46"/>
<polygon fill="#000000" fill-opacity="0.200000" stroke="#000000" stroke-width="2" stroke-opacity="0.200000" points="596.09,-407.35 600.79,-403.07 594.45,-403.48 596.09,-407.35"/>
</g>
<!-- src/shared/ui/Heading.tsx -->
<g id="node27" class="node">
<title>src/shared/ui/Heading.tsx</title>
<g id="a_node27"><a xlink:href="src/shared/ui/Heading.tsx" xlink:title="Heading.tsx">
<path fill="#bbfeff" stroke="black" d="M656.08,-432.62C656.08,-432.62 598.92,-432.62 598.92,-432.62 595.71,-432.62 592.5,-429.42 592.5,-426.21 592.5,-426.21 592.5,-419.79 592.5,-419.79 592.5,-416.58 595.71,-413.38 598.92,-413.38 598.92,-413.38 656.08,-413.38 656.08,-413.38 659.29,-413.38 662.5,-416.58 662.5,-419.79 662.5,-419.79 662.5,-426.21 662.5,-426.21 662.5,-429.42 659.29,-432.62 656.08,-432.62"/>
<text text-anchor="start" x="600.5" y="-420.07" font-family="Helvetica,sans-Serif" font-size="9.00">Heading.tsx</text>
</a>
</g>
</g>
<!-- src/shared/ui/index.ts&#45;&gt;src/shared/ui/Heading.tsx -->
<g id="edge33" class="edge">
<title>src/shared/ui/index.ts&#45;&gt;src/shared/ui/Heading.tsx</title>
<path fill="none" stroke="#000000" stroke-width="2" stroke-opacity="0.200000" d="M579.85,-423C580.98,-423 582.12,-423 583.27,-423"/>
<polygon fill="#000000" fill-opacity="0.200000" stroke="#000000" stroke-width="2" stroke-opacity="0.200000" points="583.18,-425.1 589.18,-423 583.18,-420.9 583.18,-425.1"/>
</g>
<!-- src/shared/ui/Row.tsx -->
<g id="node28" class="node">
<title>src/shared/ui/Row.tsx</title>
<g id="a_node28"><a xlink:href="src/shared/ui/Row.tsx" xlink:title="Row.tsx">
<path fill="#bbfeff" stroke="black" d="M648.08,-463.62C648.08,-463.62 606.92,-463.62 606.92,-463.62 603.71,-463.62 600.5,-460.42 600.5,-457.21 600.5,-457.21 600.5,-450.79 600.5,-450.79 600.5,-447.58 603.71,-444.38 606.92,-444.38 606.92,-444.38 648.08,-444.38 648.08,-444.38 651.29,-444.38 654.5,-447.58 654.5,-450.79 654.5,-450.79 654.5,-457.21 654.5,-457.21 654.5,-460.42 651.29,-463.62 648.08,-463.62"/>
<text text-anchor="start" x="610.25" y="-451.07" font-family="Helvetica,sans-Serif" font-size="9.00">Row.tsx</text>
</a>
</g>
</g>
<!-- src/shared/ui/index.ts&#45;&gt;src/shared/ui/Row.tsx -->
<g id="edge34" class="edge">
<title>src/shared/ui/index.ts&#45;&gt;src/shared/ui/Row.tsx</title>
<path fill="none" stroke="#000000" stroke-width="2" stroke-opacity="0.200000" d="M577,-432.98C582.67,-435.39 588.83,-438 594.81,-440.54"/>
<polygon fill="#000000" fill-opacity="0.200000" stroke="#000000" stroke-width="2" stroke-opacity="0.200000" points="594.45,-442.52 600.79,-442.93 596.09,-438.65 594.45,-442.52"/>
</g>
<!-- src/shared/ui/Sidebar.tsx -->
<g id="node29" class="node">
<title>src/shared/ui/Sidebar.tsx</title>
<g id="a_node29"><a xlink:href="src/shared/ui/Sidebar.tsx" xlink:title="Sidebar.tsx">
<path fill="#bbfeff" stroke="black" d="M654.21,-494.62C654.21,-494.62 600.79,-494.62 600.79,-494.62 597.58,-494.62 594.38,-491.42 594.38,-488.21 594.38,-488.21 594.38,-481.79 594.38,-481.79 594.38,-478.58 597.58,-475.38 600.79,-475.38 600.79,-475.38 654.21,-475.38 654.21,-475.38 657.42,-475.38 660.62,-478.58 660.62,-481.79 660.62,-481.79 660.62,-488.21 660.62,-488.21 660.62,-491.42 657.42,-494.62 654.21,-494.62"/>
<text text-anchor="start" x="602.38" y="-482.07" font-family="Helvetica,sans-Serif" font-size="9.00">Sidebar.tsx</text>
</a>
</g>
</g>
<!-- src/shared/ui/index.ts&#45;&gt;src/shared/ui/Sidebar.tsx -->
<g id="edge35" class="edge">
<title>src/shared/ui/index.ts&#45;&gt;src/shared/ui/Sidebar.tsx</title>
<path fill="none" stroke="#000000" stroke-width="2" stroke-opacity="0.200000" d="M559.61,-432.79C566.52,-443.18 578.62,-459.52 592.5,-470 592.65,-470.11 592.8,-470.22 592.95,-470.33"/>
<polygon fill="#000000" fill-opacity="0.200000" stroke="#000000" stroke-width="2" stroke-opacity="0.200000" points="591.98,-472.47 598.18,-473.89 594.22,-468.91 591.98,-472.47"/>
</g>
<!-- src/app/layouts/index.ts -->
<g id="node5" class="node">
<title>src/app/layouts/index.ts</title>
<g id="a_node5"><a xlink:href="src/app/layouts/index.ts" xlink:title="index.ts">
<path fill="#ddfeff" stroke="black" d="M360.33,-66.62C360.33,-66.62 319.17,-66.62 319.17,-66.62 315.96,-66.62 312.75,-63.42 312.75,-60.21 312.75,-60.21 312.75,-53.79 312.75,-53.79 312.75,-50.58 315.96,-47.38 319.17,-47.38 319.17,-47.38 360.33,-47.38 360.33,-47.38 363.54,-47.38 366.75,-50.58 366.75,-53.79 366.75,-53.79 366.75,-60.21 366.75,-60.21 366.75,-63.42 363.54,-66.62 360.33,-66.62"/>
<text text-anchor="start" x="321.75" y="-54.08" font-family="Helvetica,sans-Serif" font-size="9.00">index.ts</text>
</a>
</g>
</g>
<!-- src/app/layouts/index.ts&#45;&gt;src/app/layouts/PrimaryLayout.tsx -->
<g id="edge3" class="edge">
<title>src/app/layouts/index.ts&#45;&gt;src/app/layouts/PrimaryLayout.tsx</title>
<path fill="none" stroke="#000000" stroke-width="2" stroke-opacity="0.200000" d="M366.82,-57C368.06,-57 369.34,-57 370.63,-57"/>
<polygon fill="#000000" fill-opacity="0.200000" stroke="#000000" stroke-width="2" stroke-opacity="0.200000" points="370.34,-59.1 376.34,-57 370.34,-54.9 370.34,-59.1"/>
</g>
<!-- src/app/providers/AppRouterProvider.tsx&#45;&gt;src/app/layouts/index.ts -->
<g id="edge4" class="edge">
<title>src/app/providers/AppRouterProvider.tsx&#45;&gt;src/app/layouts/index.ts</title>
<path fill="none" stroke="#000000" stroke-width="2" stroke-opacity="0.200000" d="M281.12,-49.5C288.8,-50.5 296.48,-51.5 303.61,-52.43"/>
<polygon fill="#000000" fill-opacity="0.200000" stroke="#000000" stroke-width="2" stroke-opacity="0.200000" points="303.09,-54.87 309.31,-53.56 303.63,-50.7 303.09,-54.87"/>
</g>
<!-- src/pages/account/index.ts -->
<g id="node7" class="node">
<title>src/pages/account/index.ts</title>
<g id="a_node7"><a xlink:href="src/pages/account/index.ts" xlink:title="index.ts">
<path fill="#ddfeff" stroke="black" d="M360.33,-621.62C360.33,-621.62 319.17,-621.62 319.17,-621.62 315.96,-621.62 312.75,-618.42 312.75,-615.21 312.75,-615.21 312.75,-608.79 312.75,-608.79 312.75,-605.58 315.96,-602.38 319.17,-602.38 319.17,-602.38 360.33,-602.38 360.33,-602.38 363.54,-602.38 366.75,-605.58 366.75,-608.79 366.75,-608.79 366.75,-615.21 366.75,-615.21 366.75,-618.42 363.54,-621.62 360.33,-621.62"/>
<text text-anchor="start" x="321.75" y="-609.08" font-family="Helvetica,sans-Serif" font-size="9.00">index.ts</text>
</a>
</g>
</g>
<!-- src/app/providers/AppRouterProvider.tsx&#45;&gt;src/pages/account/index.ts -->
<g id="edge5" class="edge">
<title>src/app/providers/AppRouterProvider.tsx&#45;&gt;src/pages/account/index.ts</title>
<path fill="none" stroke="#000000" stroke-width="2" stroke-dasharray="5,2" stroke-opacity="0.200000" d="M281.15,-50.09C283.98,-52.01 286.56,-54.29 288.75,-57 307.33,-79.99 281.49,-563.68 296.75,-589 298.94,-592.64 301.93,-595.74 305.31,-598.37"/>
<polygon fill="#000000" fill-opacity="0.200000" stroke="#000000" stroke-width="2" stroke-opacity="0.200000" points="304.49,-600.64 310.67,-602.14 306.78,-597.12 304.49,-600.64"/>
</g>
<!-- src/pages/bookings/index.ts -->
<g id="node8" class="node">
<title>src/pages/bookings/index.ts</title>
<g id="a_node8"><a xlink:href="src/pages/bookings/index.ts" xlink:title="index.ts">
<path fill="#ddfeff" stroke="black" d="M360.33,-558.62C360.33,-558.62 319.17,-558.62 319.17,-558.62 315.96,-558.62 312.75,-555.42 312.75,-552.21 312.75,-552.21 312.75,-545.79 312.75,-545.79 312.75,-542.58 315.96,-539.38 319.17,-539.38 319.17,-539.38 360.33,-539.38 360.33,-539.38 363.54,-539.38 366.75,-542.58 366.75,-545.79 366.75,-545.79 366.75,-552.21 366.75,-552.21 366.75,-555.42 363.54,-558.62 360.33,-558.62"/>
<text text-anchor="start" x="321.75" y="-546.08" font-family="Helvetica,sans-Serif" font-size="9.00">index.ts</text>
</a>
</g>
</g>
<!-- src/app/providers/AppRouterProvider.tsx&#45;&gt;src/pages/bookings/index.ts -->
<g id="edge6" class="edge">
<title>src/app/providers/AppRouterProvider.tsx&#45;&gt;src/pages/bookings/index.ts</title>
<path fill="none" stroke="#000000" stroke-width="2" stroke-dasharray="5,2" stroke-opacity="0.200000" d="M281.14,-50.1C283.98,-52.01 286.55,-54.29 288.75,-57 305.16,-77.25 283.28,-503.69 296.75,-526 298.94,-529.63 301.94,-532.73 305.32,-535.37"/>
<polygon fill="#000000" fill-opacity="0.200000" stroke="#000000" stroke-width="2" stroke-opacity="0.200000" points="304.5,-537.64 310.68,-539.14 306.78,-534.11 304.5,-537.64"/>
</g>
<!-- src/pages/cabins/index.ts -->
<g id="node9" class="node">
<title>src/pages/cabins/index.ts</title>
<g id="a_node9"><a xlink:href="src/pages/cabins/index.ts" xlink:title="index.ts">
<path fill="#ddfeff" stroke="black" d="M360.33,-495.62C360.33,-495.62 319.17,-495.62 319.17,-495.62 315.96,-495.62 312.75,-492.42 312.75,-489.21 312.75,-489.21 312.75,-482.79 312.75,-482.79 312.75,-479.58 315.96,-476.38 319.17,-476.38 319.17,-476.38 360.33,-476.38 360.33,-476.38 363.54,-476.38 366.75,-479.58 366.75,-482.79 366.75,-482.79 366.75,-489.21 366.75,-489.21 366.75,-492.42 363.54,-495.62 360.33,-495.62"/>
<text text-anchor="start" x="321.75" y="-483.07" font-family="Helvetica,sans-Serif" font-size="9.00">index.ts</text>
</a>
</g>
</g>
<!-- src/app/providers/AppRouterProvider.tsx&#45;&gt;src/pages/cabins/index.ts -->
<g id="edge7" class="edge">
<title>src/app/providers/AppRouterProvider.tsx&#45;&gt;src/pages/cabins/index.ts</title>
<path fill="none" stroke="#000000" stroke-width="2" stroke-dasharray="5,2" stroke-opacity="0.200000" d="M281.13,-50.1C283.97,-52.02 286.55,-54.29 288.75,-57 302.98,-74.51 285.06,-443.71 296.75,-463 298.95,-466.63 301.94,-469.73 305.33,-472.36"/>
<polygon fill="#000000" fill-opacity="0.200000" stroke="#000000" stroke-width="2" stroke-opacity="0.200000" points="304.51,-474.63 310.69,-476.13 306.79,-471.11 304.51,-474.63"/>
</g>
<!-- src/pages/dashboard/index.ts -->
<g id="node10" class="node">
<title>src/pages/dashboard/index.ts</title>
<g id="a_node10"><a xlink:href="src/pages/dashboard/index.ts" xlink:title="index.ts">
<path fill="#ddfeff" stroke="black" d="M360.33,-432.62C360.33,-432.62 319.17,-432.62 319.17,-432.62 315.96,-432.62 312.75,-429.42 312.75,-426.21 312.75,-426.21 312.75,-419.79 312.75,-419.79 312.75,-416.58 315.96,-413.38 319.17,-413.38 319.17,-413.38 360.33,-413.38 360.33,-413.38 363.54,-413.38 366.75,-416.58 366.75,-419.79 366.75,-419.79 366.75,-426.21 366.75,-426.21 366.75,-429.42 363.54,-432.62 360.33,-432.62"/>
<text text-anchor="start" x="321.75" y="-420.07" font-family="Helvetica,sans-Serif" font-size="9.00">index.ts</text>
</a>
</g>
</g>
<!-- src/app/providers/AppRouterProvider.tsx&#45;&gt;src/pages/dashboard/index.ts -->
<g id="edge8" class="edge">
<title>src/app/providers/AppRouterProvider.tsx&#45;&gt;src/pages/dashboard/index.ts</title>
<path fill="none" stroke="#000000" stroke-width="2" stroke-dasharray="5,2" stroke-opacity="0.200000" d="M281.12,-50.11C283.96,-52.02 286.55,-54.3 288.75,-57 300.8,-71.77 286.84,-383.72 296.75,-400 298.85,-403.45 301.66,-406.42 304.84,-408.96"/>
<polygon fill="#000000" fill-opacity="0.200000" stroke="#000000" stroke-width="2" stroke-opacity="0.200000" points="304.1,-411.32 310.26,-412.88 306.42,-407.82 304.1,-411.32"/>
</g>
<!-- src/pages/error/index.ts -->
<g id="node11" class="node">
<title>src/pages/error/index.ts</title>
<g id="a_node11"><a xlink:href="src/pages/error/index.ts" xlink:title="index.ts">
<path fill="#ddfeff" stroke="black" d="M360.33,-369.62C360.33,-369.62 319.17,-369.62 319.17,-369.62 315.96,-369.62 312.75,-366.42 312.75,-363.21 312.75,-363.21 312.75,-356.79 312.75,-356.79 312.75,-353.58 315.96,-350.38 319.17,-350.38 319.17,-350.38 360.33,-350.38 360.33,-350.38 363.54,-350.38 366.75,-353.58 366.75,-356.79 366.75,-356.79 366.75,-363.21 366.75,-363.21 366.75,-366.42 363.54,-369.62 360.33,-369.62"/>
<text text-anchor="start" x="321.75" y="-357.07" font-family="Helvetica,sans-Serif" font-size="9.00">index.ts</text>
</a>
</g>
</g>
<!-- src/app/providers/AppRouterProvider.tsx&#45;&gt;src/pages/error/index.ts -->
<g id="edge9" class="edge">
<title>src/app/providers/AppRouterProvider.tsx&#45;&gt;src/pages/error/index.ts</title>
<path fill="none" stroke="#000000" stroke-width="2" stroke-opacity="0.200000" d="M281.1,-50.13C283.95,-52.03 286.54,-54.3 288.75,-57 308.48,-81.07 280.5,-310.45 296.75,-337 298.86,-340.44 301.68,-343.41 304.86,-345.95"/>
<polygon fill="#000000" fill-opacity="0.200000" stroke="#000000" stroke-width="2" stroke-opacity="0.200000" points="304.12,-348.31 310.28,-349.87 306.44,-344.81 304.12,-348.31"/>
</g>
<!-- src/pages/login/index.ts -->
<g id="node12" class="node">
<title>src/pages/login/index.ts</title>
<g id="a_node12"><a xlink:href="src/pages/login/index.ts" xlink:title="index.ts">
<path fill="#ddfeff" stroke="black" d="M360.33,-306.62C360.33,-306.62 319.17,-306.62 319.17,-306.62 315.96,-306.62 312.75,-303.42 312.75,-300.21 312.75,-300.21 312.75,-293.79 312.75,-293.79 312.75,-290.58 315.96,-287.38 319.17,-287.38 319.17,-287.38 360.33,-287.38 360.33,-287.38 363.54,-287.38 366.75,-290.58 366.75,-293.79 366.75,-293.79 366.75,-300.21 366.75,-300.21 366.75,-303.42 363.54,-306.62 360.33,-306.62"/>
<text text-anchor="start" x="321.75" y="-294.07" font-family="Helvetica,sans-Serif" font-size="9.00">index.ts</text>
</a>
</g>
</g>
<!-- src/app/providers/AppRouterProvider.tsx&#45;&gt;src/pages/login/index.ts -->
<g id="edge10" class="edge">
<title>src/app/providers/AppRouterProvider.tsx&#45;&gt;src/pages/login/index.ts</title>
<path fill="none" stroke="#000000" stroke-width="2" stroke-dasharray="5,2" stroke-opacity="0.200000" d="M281.08,-50.15C283.93,-52.05 286.53,-54.31 288.75,-57 304.12,-75.6 284.07,-253.47 296.75,-274 298.87,-277.43 301.7,-280.39 304.89,-282.93"/>
<polygon fill="#000000" fill-opacity="0.200000" stroke="#000000" stroke-width="2" stroke-opacity="0.200000" points="304.16,-285.29 310.32,-286.85 306.47,-281.79 304.16,-285.29"/>
</g>
<!-- src/pages/settings/index.ts -->
<g id="node13" class="node">
<title>src/pages/settings/index.ts</title>
<g id="a_node13"><a xlink:href="src/pages/settings/index.ts" xlink:title="index.ts">
<path fill="#ddfeff" stroke="black" d="M360.33,-243.62C360.33,-243.62 319.17,-243.62 319.17,-243.62 315.96,-243.62 312.75,-240.42 312.75,-237.21 312.75,-237.21 312.75,-230.79 312.75,-230.79 312.75,-227.58 315.96,-224.38 319.17,-224.38 319.17,-224.38 360.33,-224.38 360.33,-224.38 363.54,-224.38 366.75,-227.58 366.75,-230.79 366.75,-230.79 366.75,-237.21 366.75,-237.21 366.75,-240.42 363.54,-243.62 360.33,-243.62"/>
<text text-anchor="start" x="321.75" y="-231.07" font-family="Helvetica,sans-Serif" font-size="9.00">index.ts</text>
</a>
</g>
</g>
<!-- src/app/providers/AppRouterProvider.tsx&#45;&gt;src/pages/settings/index.ts -->
<g id="edge11" class="edge">
<title>src/app/providers/AppRouterProvider.tsx&#45;&gt;src/pages/settings/index.ts</title>
<path fill="none" stroke="#000000" stroke-width="2" stroke-dasharray="5,2" stroke-opacity="0.200000" d="M281.03,-50.19C283.9,-52.08 286.51,-54.33 288.75,-57 299.77,-70.12 287.64,-196.49 296.75,-211 298.9,-214.42 301.74,-217.37 304.94,-219.9"/>
<polygon fill="#000000" fill-opacity="0.200000" stroke="#000000" stroke-width="2" stroke-opacity="0.200000" points="304.21,-222.26 310.38,-223.81 306.53,-218.75 304.21,-222.26"/>
</g>
<!-- src/pages/users/index.ts -->
<g id="node14" class="node">
<title>src/pages/users/index.ts</title>
<g id="a_node14"><a xlink:href="src/pages/users/index.ts" xlink:title="index.ts">
<path fill="#ddfeff" stroke="black" d="M360.33,-180.62C360.33,-180.62 319.17,-180.62 319.17,-180.62 315.96,-180.62 312.75,-177.42 312.75,-174.21 312.75,-174.21 312.75,-167.79 312.75,-167.79 312.75,-164.58 315.96,-161.38 319.17,-161.38 319.17,-161.38 360.33,-161.38 360.33,-161.38 363.54,-161.38 366.75,-164.58 366.75,-167.79 366.75,-167.79 366.75,-174.21 366.75,-174.21 366.75,-177.42 363.54,-180.62 360.33,-180.62"/>
<text text-anchor="start" x="321.75" y="-168.07" font-family="Helvetica,sans-Serif" font-size="9.00">index.ts</text>
</a>
</g>
</g>
<!-- src/app/providers/AppRouterProvider.tsx&#45;&gt;src/pages/users/index.ts -->
<g id="edge12" class="edge">
<title>src/app/providers/AppRouterProvider.tsx&#45;&gt;src/pages/users/index.ts</title>
<path fill="none" stroke="#000000" stroke-width="2" stroke-dasharray="5,2" stroke-opacity="0.200000" d="M281.18,-50.95C283.93,-52.66 286.48,-54.67 288.75,-57 301.39,-70 290.42,-80.01 296.75,-97 304.41,-117.56 317.32,-139.16 326.81,-153.69"/>
<polygon fill="#000000" fill-opacity="0.200000" stroke="#000000" stroke-width="2" stroke-opacity="0.200000" points="325.59,-155.15 330.67,-158.97 329.09,-152.82 325.59,-155.15"/>
</g>
<!-- src/shared/lib/react&#45;router/index.ts -->
<g id="node15" class="node">
<title>src/shared/lib/react&#45;router/index.ts</title>
<g id="a_node15"><a xlink:href="src/shared/lib/react-router/index.ts" xlink:title="index.ts">
<path fill="#ddfeff" stroke="black" d="M573.08,-565.62C573.08,-565.62 531.92,-565.62 531.92,-565.62 528.71,-565.62 525.5,-562.42 525.5,-559.21 525.5,-559.21 525.5,-552.79 525.5,-552.79 525.5,-549.58 528.71,-546.38 531.92,-546.38 531.92,-546.38 573.08,-546.38 573.08,-546.38 576.29,-546.38 579.5,-549.58 579.5,-552.79 579.5,-552.79 579.5,-559.21 579.5,-559.21 579.5,-562.42 576.29,-565.62 573.08,-565.62"/>
<text text-anchor="start" x="534.5" y="-553.08" font-family="Helvetica,sans-Serif" font-size="9.00">index.ts</text>
</a>
</g>
</g>
<!-- src/app/providers/AppRouterProvider.tsx&#45;&gt;src/shared/lib/react&#45;router/index.ts -->
<g id="edge13" class="edge">
<title>src/app/providers/AppRouterProvider.tsx&#45;&gt;src/shared/lib/react&#45;router/index.ts</title>
<path fill="none" stroke="#000000" stroke-width="2" stroke-opacity="0.200000" d="M281.15,-50.09C283.99,-52 286.56,-54.29 288.75,-57 299.13,-69.86 284.98,-640.39 296.75,-652 359,-713.42 417.34,-694.97 493.5,-652 522.86,-635.43 539.04,-597.36 546.43,-574.45"/>
<polygon fill="#000000" fill-opacity="0.200000" stroke="#000000" stroke-width="2" stroke-opacity="0.200000" points="549.28,-574.29 549,-567.94 545.26,-573.08 549.28,-574.29"/>
</g>
<!-- src/pages/account/Account.tsx -->
<g id="node17" class="node">
<title>src/pages/account/Account.tsx</title>
<g id="a_node17"><a xlink:href="src/pages/account/Account.tsx" xlink:title="Account.tsx">
<path fill="#bbfeff" stroke="black" d="M457.21,-621.62C457.21,-621.62 400.04,-621.62 400.04,-621.62 396.83,-621.62 393.62,-618.42 393.62,-615.21 393.62,-615.21 393.62,-608.79 393.62,-608.79 393.62,-605.58 396.83,-602.38 400.04,-602.38 400.04,-602.38 457.21,-602.38 457.21,-602.38 460.42,-602.38 463.62,-605.58 463.62,-608.79 463.62,-608.79 463.62,-615.21 463.62,-615.21 463.62,-618.42 460.42,-621.62 457.21,-621.62"/>
<text text-anchor="start" x="401.62" y="-609.08" font-family="Helvetica,sans-Serif" font-size="9.00">Account.tsx</text>
</a>
</g>
</g>
<!-- src/pages/account/index.ts&#45;&gt;src/pages/account/Account.tsx -->
<g id="edge17" class="edge">
<title>src/pages/account/index.ts&#45;&gt;src/pages/account/Account.tsx</title>
<path fill="none" stroke="#000000" stroke-width="2" stroke-opacity="0.200000" d="M366.82,-612C372.39,-612 378.42,-612 384.45,-612"/>
<polygon fill="#000000" fill-opacity="0.200000" stroke="#000000" stroke-width="2" stroke-opacity="0.200000" points="384.21,-614.1 390.21,-612 384.21,-609.9 384.21,-614.1"/>
</g>
<!-- src/pages/bookings/Bookings.tsx -->
<g id="node18" class="node">
<title>src/pages/bookings/Bookings.tsx</title>
<g id="a_node18"><a xlink:href="src/pages/bookings/Bookings.tsx" xlink:title="Bookings.tsx">
<path fill="#bbfeff" stroke="black" d="M458.71,-558.62C458.71,-558.62 398.54,-558.62 398.54,-558.62 395.33,-558.62 392.12,-555.42 392.12,-552.21 392.12,-552.21 392.12,-545.79 392.12,-545.79 392.12,-542.58 395.33,-539.38 398.54,-539.38 398.54,-539.38 458.71,-539.38 458.71,-539.38 461.92,-539.38 465.12,-542.58 465.12,-545.79 465.12,-545.79 465.12,-552.21 465.12,-552.21 465.12,-555.42 461.92,-558.62 458.71,-558.62"/>
<text text-anchor="start" x="400.12" y="-546.08" font-family="Helvetica,sans-Serif" font-size="9.00">Bookings.tsx</text>
</a>
</g>
</g>
<!-- src/pages/bookings/index.ts&#45;&gt;src/pages/bookings/Bookings.tsx -->
<g id="edge19" class="edge">
<title>src/pages/bookings/index.ts&#45;&gt;src/pages/bookings/Bookings.tsx</title>
<path fill="none" stroke="#000000" stroke-width="2" stroke-opacity="0.200000" d="M366.82,-549C372,-549 377.57,-549 383.17,-549"/>
<polygon fill="#000000" fill-opacity="0.200000" stroke="#000000" stroke-width="2" stroke-opacity="0.200000" points="382.94,-551.1 388.94,-549 382.94,-546.9 382.94,-551.1"/>
</g>
<!-- src/pages/cabins/Cabins.tsx -->
<g id="node19" class="node">
<title>src/pages/cabins/Cabins.tsx</title>
<g id="a_node19"><a xlink:href="src/pages/cabins/Cabins.tsx" xlink:title="Cabins.tsx">
<path fill="#bbfeff" stroke="black" d="M453.46,-495.62C453.46,-495.62 403.79,-495.62 403.79,-495.62 400.58,-495.62 397.38,-492.42 397.38,-489.21 397.38,-489.21 397.38,-482.79 397.38,-482.79 397.38,-479.58 400.58,-476.38 403.79,-476.38 403.79,-476.38 453.46,-476.38 453.46,-476.38 456.67,-476.38 459.88,-479.58 459.88,-482.79 459.88,-482.79 459.88,-489.21 459.88,-489.21 459.88,-492.42 456.67,-495.62 453.46,-495.62"/>
<text text-anchor="start" x="405.38" y="-483.07" font-family="Helvetica,sans-Serif" font-size="9.00">Cabins.tsx</text>
</a>
</g>
</g>
<!-- src/pages/cabins/index.ts&#45;&gt;src/pages/cabins/Cabins.tsx -->
<g id="edge21" class="edge">
<title>src/pages/cabins/index.ts&#45;&gt;src/pages/cabins/Cabins.tsx</title>
<path fill="none" stroke="#000000" stroke-width="2" stroke-opacity="0.200000" d="M366.82,-486C373.49,-486 380.82,-486 388.02,-486"/>
<polygon fill="#000000" fill-opacity="0.200000" stroke="#000000" stroke-width="2" stroke-opacity="0.200000" points="387.99,-488.1 393.99,-486 387.99,-483.9 387.99,-488.1"/>
</g>
<!-- src/pages/dashboard/Dashboard.tsx -->
<g id="node20" class="node">
<title>src/pages/dashboard/Dashboard.tsx</title>
<g id="a_node20"><a xlink:href="src/pages/dashboard/Dashboard.tsx" xlink:title="Dashboard.tsx">
<path fill="#bbfeff" stroke="black" d="M462.83,-432.62C462.83,-432.62 394.42,-432.62 394.42,-432.62 391.21,-432.62 388,-429.42 388,-426.21 388,-426.21 388,-419.79 388,-419.79 388,-416.58 391.21,-413.38 394.42,-413.38 394.42,-413.38 462.83,-413.38 462.83,-413.38 466.04,-413.38 469.25,-416.58 469.25,-419.79 469.25,-419.79 469.25,-426.21 469.25,-426.21 469.25,-429.42 466.04,-432.62 462.83,-432.62"/>
<text text-anchor="start" x="396" y="-420.07" font-family="Helvetica,sans-Serif" font-size="9.00">Dashboard.tsx</text>
</a>
</g>
</g>
<!-- src/pages/dashboard/index.ts&#45;&gt;src/pages/dashboard/Dashboard.tsx -->
<g id="edge23" class="edge">
<title>src/pages/dashboard/index.ts&#45;&gt;src/pages/dashboard/Dashboard.tsx</title>
<path fill="none" stroke="#000000" stroke-width="2" stroke-opacity="0.200000" d="M366.82,-423C370.73,-423 374.88,-423 379.08,-423"/>
<polygon fill="#000000" fill-opacity="0.200000" stroke="#000000" stroke-width="2" stroke-opacity="0.200000" points="378.76,-425.1 384.76,-423 378.76,-420.9 378.76,-425.1"/>
</g>
<!-- src/pages/error/Error.tsx -->
<g id="node21" class="node">
<title>src/pages/error/Error.tsx</title>
<g id="a_node21"><a xlink:href="src/pages/error/Error.tsx" xlink:title="Error.tsx">
<path fill="#bbfeff" stroke="black" d="M449.33,-369.62C449.33,-369.62 407.92,-369.62 407.92,-369.62 404.71,-369.62 401.5,-366.42 401.5,-363.21 401.5,-363.21 401.5,-356.79 401.5,-356.79 401.5,-353.58 404.71,-350.38 407.92,-350.38 407.92,-350.38 449.33,-350.38 449.33,-350.38 452.54,-350.38 455.75,-353.58 455.75,-356.79 455.75,-356.79 455.75,-363.21 455.75,-363.21 455.75,-366.42 452.54,-369.62 449.33,-369.62"/>
<text text-anchor="start" x="409.5" y="-357.07" font-family="Helvetica,sans-Serif" font-size="9.00">Error.tsx</text>
</a>
</g>
</g>
<!-- src/pages/error/index.ts&#45;&gt;src/pages/error/Error.tsx -->
<g id="edge25" class="edge">
<title>src/pages/error/index.ts&#45;&gt;src/pages/error/Error.tsx</title>
<path fill="none" stroke="#000000" stroke-width="2" stroke-opacity="0.200000" d="M366.82,-360C374.9,-360 383.95,-360 392.54,-360"/>
<polygon fill="#000000" fill-opacity="0.200000" stroke="#000000" stroke-width="2" stroke-opacity="0.200000" points="392.28,-362.1 398.28,-360 392.28,-357.9 392.28,-362.1"/>
</g>
<!-- src/pages/login/Login.tsx -->
<g id="node22" class="node">
<title>src/pages/login/Login.tsx</title>
<g id="a_node22"><a xlink:href="src/pages/login/Login.tsx" xlink:title="Login.tsx">
<path fill="#bbfeff" stroke="black" d="M450.46,-306.62C450.46,-306.62 406.79,-306.62 406.79,-306.62 403.58,-306.62 400.38,-303.42 400.38,-300.21 400.38,-300.21 400.38,-293.79 400.38,-293.79 400.38,-290.58 403.58,-287.38 406.79,-287.38 406.79,-287.38 450.46,-287.38 450.46,-287.38 453.67,-287.38 456.88,-290.58 456.88,-293.79 456.88,-293.79 456.88,-300.21 456.88,-300.21 456.88,-303.42 453.67,-306.62 450.46,-306.62"/>
<text text-anchor="start" x="408.38" y="-294.07" font-family="Helvetica,sans-Serif" font-size="9.00">Login.tsx</text>
</a>
</g>
</g>
<!-- src/pages/login/index.ts&#45;&gt;src/pages/login/Login.tsx -->
<g id="edge26" class="edge">
<title>src/pages/login/index.ts&#45;&gt;src/pages/login/Login.tsx</title>
<path fill="none" stroke="#000000" stroke-width="2" stroke-opacity="0.200000" d="M366.82,-297C374.44,-297 382.92,-297 391.07,-297"/>
<polygon fill="#000000" fill-opacity="0.200000" stroke="#000000" stroke-width="2" stroke-opacity="0.200000" points="391.07,-299.1 397.07,-297 391.07,-294.9 391.07,-299.1"/>
</g>
<!-- src/pages/settings/Settings.tsx -->
<g id="node23" class="node">
<title>src/pages/settings/Settings.tsx</title>
<g id="a_node23"><a xlink:href="src/pages/settings/Settings.tsx" xlink:title="Settings.tsx">
<path fill="#bbfeff" stroke="black" d="M457.21,-243.62C457.21,-243.62 400.04,-243.62 400.04,-243.62 396.83,-243.62 393.62,-240.42 393.62,-237.21 393.62,-237.21 393.62,-230.79 393.62,-230.79 393.62,-227.58 396.83,-224.38 400.04,-224.38 400.04,-224.38 457.21,-224.38 457.21,-224.38 460.42,-224.38 463.62,-227.58 463.62,-230.79 463.62,-230.79 463.62,-237.21 463.62,-237.21 463.62,-240.42 460.42,-243.62 457.21,-243.62"/>
<text text-anchor="start" x="401.62" y="-231.07" font-family="Helvetica,sans-Serif" font-size="9.00">Settings.tsx</text>
</a>
</g>
</g>
<!-- src/pages/settings/index.ts&#45;&gt;src/pages/settings/Settings.tsx -->
<g id="edge28" class="edge">
<title>src/pages/settings/index.ts&#45;&gt;src/pages/settings/Settings.tsx</title>
<path fill="none" stroke="#000000" stroke-width="2" stroke-opacity="0.200000" d="M366.82,-234C372.39,-234 378.42,-234 384.45,-234"/>
<polygon fill="#000000" fill-opacity="0.200000" stroke="#000000" stroke-width="2" stroke-opacity="0.200000" points="384.21,-236.1 390.21,-234 384.21,-231.9 384.21,-236.1"/>
</g>
<!-- src/pages/users/Users.tsx -->
<g id="node24" class="node">
<title>src/pages/users/Users.tsx</title>
<g id="a_node24"><a xlink:href="src/pages/users/Users.tsx" xlink:title="Users.tsx">
<path fill="#bbfeff" stroke="black" d="M450.83,-180.62C450.83,-180.62 406.42,-180.62 406.42,-180.62 403.21,-180.62 400,-177.42 400,-174.21 400,-174.21 400,-167.79 400,-167.79 400,-164.58 403.21,-161.38 406.42,-161.38 406.42,-161.38 450.83,-161.38 450.83,-161.38 454.04,-161.38 457.25,-164.58 457.25,-167.79 457.25,-167.79 457.25,-174.21 457.25,-174.21 457.25,-177.42 454.04,-180.62 450.83,-180.62"/>
<text text-anchor="start" x="408" y="-168.07" font-family="Helvetica,sans-Serif" font-size="9.00">Users.tsx</text>
</a>
</g>
</g>
<!-- src/pages/users/index.ts&#45;&gt;src/pages/users/Users.tsx -->
<g id="edge30" class="edge">
<title>src/pages/users/index.ts&#45;&gt;src/pages/users/Users.tsx</title>
<path fill="none" stroke="#000000" stroke-width="2" stroke-opacity="0.200000" d="M366.82,-171C374.37,-171 382.76,-171 390.84,-171"/>
<polygon fill="#000000" fill-opacity="0.200000" stroke="#000000" stroke-width="2" stroke-opacity="0.200000" points="390.76,-173.1 396.76,-171 390.76,-168.9 390.76,-173.1"/>
</g>
<!-- src/shared/lib/react&#45;router/paths.ts -->
<g id="node25" class="node">
<title>src/shared/lib/react&#45;router/paths.ts</title>
<g id="a_node25"><a xlink:href="src/shared/lib/react-router/paths.ts" xlink:title="paths.ts">
<path fill="#ddfeff" stroke="black" d="M648.08,-565.62C648.08,-565.62 606.92,-565.62 606.92,-565.62 603.71,-565.62 600.5,-562.42 600.5,-559.21 600.5,-559.21 600.5,-552.79 600.5,-552.79 600.5,-549.58 603.71,-546.38 606.92,-546.38 606.92,-546.38 648.08,-546.38 648.08,-546.38 651.29,-546.38 654.5,-549.58 654.5,-552.79 654.5,-552.79 654.5,-559.21 654.5,-559.21 654.5,-562.42 651.29,-565.62 648.08,-565.62"/>
<text text-anchor="start" x="609.12" y="-553.08" font-family="Helvetica,sans-Serif" font-size="9.00">paths.ts</text>
</a>
</g>
</g>
<!-- src/shared/lib/react&#45;router/index.ts&#45;&gt;src/shared/lib/react&#45;router/paths.ts -->
<g id="edge31" class="edge">
<title>src/shared/lib/react&#45;router/index.ts&#45;&gt;src/shared/lib/react&#45;router/paths.ts</title>
<path fill="none" stroke="#000000" stroke-width="2" stroke-opacity="0.200000" d="M579.85,-556C583.62,-556 587.55,-556 591.45,-556"/>
<polygon fill="#000000" fill-opacity="0.200000" stroke="#000000" stroke-width="2" stroke-opacity="0.200000" points="591.43,-558.1 597.43,-556 591.43,-553.9 591.43,-558.1"/>
</g>
<!-- src/pages/account/Account.tsx&#45;&gt;src/shared/ui/index.ts -->
<g id="edge16" class="edge">
<title>src/pages/account/Account.tsx&#45;&gt;src/shared/ui/index.ts</title>
<path fill="none" stroke="#000000" stroke-width="2" stroke-opacity="0.200000" d="M463.89,-606.85C474.88,-603.51 486.11,-598.03 493.5,-589 508.87,-570.23 494.71,-558.29 501.5,-535 511.65,-500.17 530.44,-462.09 541.87,-440.51"/>
<polygon fill="#000000" fill-opacity="0.200000" stroke="#000000" stroke-width="2" stroke-opacity="0.200000" points="544,-441.12 544.99,-434.84 540.3,-439.13 544,-441.12"/>
</g>
<!-- src/pages/bookings/Bookings.tsx&#45;&gt;src/shared/ui/index.ts -->
<g id="edge18" class="edge">
<title>src/pages/bookings/Bookings.tsx&#45;&gt;src/shared/ui/index.ts</title>
<path fill="none" stroke="#000000" stroke-width="2" stroke-opacity="0.200000" d="M465.48,-541.05C475.33,-537.62 485.49,-532.77 493.5,-526 520.5,-503.18 537.42,-464.43 545.61,-441.52"/>
<polygon fill="#000000" fill-opacity="0.200000" stroke="#000000" stroke-width="2" stroke-opacity="0.200000" points="548.55,-441.4 548.5,-435.04 544.58,-440.05 548.55,-441.4"/>
</g>
<!-- src/pages/cabins/Cabins.tsx&#45;&gt;src/shared/ui/index.ts -->
<g id="edge20" class="edge">
<title>src/pages/cabins/Cabins.tsx&#45;&gt;src/shared/ui/index.ts</title>
<path fill="none" stroke="#000000" stroke-width="2" stroke-opacity="0.200000" d="M460.2,-476.79C470.98,-473.08 483.02,-468.39 493.5,-463 507.11,-456 521.27,-446.29 532.2,-438.19"/>
<polygon fill="#000000" fill-opacity="0.200000" stroke="#000000" stroke-width="2" stroke-opacity="0.200000" points="533.68,-439.19 537.19,-433.89 531.14,-435.84 533.68,-439.19"/>
</g>
<!-- src/pages/dashboard/Dashboard.tsx&#45;&gt;src/shared/ui/index.ts -->
<g id="edge22" class="edge">
<title>src/pages/dashboard/Dashboard.tsx&#45;&gt;src/shared/ui/index.ts</title>
<path fill="none" stroke="#000000" stroke-width="2" stroke-opacity="0.200000" d="M469.53,-423C484.71,-423 501.87,-423 516.55,-423"/>
<polygon fill="#000000" fill-opacity="0.200000" stroke="#000000" stroke-width="2" stroke-opacity="0.200000" points="516.34,-425.1 522.34,-423 516.34,-420.9 516.34,-425.1"/>
</g>
<!-- src/pages/error/Error.tsx&#45;&gt;src/shared/ui/index.ts -->
<g id="edge24" class="edge">
<title>src/pages/error/Error.tsx&#45;&gt;src/shared/ui/index.ts</title>
<path fill="none" stroke="#000000" stroke-width="2" stroke-opacity="0.200000" d="M449.21,-370.12C469.46,-380.59 501.26,-397.03 524.03,-408.8"/>
<polygon fill="#000000" fill-opacity="0.200000" stroke="#000000" stroke-width="2" stroke-opacity="0.200000" points="523.67,-411.01 529.97,-411.9 525.6,-407.28 523.67,-411.01"/>
</g>
<!-- src/pages/settings/Settings.tsx&#45;&gt;src/shared/ui/index.ts -->
<g id="edge27" class="edge">
<title>src/pages/settings/Settings.tsx&#45;&gt;src/shared/ui/index.ts</title>
<path fill="none" stroke="#000000" stroke-width="2" stroke-opacity="0.200000" d="M451.68,-244.12C465.31,-251.34 482.28,-262.2 493.5,-276 525.51,-315.38 541.54,-374.6 547.98,-404.43"/>
<polygon fill="#000000" fill-opacity="0.200000" stroke="#000000" stroke-width="2" stroke-opacity="0.200000" points="546.47,-405.56 549.74,-411.02 550.59,-404.72 546.47,-405.56"/>
</g>
<!-- src/pages/users/Users.tsx&#45;&gt;src/shared/ui/index.ts -->
<g id="edge29" class="edge">
<title>src/pages/users/Users.tsx&#45;&gt;src/shared/ui/index.ts</title>
<path fill="none" stroke="#000000" stroke-width="2" stroke-opacity="0.200000" d="M452.81,-181.05C466.53,-188.11 483.19,-198.84 493.5,-213 537.42,-273.32 548.09,-365.39 550.68,-404.44"/>
<polygon fill="#000000" fill-opacity="0.200000" stroke="#000000" stroke-width="2" stroke-opacity="0.200000" points="548.74,-404.31 551.18,-410.18 552.93,-404.07 548.74,-404.31"/>
</g>
</g>
</svg>
