<?xml version="1.0" encoding="UTF-8" standalone="no"?>
<!DOCTYPE svg PUBLIC "-//W3C//DTD SVG 1.1//EN"
 "http://www.w3.org/Graphics/SVG/1.1/DTD/svg11.dtd">
<!-- Generated by graphviz version 8.1.0 (0)
 -->
<!-- Title: dependency&#45;cruiser output Pages: 1 -->
<svg width="581pt" height="679pt"
 viewBox="0.00 0.00 580.85 679.41" xmlns="http://www.w3.org/2000/svg" xmlns:xlink="http://www.w3.org/1999/xlink">
<g id="graph0" class="graph" transform="scale(1 1) rotate(0) translate(4 675.41)">
<title>dependency&#45;cruiser output</title>
<polygon fill="white" stroke="none" points="-4,4 -4,-675.41 576.85,-675.41 576.85,4 -4,4"/>
<g id="clust1" class="cluster">
<title>cluster_src</title>
<path fill="#ffffff" stroke="black" stroke-width="2" d="M20,-8C20,-8 552.85,-8 552.85,-8 558.85,-8 564.85,-14 564.85,-20 564.85,-20 564.85,-645 564.85,-645 564.85,-651 558.85,-657 552.85,-657 552.85,-657 20,-657 20,-657 14,-657 8,-651 8,-645 8,-645 8,-20 8,-20 8,-14 14,-8 20,-8"/>
<text text-anchor="middle" x="286.42" y="-644.45" font-family="Helvetica,sans-Serif" font-weight="bold" font-size="9.00">src</text>
</g>
<g id="clust2" class="cluster">
<title>cluster_src/app</title>
<path fill="#ffffff" stroke="black" stroke-width="2" d="M28,-458C28,-458 94.6,-458 94.6,-458 100.6,-458 106.6,-464 106.6,-470 106.6,-470 106.6,-501 106.6,-501 106.6,-507 100.6,-513 94.6,-513 94.6,-513 28,-513 28,-513 22,-513 16,-507 16,-501 16,-501 16,-470 16,-470 16,-464 22,-458 28,-458"/>
<text text-anchor="start" x="51.55" y="-500.45" font-family="Helvetica,sans-Serif" font-weight="bold" font-size="9.00">app</text>
</g>
<g id="clust3" class="cluster">
<title>cluster_src/entities</title>
<path fill="#ffffff" stroke="black" stroke-width="2" d="M236.42,-16C236.42,-16 364.85,-16 364.85,-16 370.85,-16 376.85,-22 376.85,-28 376.85,-28 376.85,-106 376.85,-106 376.85,-112 370.85,-118 364.85,-118 364.85,-118 236.42,-118 236.42,-118 230.42,-118 224.42,-112 224.42,-106 224.42,-106 224.42,-28 224.42,-28 224.42,-22 230.42,-16 236.42,-16"/>
<text text-anchor="middle" x="300.64" y="-105.45" font-family="Helvetica,sans-Serif" font-weight="bold" font-size="9.00">entities</text>
</g>
<g id="clust4" class="cluster">
<title>cluster_src/entities/cabin</title>
<path fill="#ffffff" stroke="black" stroke-width="2" d="M244.42,-36C244.42,-36 356.85,-36 356.85,-36 362.85,-36 368.85,-42 368.85,-48 368.85,-48 368.85,-79 368.85,-79 368.85,-85 362.85,-91 356.85,-91 356.85,-91 244.42,-91 244.42,-91 238.42,-91 232.42,-85 232.42,-79 232.42,-79 232.42,-48 232.42,-48 232.42,-42 238.42,-36 244.42,-36"/>
<text text-anchor="start" x="286.76" y="-78.45" font-family="Helvetica,sans-Serif" font-weight="bold" font-size="9.00">cabin</text>
</g>
<g id="clust5" class="cluster">
<title>cluster_src/features</title>
<path fill="#ffffff" stroke="black" stroke-width="2" d="M211.22,-150C211.22,-150 273.22,-150 273.22,-150 279.22,-150 285.22,-156 285.22,-162 285.22,-162 285.22,-239 285.22,-239 285.22,-245 279.22,-251 273.22,-251 273.22,-251 211.22,-251 211.22,-251 205.22,-251 199.22,-245 199.22,-239 199.22,-239 199.22,-162 199.22,-162 199.22,-156 205.22,-150 211.22,-150"/>
<text text-anchor="middle" x="242.22" y="-238.45" font-family="Helvetica,sans-Serif" font-weight="bold" font-size="9.00">features</text>
</g>
<g id="clust6" class="cluster">
<title>cluster_src/pages</title>
<path fill="#ffffff" stroke="black" stroke-width="2" d="M126.6,-259C126.6,-259 286.85,-259 286.85,-259 292.85,-259 298.85,-265 298.85,-271 298.85,-271 298.85,-594 298.85,-594 298.85,-600 292.85,-606 286.85,-606 286.85,-606 126.6,-606 126.6,-606 120.6,-606 114.6,-600 114.6,-594 114.6,-594 114.6,-271 114.6,-271 114.6,-265 120.6,-259 126.6,-259"/>
<text text-anchor="middle" x="206.72" y="-593.45" font-family="Helvetica,sans-Serif" font-weight="bold" font-size="9.00">pages</text>
</g>
<g id="clust7" class="cluster">
<title>cluster_src/pages/layouts</title>
<path fill="#ffffff" stroke="black" stroke-width="2" d="M156.8,-403C156.8,-403 278.85,-403 278.85,-403 284.85,-403 290.85,-409 290.85,-415 290.85,-415 290.85,-446 290.85,-446 290.85,-452 284.85,-458 278.85,-458 278.85,-458 156.8,-458 156.8,-458 150.8,-458 144.8,-452 144.8,-446 144.8,-446 144.8,-415 144.8,-415 144.8,-409 150.8,-403 156.8,-403"/>
<text text-anchor="start" x="199.07" y="-445.45" font-family="Helvetica,sans-Serif" font-weight="bold" font-size="9.00">layouts</text>
</g>
<g id="clust8" class="cluster">
<title>cluster_src/shared</title>
<path fill="#ffffff" stroke="black" stroke-width="2" d="M396.85,-141C396.85,-141 544.85,-141 544.85,-141 550.85,-141 556.85,-147 556.85,-153 556.85,-153 556.85,-464 556.85,-464 556.85,-470 550.85,-476 544.85,-476 544.85,-476 396.85,-476 396.85,-476 390.85,-476 384.85,-470 384.85,-464 384.85,-464 384.85,-153 384.85,-153 384.85,-147 390.85,-141 396.85,-141"/>
<text text-anchor="middle" x="470.85" y="-463.45" font-family="Helvetica,sans-Serif" font-weight="bold" font-size="9.00">shared</text>
</g>
<g id="clust9" class="cluster">
<title>cluster_src/shared/lib</title>
<path fill="#ffffff" stroke="black" stroke-width="2" d="M404.85,-348C404.85,-348 466.85,-348 466.85,-348 472.85,-348 478.85,-354 478.85,-360 478.85,-360 478.85,-437 478.85,-437 478.85,-443 472.85,-449 466.85,-449 466.85,-449 404.85,-449 404.85,-449 398.85,-449 392.85,-443 392.85,-437 392.85,-437 392.85,-360 392.85,-360 392.85,-354 398.85,-348 404.85,-348"/>
<text text-anchor="middle" x="435.85" y="-436.45" font-family="Helvetica,sans-Serif" font-weight="bold" font-size="9.00">lib</text>
</g>
<g id="clust10" class="cluster">
<title>cluster_src/shared/ui</title>
<path fill="#ffffff" stroke="black" stroke-width="2" d="M438.05,-254C438.05,-254 536.85,-254 536.85,-254 542.85,-254 548.85,-260 548.85,-266 548.85,-266 548.85,-328 548.85,-328 548.85,-334 542.85,-340 536.85,-340 536.85,-340 438.05,-340 438.05,-340 432.05,-340 426.05,-334 426.05,-328 426.05,-328 426.05,-266 426.05,-266 426.05,-260 432.05,-254 438.05,-254"/>
<text text-anchor="start" x="482.57" y="-327.45" font-family="Helvetica,sans-Serif" font-weight="bold" font-size="9.00">ui</text>
</g>
<g id="clust11" class="cluster">
<title>cluster_src/widgets</title>
<path fill="#ffffff" stroke="black" stroke-width="2" d="M129.97,-108C129.97,-108 179.22,-108 179.22,-108 185.22,-108 191.22,-114 191.22,-120 191.22,-120 191.22,-166 191.22,-166 191.22,-172 185.22,-178 179.22,-178 179.22,-178 129.97,-178 129.97,-178 123.97,-178 117.97,-172 117.97,-166 117.97,-166 117.97,-120 117.97,-120 117.97,-114 123.97,-108 129.97,-108"/>
<text text-anchor="middle" x="154.6" y="-165.45" font-family="Helvetica,sans-Serif" font-weight="bold" font-size="9.00">widgets</text>
</g>
<!-- src -->
<!-- src/app -->
<!-- src/app/providers -->
<g id="node3" class="node">
<title>src/app/providers</title>
<g id="a_node3"><a xlink:href="src/app/providers" xlink:title="providers">
<polygon fill="#ffffcc" stroke="black" points="98.6,-485.62 42.74,-485.62 40.6,-483.49 40.6,-466.38 96.46,-466.38 98.6,-468.51 98.6,-485.62"/>
<polyline fill="none" stroke="black" points="96.46,-483.49 40.6,-483.49"/>
<polyline fill="none" stroke="black" points="96.46,-483.49 96.46,-466.38"/>
<polyline fill="none" stroke="black" points="96.46,-483.49 98.6,-485.62"/>
<text text-anchor="start" x="48.6" y="-473.07" font-family="Helvetica,sans-Serif" font-size="9.00">providers</text>
</a>
</g>
</g>
<!-- src/app&#45;&gt;src/app/providers -->
<g id="edge1" class="edge">
<title>src/app&#45;&gt;src/app/providers</title>
<path fill="none" stroke="#000000" stroke-width="2" stroke-opacity="0.200000" d="M27.83,-476C28.59,-476 29.72,-476 31.15,-476"/>
<polygon fill="#000000" fill-opacity="0.200000" stroke="#000000" stroke-width="2" stroke-opacity="0.200000" points="31.14,-478.1 37.14,-476 31.14,-473.9 31.14,-478.1"/>
</g>
<!-- src/shared/lib/react&#45;query -->
<g id="node4" class="node">
<title>src/shared/lib/react&#45;query</title>
<g id="a_node4"><a xlink:href="src/shared/lib/react-query" xlink:title="react&#45;query">
<polygon fill="#ffffcc" stroke="black" points="470.1,-421.62 403.74,-421.62 401.6,-419.49 401.6,-402.38 467.96,-402.38 470.1,-404.51 470.1,-421.62"/>
<polyline fill="none" stroke="black" points="467.96,-419.49 401.6,-419.49"/>
<polyline fill="none" stroke="black" points="467.96,-419.49 467.96,-402.38"/>
<polyline fill="none" stroke="black" points="467.96,-419.49 470.1,-421.62"/>
<text text-anchor="start" x="409.6" y="-409.07" font-family="Helvetica,sans-Serif" font-size="9.00">react&#45;query</text>
</a>
</g>
</g>
<!-- src/app/providers&#45;&gt;src/shared/lib/react&#45;query -->
<g id="edge2" class="edge">
<title>src/app/providers&#45;&gt;src/shared/lib/react&#45;query</title>
<path fill="none" stroke="#000000" stroke-width="2" stroke-opacity="0.200000" d="M70.08,-485.81C69.26,-512.56 71.14,-586.9 114.6,-619 208.36,-688.25 283.98,-689.43 376.85,-619 407.32,-595.89 426.17,-477.14 432.48,-430.67"/>
<polygon fill="#000000" fill-opacity="0.200000" stroke="#000000" stroke-width="2" stroke-opacity="0.200000" points="434.94,-431.14 433.64,-424.91 430.77,-430.59 434.94,-431.14"/>
</g>
<!-- src/pages/account -->
<g id="node5" class="node">
<title>src/pages/account</title>
<g id="a_node5"><a xlink:href="src/pages/account" xlink:title="account">
<polygon fill="#ffffcc" stroke="black" points="181.6,-516.62 129.74,-516.62 127.6,-514.49 127.6,-497.38 179.46,-497.38 181.6,-499.51 181.6,-516.62"/>
<polyline fill="none" stroke="black" points="179.46,-514.49 127.6,-514.49"/>
<polyline fill="none" stroke="black" points="179.46,-514.49 179.46,-497.38"/>
<polyline fill="none" stroke="black" points="179.46,-514.49 181.6,-516.62"/>
<text text-anchor="start" x="136.22" y="-504.07" font-family="Helvetica,sans-Serif" font-size="9.00">account</text>
</a>
</g>
</g>
<!-- src/app/providers&#45;&gt;src/pages/account -->
<g id="edge3" class="edge">
<title>src/app/providers&#45;&gt;src/pages/account</title>
<path fill="none" stroke="#000000" stroke-width="2" stroke-dasharray="5,2" stroke-opacity="0.200000" d="M97.32,-485.98C104.2,-488.55 111.7,-491.35 118.92,-494.05"/>
<polygon fill="#000000" fill-opacity="0.200000" stroke="#000000" stroke-width="2" stroke-opacity="0.200000" points="118.86,-496.01 125.22,-496.15 120.33,-492.08 118.86,-496.01"/>
</g>
<!-- src/pages/bookings -->
<g id="node6" class="node">
<title>src/pages/bookings</title>
<g id="a_node6"><a xlink:href="src/pages/bookings" xlink:title="bookings">
<polygon fill="#ffffcc" stroke="black" points="182.85,-547.62 128.49,-547.62 126.35,-545.49 126.35,-528.38 180.71,-528.38 182.85,-530.51 182.85,-547.62"/>
<polyline fill="none" stroke="black" points="180.71,-545.49 126.35,-545.49"/>
<polyline fill="none" stroke="black" points="180.71,-545.49 180.71,-528.38"/>
<polyline fill="none" stroke="black" points="180.71,-545.49 182.85,-547.62"/>
<text text-anchor="start" x="134.35" y="-535.08" font-family="Helvetica,sans-Serif" font-size="9.00">bookings</text>
</a>
</g>
</g>
<!-- src/app/providers&#45;&gt;src/pages/bookings -->
<g id="edge4" class="edge">
<title>src/app/providers&#45;&gt;src/pages/bookings</title>
<path fill="none" stroke="#000000" stroke-width="2" stroke-dasharray="5,2" stroke-opacity="0.200000" d="M77.67,-485.88C85.61,-496.35 99.4,-512.76 114.6,-523 115.69,-523.73 116.82,-524.44 117.98,-525.12"/>
<polygon fill="#000000" fill-opacity="0.200000" stroke="#000000" stroke-width="2" stroke-opacity="0.200000" points="117.66,-527.33 123.96,-528.18 119.57,-523.59 117.66,-527.33"/>
</g>
<!-- src/pages/cabins -->
<g id="node7" class="node">
<title>src/pages/cabins</title>
<g id="a_node7"><a xlink:href="src/pages/cabins" xlink:title="cabins">
<polygon fill="#ffffcc" stroke="black" points="181.6,-485.62 129.74,-485.62 127.6,-483.49 127.6,-466.38 179.46,-466.38 181.6,-468.51 181.6,-485.62"/>
<polyline fill="none" stroke="black" points="179.46,-483.49 127.6,-483.49"/>
<polyline fill="none" stroke="black" points="179.46,-483.49 179.46,-466.38"/>
<polyline fill="none" stroke="black" points="179.46,-483.49 181.6,-485.62"/>
<text text-anchor="start" x="139.97" y="-473.07" font-family="Helvetica,sans-Serif" font-size="9.00">cabins</text>
</a>
</g>
</g>
<!-- src/app/providers&#45;&gt;src/pages/cabins -->
<g id="edge5" class="edge">
<title>src/app/providers&#45;&gt;src/pages/cabins</title>
<path fill="none" stroke="#000000" stroke-width="2" stroke-dasharray="5,2" stroke-opacity="0.200000" d="M98.7,-476C105.04,-476 111.84,-476 118.43,-476"/>
<polygon fill="#000000" fill-opacity="0.200000" stroke="#000000" stroke-width="2" stroke-opacity="0.200000" points="118.21,-478.1 124.21,-476 118.21,-473.9 118.21,-478.1"/>
</g>
<!-- src/pages/dashboard -->
<g id="node8" class="node">
<title>src/pages/dashboard</title>
<g id="a_node8"><a xlink:href="src/pages/dashboard" xlink:title="dashboard">
<polygon fill="#ffffcc" stroke="black" points="186.6,-301.62 124.74,-301.62 122.6,-299.49 122.6,-282.38 184.46,-282.38 186.6,-284.51 186.6,-301.62"/>
<polyline fill="none" stroke="black" points="184.46,-299.49 122.6,-299.49"/>
<polyline fill="none" stroke="black" points="184.46,-299.49 184.46,-282.38"/>
<polyline fill="none" stroke="black" points="184.46,-299.49 186.6,-301.62"/>
<text text-anchor="start" x="130.6" y="-289.07" font-family="Helvetica,sans-Serif" font-size="9.00">dashboard</text>
</a>
</g>
</g>
<!-- src/app/providers&#45;&gt;src/pages/dashboard -->
<g id="edge6" class="edge">
<title>src/app/providers&#45;&gt;src/pages/dashboard</title>
<path fill="none" stroke="#000000" stroke-width="2" stroke-dasharray="5,2" stroke-opacity="0.200000" d="M70.24,-466.19C69.75,-437.79 72.18,-354.48 114.6,-307 114.88,-306.69 115.16,-306.38 115.45,-306.09"/>
<polygon fill="#000000" fill-opacity="0.200000" stroke="#000000" stroke-width="2" stroke-opacity="0.200000" points="116.96,-307.03 120.41,-301.7 114.38,-303.71 116.96,-307.03"/>
</g>
<!-- src/pages/error -->
<g id="node9" class="node">
<title>src/pages/error</title>
<g id="a_node9"><a xlink:href="src/pages/error" xlink:title="error">
<polygon fill="#ffffcc" stroke="black" points="181.6,-332.62 129.74,-332.62 127.6,-330.49 127.6,-313.38 179.46,-313.38 181.6,-315.51 181.6,-332.62"/>
<polyline fill="none" stroke="black" points="179.46,-330.49 127.6,-330.49"/>
<polyline fill="none" stroke="black" points="179.46,-330.49 179.46,-313.38"/>
<polyline fill="none" stroke="black" points="179.46,-330.49 181.6,-332.62"/>
<text text-anchor="start" x="143.72" y="-320.07" font-family="Helvetica,sans-Serif" font-size="9.00">error</text>
</a>
</g>
</g>
<!-- src/app/providers&#45;&gt;src/pages/error -->
<g id="edge7" class="edge">
<title>src/app/providers&#45;&gt;src/pages/error</title>
<path fill="none" stroke="#000000" stroke-width="2" stroke-opacity="0.200000" d="M70.93,-466.22C72.29,-441.44 79.23,-375.5 114.6,-338 116.12,-336.38 117.84,-334.94 119.69,-333.65"/>
<polygon fill="#000000" fill-opacity="0.200000" stroke="#000000" stroke-width="2" stroke-opacity="0.200000" points="121.06,-335.16 125.27,-330.4 119.01,-331.5 121.06,-335.16"/>
</g>
<!-- src/pages/layouts -->
<!-- src/app/providers&#45;&gt;src/pages/layouts -->
<g id="edge8" class="edge">
<title>src/app/providers&#45;&gt;src/pages/layouts</title>
<path fill="none" stroke="#000000" stroke-width="2" stroke-opacity="0.200000" d="M77.39,-465.91C85.09,-455.35 98.66,-439.19 114.6,-431 123.66,-426.34 135.36,-425.07 143.57,-424.82"/>
<polygon fill="#000000" fill-opacity="0.200000" stroke="#000000" stroke-width="2" stroke-opacity="0.200000" points="143.54,-426.96 149.56,-424.93 143.59,-422.76 143.54,-426.96"/>
</g>
<!-- src/pages/login -->
<g id="node11" class="node">
<title>src/pages/login</title>
<g id="a_node11"><a xlink:href="src/pages/login" xlink:title="login">
<polygon fill="#ffffcc" stroke="black" points="181.6,-578.62 129.74,-578.62 127.6,-576.49 127.6,-559.38 179.46,-559.38 181.6,-561.51 181.6,-578.62"/>
<polyline fill="none" stroke="black" points="179.46,-576.49 127.6,-576.49"/>
<polyline fill="none" stroke="black" points="179.46,-576.49 179.46,-559.38"/>
<polyline fill="none" stroke="black" points="179.46,-576.49 181.6,-578.62"/>
<text text-anchor="start" x="143.72" y="-566.08" font-family="Helvetica,sans-Serif" font-size="9.00">login</text>
</a>
</g>
</g>
<!-- src/app/providers&#45;&gt;src/pages/login -->
<g id="edge9" class="edge">
<title>src/app/providers&#45;&gt;src/pages/login</title>
<path fill="none" stroke="#000000" stroke-width="2" stroke-opacity="0.200000" d="M73.76,-486.07C79.4,-502.49 92.71,-535.1 114.6,-554 116.12,-555.31 117.76,-556.51 119.49,-557.61"/>
<polygon fill="#000000" fill-opacity="0.200000" stroke="#000000" stroke-width="2" stroke-opacity="0.200000" points="119.15,-559.87 125.43,-560.83 121.12,-556.16 119.15,-559.87"/>
</g>
<!-- src/pages/settings -->
<g id="node12" class="node">
<title>src/pages/settings</title>
<g id="a_node12"><a xlink:href="src/pages/settings" xlink:title="settings">
<polygon fill="#ffffcc" stroke="black" points="181.6,-363.62 129.74,-363.62 127.6,-361.49 127.6,-344.38 179.46,-344.38 181.6,-346.51 181.6,-363.62"/>
<polyline fill="none" stroke="black" points="179.46,-361.49 127.6,-361.49"/>
<polyline fill="none" stroke="black" points="179.46,-361.49 179.46,-344.38"/>
<polyline fill="none" stroke="black" points="179.46,-361.49 181.6,-363.62"/>
<text text-anchor="start" x="136.6" y="-351.07" font-family="Helvetica,sans-Serif" font-size="9.00">settings</text>
</a>
</g>
</g>
<!-- src/app/providers&#45;&gt;src/pages/settings -->
<g id="edge10" class="edge">
<title>src/app/providers&#45;&gt;src/pages/settings</title>
<path fill="none" stroke="#000000" stroke-width="2" stroke-dasharray="5,2" stroke-opacity="0.200000" d="M72.02,-465.98C75.5,-445.11 86.3,-396.66 114.6,-369 116.03,-367.6 117.61,-366.33 119.29,-365.17"/>
<polygon fill="#000000" fill-opacity="0.200000" stroke="#000000" stroke-width="2" stroke-opacity="0.200000" points="120.88,-366.57 125.1,-361.81 118.84,-362.9 120.88,-366.57"/>
</g>
<!-- src/pages/users -->
<g id="node13" class="node">
<title>src/pages/users</title>
<g id="a_node13"><a xlink:href="src/pages/users" xlink:title="users">
<polygon fill="#ffffcc" stroke="black" points="181.6,-394.62 129.74,-394.62 127.6,-392.49 127.6,-375.38 179.46,-375.38 181.6,-377.51 181.6,-394.62"/>
<polyline fill="none" stroke="black" points="179.46,-392.49 127.6,-392.49"/>
<polyline fill="none" stroke="black" points="179.46,-392.49 179.46,-375.38"/>
<polyline fill="none" stroke="black" points="179.46,-392.49 181.6,-394.62"/>
<text text-anchor="start" x="142.6" y="-382.07" font-family="Helvetica,sans-Serif" font-size="9.00">users</text>
</a>
</g>
</g>
<!-- src/app/providers&#45;&gt;src/pages/users -->
<g id="edge11" class="edge">
<title>src/app/providers&#45;&gt;src/pages/users</title>
<path fill="none" stroke="#000000" stroke-width="2" stroke-dasharray="5,2" stroke-opacity="0.200000" d="M73.93,-465.93C79.72,-449.85 93.15,-418.31 114.6,-400 116.24,-398.6 118.03,-397.32 119.9,-396.16"/>
<polygon fill="#000000" fill-opacity="0.200000" stroke="#000000" stroke-width="2" stroke-opacity="0.200000" points="121.12,-397.85 125.46,-393.21 119.17,-394.12 121.12,-397.85"/>
</g>
<!-- src/shared/lib/react&#45;router -->
<g id="node14" class="node">
<title>src/shared/lib/react&#45;router</title>
<g id="a_node14"><a xlink:href="src/shared/lib/react-router" xlink:title="react&#45;router">
<polygon fill="#ffffcc" stroke="black" points="470.85,-390.62 402.99,-390.62 400.85,-388.49 400.85,-371.38 468.71,-371.38 470.85,-373.51 470.85,-390.62"/>
<polyline fill="none" stroke="black" points="468.71,-388.49 400.85,-388.49"/>
<polyline fill="none" stroke="black" points="468.71,-388.49 468.71,-371.38"/>
<polyline fill="none" stroke="black" points="468.71,-388.49 470.85,-390.62"/>
<text text-anchor="start" x="408.85" y="-378.07" font-family="Helvetica,sans-Serif" font-size="9.00">react&#45;router</text>
</a>
</g>
</g>
<!-- src/app/providers&#45;&gt;src/shared/lib/react&#45;router -->
<g id="edge12" class="edge">
<title>src/app/providers&#45;&gt;src/shared/lib/react&#45;router</title>
<path fill="none" stroke="#000000" stroke-width="2" stroke-opacity="0.200000" d="M70.33,-485.88C70.25,-511.42 73.99,-579.66 114.6,-609 131.19,-620.99 280.32,-617.7 298.85,-609 347.99,-585.92 356.72,-565.42 376.85,-515 386.68,-490.39 368.32,-416.72 384.85,-396 387.04,-393.25 389.72,-390.99 392.69,-389.13"/>
<polygon fill="#000000" fill-opacity="0.200000" stroke="#000000" stroke-width="2" stroke-opacity="0.200000" points="394.07,-390.82 398.54,-386.3 392.23,-387.04 394.07,-390.82"/>
</g>
<!-- src/shared/ui -->
<!-- src/pages/account&#45;&gt;src/shared/ui -->
<g id="edge23" class="edge">
<title>src/pages/account&#45;&gt;src/shared/ui</title>
<path fill="none" stroke="#000000" stroke-width="2" stroke-opacity="0.200000" d="M181.86,-511.92C228.85,-519.04 327.06,-525.92 376.85,-471 395.69,-450.21 371.59,-369.73 384.85,-345 393.84,-328.23 413.82,-316.66 425.62,-311"/>
<polygon fill="#000000" fill-opacity="0.200000" stroke="#000000" stroke-width="2" stroke-opacity="0.200000" points="426.96,-312.82 431.61,-308.48 425.27,-308.98 426.96,-312.82"/>
</g>
<!-- src/pages/bookings&#45;&gt;src/shared/ui -->
<g id="edge24" class="edge">
<title>src/pages/bookings&#45;&gt;src/shared/ui</title>
<path fill="none" stroke="#000000" stroke-width="2" stroke-opacity="0.200000" d="M183.23,-541.47C231.02,-545.75 328.65,-546.52 376.85,-490 387.32,-477.72 377.28,-359.25 384.85,-345 393.77,-328.19 413.78,-316.64 425.6,-310.99"/>
<polygon fill="#000000" fill-opacity="0.200000" stroke="#000000" stroke-width="2" stroke-opacity="0.200000" points="426.95,-312.81 431.6,-308.48 425.27,-308.96 426.95,-312.81"/>
</g>
<!-- src/shared/api -->
<g id="node18" class="node">
<title>src/shared/api</title>
<g id="a_node18"><a xlink:href="src/shared/api" xlink:title="api">
<polygon fill="#ffffcc" stroke="black" points="462.85,-214.62 410.99,-214.62 408.85,-212.49 408.85,-195.38 460.71,-195.38 462.85,-197.51 462.85,-214.62"/>
<polyline fill="none" stroke="black" points="460.71,-212.49 408.85,-212.49"/>
<polyline fill="none" stroke="black" points="460.71,-212.49 460.71,-195.38"/>
<polyline fill="none" stroke="black" points="460.71,-212.49 462.85,-214.62"/>
<text text-anchor="start" x="429.1" y="-202.07" font-family="Helvetica,sans-Serif" font-size="9.00">api</text>
</a>
</g>
</g>
<!-- src/pages/cabins&#45;&gt;src/shared/api -->
<g id="edge26" class="edge">
<title>src/pages/cabins&#45;&gt;src/shared/api</title>
<path fill="none" stroke="#000000" stroke-width="2" stroke-opacity="0.200000" d="M181.92,-480.95C213.23,-485.27 265.43,-487.27 298.85,-461 388.26,-390.72 302.4,-298.33 384.85,-220 389.18,-215.89 394.58,-212.9 400.23,-210.73"/>
<polygon fill="#000000" fill-opacity="0.200000" stroke="#000000" stroke-width="2" stroke-opacity="0.200000" points="401.49,-211.91 406.58,-208.1 400.23,-207.9 401.49,-211.91"/>
</g>
<!-- src/pages/cabins&#45;&gt;src/shared/ui -->
<g id="edge27" class="edge">
<title>src/pages/cabins&#45;&gt;src/shared/ui</title>
<path fill="none" stroke="#000000" stroke-width="2" stroke-opacity="0.200000" d="M182,-485.37C228.33,-499.94 324.33,-521.42 376.85,-471 386.97,-461.29 378.22,-357.36 384.85,-345 393.84,-328.23 413.82,-316.66 425.62,-311"/>
<polygon fill="#000000" fill-opacity="0.200000" stroke="#000000" stroke-width="2" stroke-opacity="0.200000" points="426.96,-312.82 431.61,-308.48 425.27,-308.98 426.96,-312.82"/>
</g>
<!-- src/features/createCabin -->
<g id="node22" class="node">
<title>src/features/createCabin</title>
<g id="a_node22"><a xlink:href="src/features/createCabin" xlink:title="createCabin">
<polygon fill="#ffffcc" stroke="black" points="277.22,-208.62 209.36,-208.62 207.22,-206.49 207.22,-189.38 275.09,-189.38 277.22,-191.51 277.22,-208.62"/>
<polyline fill="none" stroke="black" points="275.09,-206.49 207.22,-206.49"/>
<polyline fill="none" stroke="black" points="275.09,-206.49 275.09,-189.38"/>
<polyline fill="none" stroke="black" points="275.09,-206.49 277.22,-208.62"/>
<text text-anchor="start" x="215.22" y="-196.07" font-family="Helvetica,sans-Serif" font-size="9.00">createCabin</text>
</a>
</g>
</g>
<!-- src/pages/cabins&#45;&gt;src/features/createCabin -->
<g id="edge25" class="edge">
<title>src/pages/cabins&#45;&gt;src/features/createCabin</title>
<path fill="none" stroke="#000000" stroke-width="2" stroke-opacity="0.200000" d="M181.91,-469.12C185.56,-467.08 188.87,-464.43 191.22,-461 206.78,-438.37 183.05,-236.19 199.22,-214 199.55,-213.55 199.9,-213.11 200.25,-212.69"/>
<polygon fill="#000000" fill-opacity="0.200000" stroke="#000000" stroke-width="2" stroke-opacity="0.200000" points="201.83,-213.4 205.04,-207.91 199.11,-210.2 201.83,-213.4"/>
</g>
<!-- src/widgets/CabinList -->
<g id="node26" class="node">
<title>src/widgets/CabinList</title>
<g id="a_node26"><a xlink:href="src/widgets/CabinList" xlink:title="CabinList">
<polygon fill="#ffffcc" stroke="black" points="183.22,-150.62 128.11,-150.62 125.97,-148.49 125.97,-131.38 181.09,-131.38 183.22,-133.51 183.22,-150.62"/>
<polyline fill="none" stroke="black" points="181.09,-148.49 125.97,-148.49"/>
<polyline fill="none" stroke="black" points="181.09,-148.49 181.09,-131.38"/>
<polyline fill="none" stroke="black" points="181.09,-148.49 183.22,-150.62"/>
<text text-anchor="start" x="133.97" y="-138.07" font-family="Helvetica,sans-Serif" font-size="9.00">CabinList</text>
</a>
</g>
</g>
<!-- src/pages/cabins&#45;&gt;src/widgets/CabinList -->
<g id="edge28" class="edge">
<title>src/pages/cabins&#45;&gt;src/widgets/CabinList</title>
<path fill="none" stroke="#000000" stroke-width="2" stroke-opacity="0.200000" d="M127.28,-470.76C119.73,-467.67 112.95,-462.78 110.6,-455 104.39,-434.48 106.88,-283.12 110.6,-262 117.31,-223.94 135.03,-182.09 145.82,-158.94"/>
<polygon fill="#000000" fill-opacity="0.200000" stroke="#000000" stroke-width="2" stroke-opacity="0.200000" points="147.9,-159.34 148.58,-153.02 144.11,-157.54 147.9,-159.34"/>
</g>
<!-- src/pages/dashboard&#45;&gt;src/shared/ui -->
<g id="edge29" class="edge">
<title>src/pages/dashboard&#45;&gt;src/shared/ui</title>
<path fill="none" stroke="#000000" stroke-width="2" stroke-opacity="0.200000" d="M187.09,-293.69C249.63,-297.05 386.74,-304.42 424.85,-306.46"/>
<polygon fill="#000000" fill-opacity="0.200000" stroke="#000000" stroke-width="2" stroke-opacity="0.200000" points="424.62,-308.71 430.73,-306.94 424.85,-304.52 424.62,-308.71"/>
</g>
<!-- src/pages/error&#45;&gt;src/shared/ui -->
<g id="edge30" class="edge">
<title>src/pages/error&#45;&gt;src/shared/ui</title>
<path fill="none" stroke="#000000" stroke-width="2" stroke-opacity="0.200000" d="M181.87,-321.49C241.66,-318.07 385.73,-309.81 424.88,-307.57"/>
<polygon fill="#000000" fill-opacity="0.200000" stroke="#000000" stroke-width="2" stroke-opacity="0.200000" points="424.8,-309.51 430.67,-307.07 424.56,-305.31 424.8,-309.51"/>
</g>
<!-- src/pages/layouts/PrimaryLayout -->
<g id="node27" class="node">
<title>src/pages/layouts/PrimaryLayout</title>
<g id="a_node27"><a xlink:href="src/pages/layouts/PrimaryLayout" xlink:title="PrimaryLayout">
<polygon fill="#ffffcc" stroke="black" points="282.85,-430.62 203.74,-430.62 201.6,-428.49 201.6,-411.38 280.71,-411.38 282.85,-413.51 282.85,-430.62"/>
<polyline fill="none" stroke="black" points="280.71,-428.49 201.6,-428.49"/>
<polyline fill="none" stroke="black" points="280.71,-428.49 280.71,-411.38"/>
<polyline fill="none" stroke="black" points="280.71,-428.49 282.85,-430.62"/>
<text text-anchor="start" x="209.6" y="-418.07" font-family="Helvetica,sans-Serif" font-size="9.00">PrimaryLayout</text>
</a>
</g>
</g>
<!-- src/pages/layouts&#45;&gt;src/pages/layouts/PrimaryLayout -->
<g id="edge31" class="edge">
<title>src/pages/layouts&#45;&gt;src/pages/layouts/PrimaryLayout</title>
<path fill="none" stroke="#000000" stroke-width="2" stroke-opacity="0.200000" d="M156.81,-424.94C161.14,-424.74 176.46,-424.03 192.89,-423.26"/>
<polygon fill="#000000" fill-opacity="0.200000" stroke="#000000" stroke-width="2" stroke-opacity="0.200000" points="192.63,-425.23 198.53,-422.85 192.43,-421.04 192.63,-425.23"/>
</g>
<!-- src/pages/settings&#45;&gt;src/shared/ui -->
<g id="edge34" class="edge">
<title>src/pages/settings&#45;&gt;src/shared/ui</title>
<path fill="none" stroke="#000000" stroke-width="2" stroke-opacity="0.200000" d="M181.83,-349.66C223.27,-342.79 306.39,-328.96 376.85,-317 394.01,-314.09 414.02,-310.62 425.49,-308.63"/>
<polygon fill="#000000" fill-opacity="0.200000" stroke="#000000" stroke-width="2" stroke-opacity="0.200000" points="426.48,-310.24 432.03,-307.14 425.76,-306.1 426.48,-310.24"/>
</g>
<!-- src/pages/users&#45;&gt;src/shared/ui -->
<g id="edge35" class="edge">
<title>src/pages/users&#45;&gt;src/shared/ui</title>
<path fill="none" stroke="#000000" stroke-width="2" stroke-opacity="0.200000" d="M182.01,-378.76C223.67,-368.77 307.11,-348.13 376.85,-327 394.4,-321.68 414.58,-314.47 425.91,-310.32"/>
<polygon fill="#000000" fill-opacity="0.200000" stroke="#000000" stroke-width="2" stroke-opacity="0.200000" points="427.14,-312.36 432.04,-308.31 425.68,-308.42 427.14,-312.36"/>
</g>
<!-- src/entities -->
<!-- src/entities/cabin -->
<!-- src/entities/cabin/ui -->
<g id="node17" class="node">
<title>src/entities/cabin/ui</title>
<g id="a_node17"><a xlink:href="src/entities/cabin/ui" xlink:title="ui">
<polygon fill="#ffffcc" stroke="black" points="360.85,-63.62 308.99,-63.62 306.85,-61.49 306.85,-44.38 358.71,-44.38 360.85,-46.51 360.85,-63.62"/>
<polyline fill="none" stroke="black" points="358.71,-61.49 306.85,-61.49"/>
<polyline fill="none" stroke="black" points="358.71,-61.49 358.71,-44.38"/>
<polyline fill="none" stroke="black" points="358.71,-61.49 360.85,-63.62"/>
<text text-anchor="start" x="329.72" y="-51.08" font-family="Helvetica,sans-Serif" font-size="9.00">ui</text>
</a>
</g>
</g>
<!-- src/entities/cabin&#45;&gt;src/entities/cabin/ui -->
<g id="edge13" class="edge">
<title>src/entities/cabin&#45;&gt;src/entities/cabin/ui</title>
<path fill="none" stroke="#000000" stroke-width="2" stroke-opacity="0.200000" d="M244.49,-61.89C250.36,-61.36 275.58,-59.11 297.57,-57.15"/>
<polygon fill="#000000" fill-opacity="0.200000" stroke="#000000" stroke-width="2" stroke-opacity="0.200000" points="297.64,-58.98 303.43,-56.36 297.26,-54.8 297.64,-58.98"/>
</g>
<!-- src/entities/cabin/ui&#45;&gt;src/shared/api -->
<g id="edge14" class="edge">
<title>src/entities/cabin/ui&#45;&gt;src/shared/api</title>
<path fill="none" stroke="#000000" stroke-width="2" stroke-opacity="0.200000" d="M342.9,-64.05C352.72,-76.89 368.97,-100.2 376.85,-123 381.75,-137.17 375.2,-178.52 384.85,-190 388.81,-194.71 394.18,-197.97 399.94,-200.23"/>
<polygon fill="#000000" fill-opacity="0.200000" stroke="#000000" stroke-width="2" stroke-opacity="0.200000" points="400.18,-203.12 406.54,-202.87 401.42,-199.1 400.18,-203.12"/>
</g>
<!-- src/entities/cabin/ui&#45;&gt;src/shared/ui -->
<g id="edge15" class="edge">
<title>src/entities/cabin/ui&#45;&gt;src/shared/ui</title>
<path fill="none" stroke="#000000" stroke-width="2" stroke-opacity="0.200000" d="M338.23,-64.01C346.34,-88.46 366.96,-153.27 376.85,-209 378.64,-219.1 377.71,-293.63 384.85,-301 395.21,-311.7 413.93,-310.82 425.29,-309.03"/>
<polygon fill="#000000" fill-opacity="0.200000" stroke="#000000" stroke-width="2" stroke-opacity="0.200000" points="426.53,-310.5 431.99,-307.24 425.69,-306.39 426.53,-310.5"/>
</g>
<!-- src/shared/utils -->
<g id="node20" class="node">
<title>src/shared/utils</title>
<g id="a_node20"><a xlink:href="src/shared/utils" xlink:title="utils">
<polygon fill="#ffffcc" stroke="black" points="462.85,-183.62 410.99,-183.62 408.85,-181.49 408.85,-164.38 460.71,-164.38 462.85,-166.51 462.85,-183.62"/>
<polyline fill="none" stroke="black" points="460.71,-181.49 408.85,-181.49"/>
<polyline fill="none" stroke="black" points="460.71,-181.49 460.71,-164.38"/>
<polyline fill="none" stroke="black" points="460.71,-181.49 462.85,-183.62"/>
<text text-anchor="start" x="426.47" y="-171.07" font-family="Helvetica,sans-Serif" font-size="9.00">utils</text>
</a>
</g>
</g>
<!-- src/entities/cabin/ui&#45;&gt;src/shared/utils -->
<g id="edge16" class="edge">
<title>src/entities/cabin/ui&#45;&gt;src/shared/utils</title>
<path fill="none" stroke="#000000" stroke-width="2" stroke-opacity="0.200000" d="M342.21,-63.74C351.61,-76.62 367.74,-100.36 376.85,-123 382.97,-138.2 373.69,-147 384.85,-159 388.95,-163.41 394.3,-166.55 399.97,-168.77"/>
<polygon fill="#000000" fill-opacity="0.200000" stroke="#000000" stroke-width="2" stroke-opacity="0.200000" points="400.04,-171.62 406.39,-171.41 401.3,-167.61 400.04,-171.62"/>
</g>
<!-- src/shared/ui/Form -->
<g id="node30" class="node">
<title>src/shared/ui/Form</title>
<g id="a_node30"><a xlink:href="src/shared/ui/Form" xlink:title="Form">
<polygon fill="#ffffcc" stroke="black" points="540.85,-281.62 488.99,-281.62 486.85,-279.49 486.85,-262.38 538.71,-262.38 540.85,-264.51 540.85,-281.62"/>
<polyline fill="none" stroke="black" points="538.71,-279.49 486.85,-279.49"/>
<polyline fill="none" stroke="black" points="538.71,-279.49 538.71,-262.38"/>
<polyline fill="none" stroke="black" points="538.71,-279.49 540.85,-281.62"/>
<text text-anchor="start" x="502.6" y="-269.07" font-family="Helvetica,sans-Serif" font-size="9.00">Form</text>
</a>
</g>
</g>
<!-- src/shared/ui&#45;&gt;src/shared/ui/Form -->
<g id="edge36" class="edge">
<title>src/shared/ui&#45;&gt;src/shared/ui/Form</title>
<path fill="none" stroke="#000000" stroke-width="2" stroke-opacity="0.200000" d="M438.01,-307.18C443.28,-307.91 465.2,-310.27 478.85,-301 483.3,-297.98 482.73,-294.47 486.79,-288.7"/>
<polygon fill="#000000" fill-opacity="0.200000" stroke="#000000" stroke-width="2" stroke-opacity="0.200000" points="488.28,-289.97 490.75,-284.11 485.16,-287.15 488.28,-289.97"/>
</g>
<!-- src/shared/ui/Table -->
<g id="node31" class="node">
<title>src/shared/ui/Table</title>
<g id="a_node31"><a xlink:href="src/shared/ui/Table" xlink:title="Table">
<polygon fill="#ffffcc" stroke="black" points="540.85,-312.62 488.99,-312.62 486.85,-310.49 486.85,-293.38 538.71,-293.38 540.85,-295.51 540.85,-312.62"/>
<polyline fill="none" stroke="black" points="538.71,-310.49 486.85,-310.49"/>
<polyline fill="none" stroke="black" points="538.71,-310.49 538.71,-293.38"/>
<polyline fill="none" stroke="black" points="538.71,-310.49 540.85,-312.62"/>
<text text-anchor="start" x="502.6" y="-300.07" font-family="Helvetica,sans-Serif" font-size="9.00">Table</text>
</a>
</g>
</g>
<!-- src/shared/ui&#45;&gt;src/shared/ui/Table -->
<g id="edge37" class="edge">
<title>src/shared/ui&#45;&gt;src/shared/ui/Table</title>
<path fill="none" stroke="#000000" stroke-width="2" stroke-opacity="0.200000" d="M437.92,-306.94C442.44,-306.71 460.46,-305.76 477.69,-304.85"/>
<polygon fill="#000000" fill-opacity="0.200000" stroke="#000000" stroke-width="2" stroke-opacity="0.200000" points="477.67,-306.8 483.55,-304.38 477.45,-302.6 477.67,-306.8"/>
</g>
<!-- src/features -->
<!-- src/features/createCabin&#45;&gt;src/entities/cabin -->
<g id="edge17" class="edge">
<title>src/features/createCabin&#45;&gt;src/entities/cabin</title>
<path fill="none" stroke="#000000" stroke-width="2" stroke-opacity="0.200000" d="M206.95,-188.9C204.22,-187.46 201.6,-185.84 199.22,-184 188.24,-175.49 191.94,-166.5 195.22,-153 203.15,-120.38 224.95,-86.37 235.85,-70.77"/>
<polygon fill="#000000" fill-opacity="0.200000" stroke="#000000" stroke-width="2" stroke-opacity="0.200000" points="238.2,-71.71 240,-65.61 234.79,-69.26 238.2,-71.71"/>
</g>
<!-- src/features/createCabin&#45;&gt;src/shared/api -->
<g id="edge18" class="edge">
<title>src/features/createCabin&#45;&gt;src/shared/api</title>
<path fill="none" stroke="#000000" stroke-width="2" stroke-opacity="0.200000" d="M277.61,-195.8C304.64,-193.81 343.2,-192.12 376.85,-195 384.31,-195.64 392.26,-196.73 399.8,-197.97"/>
<polygon fill="#000000" fill-opacity="0.200000" stroke="#000000" stroke-width="2" stroke-opacity="0.200000" points="400.14,-200.5 406.41,-199.46 400.86,-196.37 400.14,-200.5"/>
</g>
<!-- src/features/createCabin&#45;&gt;src/shared/ui -->
<g id="edge20" class="edge">
<title>src/features/createCabin&#45;&gt;src/shared/ui</title>
<path fill="none" stroke="#000000" stroke-width="2" stroke-opacity="0.200000" d="M277.68,-202.37C285.49,-204.62 293.15,-208.24 298.85,-214 308.86,-224.12 298.63,-233.39 306.85,-245 328.5,-275.58 348.62,-267.35 376.85,-292 380.88,-295.52 380.11,-298.52 384.85,-301 397.63,-307.68 414.7,-308.24 425.22,-307.8"/>
<polygon fill="#000000" fill-opacity="0.200000" stroke="#000000" stroke-width="2" stroke-opacity="0.200000" points="425.27,-309.66 431.09,-307.1 424.94,-305.48 425.27,-309.66"/>
</g>
<!-- src/shared/hooks -->
<g id="node23" class="node">
<title>src/shared/hooks</title>
<g id="a_node23"><a xlink:href="src/shared/hooks" xlink:title="hooks">
<polygon fill="#ffffcc" stroke="black" points="462.85,-245.62 410.99,-245.62 408.85,-243.49 408.85,-226.38 460.71,-226.38 462.85,-228.51 462.85,-245.62"/>
<polyline fill="none" stroke="black" points="460.71,-243.49 408.85,-243.49"/>
<polyline fill="none" stroke="black" points="460.71,-243.49 460.71,-226.38"/>
<polyline fill="none" stroke="black" points="460.71,-243.49 462.85,-245.62"/>
<text text-anchor="start" x="422.72" y="-233.07" font-family="Helvetica,sans-Serif" font-size="9.00">hooks</text>
</a>
</g>
</g>
<!-- src/features/createCabin&#45;&gt;src/shared/hooks -->
<g id="edge19" class="edge">
<title>src/features/createCabin&#45;&gt;src/shared/hooks</title>
<path fill="none" stroke="#000000" stroke-width="2" stroke-opacity="0.200000" d="M277.48,-205.61C312.12,-212.3 365.37,-222.58 400.16,-229.3"/>
<polygon fill="#000000" fill-opacity="0.200000" stroke="#000000" stroke-width="2" stroke-opacity="0.200000" points="400.29,-231.85 406.58,-230.93 401.09,-227.73 400.29,-231.85"/>
</g>
<!-- src/features/deleteCabin -->
<g id="node24" class="node">
<title>src/features/deleteCabin</title>
<g id="a_node24"><a xlink:href="src/features/deleteCabin" xlink:title="deleteCabin">
<polygon fill="#ffffcc" stroke="black" points="276.85,-177.62 209.74,-177.62 207.6,-175.49 207.6,-158.38 274.71,-158.38 276.85,-160.51 276.85,-177.62"/>
<polyline fill="none" stroke="black" points="274.71,-175.49 207.6,-175.49"/>
<polyline fill="none" stroke="black" points="274.71,-175.49 274.71,-158.38"/>
<polyline fill="none" stroke="black" points="274.71,-175.49 276.85,-177.62"/>
<text text-anchor="start" x="215.6" y="-165.07" font-family="Helvetica,sans-Serif" font-size="9.00">deleteCabin</text>
</a>
</g>
</g>
<!-- src/features/deleteCabin&#45;&gt;src/shared/api -->
<g id="edge21" class="edge">
<title>src/features/deleteCabin&#45;&gt;src/shared/api</title>
<path fill="none" stroke="#000000" stroke-width="2" stroke-opacity="0.200000" d="M277.12,-173.2C304.2,-177.5 343.08,-184.03 376.85,-191 384.29,-192.54 392.22,-194.34 399.76,-196.13"/>
<polygon fill="#000000" fill-opacity="0.200000" stroke="#000000" stroke-width="2" stroke-opacity="0.200000" points="400.04,-198.85 406.37,-198.22 401.03,-194.76 400.04,-198.85"/>
</g>
<!-- src/features/deleteCabin&#45;&gt;src/shared/ui -->
<g id="edge22" class="edge">
<title>src/features/deleteCabin&#45;&gt;src/shared/ui</title>
<path fill="none" stroke="#000000" stroke-width="2" stroke-opacity="0.200000" d="M277.19,-171.12C285.2,-173.36 293.08,-177.04 298.85,-183 309.65,-194.15 296.8,-205.17 306.85,-217 328.66,-242.66 356.17,-219.42 376.85,-246 392.02,-265.5 367.17,-283.75 384.85,-301 395.51,-311.4 414.13,-310.61 425.39,-308.93"/>
<polygon fill="#000000" fill-opacity="0.200000" stroke="#000000" stroke-width="2" stroke-opacity="0.200000" points="426.52,-310.45 432,-307.23 425.7,-306.33 426.52,-310.45"/>
</g>
<!-- src/pages -->
<!-- src/widgets/CabinList&#45;&gt;src/entities/cabin -->
<g id="edge38" class="edge">
<title>src/widgets/CabinList&#45;&gt;src/entities/cabin</title>
<path fill="none" stroke="#000000" stroke-width="2" stroke-opacity="0.200000" d="M183.24,-131.07C186.05,-129.56 188.77,-127.88 191.22,-126 211.57,-110.43 228.22,-84.73 236.17,-71.11"/>
<polygon fill="#000000" fill-opacity="0.200000" stroke="#000000" stroke-width="2" stroke-opacity="0.200000" points="238.38,-71.69 239.48,-65.43 234.71,-69.64 238.38,-71.69"/>
</g>
<!-- src/widgets/CabinList&#45;&gt;src/shared/api -->
<g id="edge40" class="edge">
<title>src/widgets/CabinList&#45;&gt;src/shared/api</title>
<path fill="none" stroke="#000000" stroke-width="2" stroke-opacity="0.200000" d="M183.49,-136.03C212.68,-131.8 259.62,-127.74 298.85,-137 336.57,-145.9 348.69,-149.36 376.85,-176 382.06,-180.92 379.24,-185.54 384.85,-190 389.27,-193.52 394.51,-196.21 399.9,-198.27"/>
<polygon fill="#000000" fill-opacity="0.200000" stroke="#000000" stroke-width="2" stroke-opacity="0.200000" points="400.04,-201.17 406.39,-201.02 401.33,-197.18 400.04,-201.17"/>
</g>
<!-- src/widgets/CabinList&#45;&gt;src/shared/ui -->
<g id="edge41" class="edge">
<title>src/widgets/CabinList&#45;&gt;src/shared/ui</title>
<path fill="none" stroke="#000000" stroke-width="2" stroke-opacity="0.200000" d="M183.7,-138.96C219.9,-136.87 280.36,-135.37 298.85,-147 305.25,-151.02 302.02,-156.19 306.85,-162 332.3,-192.65 357.89,-182.96 376.85,-218 385.67,-234.3 371.9,-287.75 384.85,-301 395.26,-311.65 413.96,-310.79 425.3,-309.01"/>
<polygon fill="#000000" fill-opacity="0.200000" stroke="#000000" stroke-width="2" stroke-opacity="0.200000" points="426.53,-310.49 431.99,-307.23 425.69,-306.38 426.53,-310.49"/>
</g>
<!-- src/widgets/CabinList&#45;&gt;src/features/deleteCabin -->
<g id="edge39" class="edge">
<title>src/widgets/CabinList&#45;&gt;src/features/deleteCabin</title>
<path fill="none" stroke="#000000" stroke-width="2" stroke-opacity="0.200000" d="M183.64,-149.84C189.14,-151.58 195.02,-153.43 200.84,-155.26"/>
<polygon fill="#000000" fill-opacity="0.200000" stroke="#000000" stroke-width="2" stroke-opacity="0.200000" points="200.91,-158.12 207.27,-157.92 202.17,-154.11 200.91,-158.12"/>
</g>
<!-- src/pages/layouts/PrimaryLayout&#45;&gt;src/shared/lib/react&#45;router -->
<g id="edge33" class="edge">
<title>src/pages/layouts/PrimaryLayout&#45;&gt;src/shared/lib/react&#45;router</title>
<path fill="none" stroke="#000000" stroke-width="2" stroke-opacity="0.200000" d="M283.13,-427.01C311.44,-429.17 349.16,-427.63 376.85,-410 382.9,-406.15 379.24,-400.46 384.85,-396 387.23,-394.11 389.84,-392.46 392.58,-391.01"/>
<polygon fill="#000000" fill-opacity="0.200000" stroke="#000000" stroke-width="2" stroke-opacity="0.200000" points="393.95,-392.82 398.58,-388.47 392.25,-388.98 393.95,-392.82"/>
</g>
<!-- src/pages/layouts/PrimaryLayout&#45;&gt;src/shared/ui -->
<g id="edge32" class="edge">
<title>src/pages/layouts/PrimaryLayout&#45;&gt;src/shared/ui</title>
<path fill="none" stroke="#000000" stroke-width="2" stroke-opacity="0.200000" d="M283.23,-419.7C313.31,-416.51 353.25,-407.16 376.85,-381 387.83,-368.83 376.01,-358.8 384.85,-345 395.08,-329.03 414.51,-317.21 425.9,-311.28"/>
<polygon fill="#000000" fill-opacity="0.200000" stroke="#000000" stroke-width="2" stroke-opacity="0.200000" points="427.49,-312.88 431.97,-308.38 425.66,-309.1 427.49,-312.88"/>
</g>
<!-- src/shared -->
<!-- src/shared/lib -->
<!-- src/widgets -->
</g>
</svg>
